%TF.GenerationSoftware,KiCad,Pcbnew,(5.1.10)-1*%
%TF.CreationDate,2021-12-18T16:47:06+01:00*%
%TF.ProjectId,Sonoff,536f6e6f-6666-42e6-9b69-6361645f7063,rev?*%
%TF.SameCoordinates,Original*%
%TF.FileFunction,Copper,L2,Bot*%
%TF.FilePolarity,Positive*%
%FSLAX46Y46*%
G04 Gerber Fmt 4.6, Leading zero omitted, Abs format (unit mm)*
G04 Created by KiCad (PCBNEW (5.1.10)-1) date 2021-12-18 16:47:06*
%MOMM*%
%LPD*%
G01*
G04 APERTURE LIST*
%TA.AperFunction,ComponentPad*%
%ADD10C,3.000000*%
%TD*%
%TA.AperFunction,ComponentPad*%
%ADD11R,3.000000X3.000000*%
%TD*%
%TA.AperFunction,ComponentPad*%
%ADD12O,1.700000X1.700000*%
%TD*%
%TA.AperFunction,ComponentPad*%
%ADD13R,1.700000X1.700000*%
%TD*%
%TA.AperFunction,ComponentPad*%
%ADD14R,1.600000X1.600000*%
%TD*%
%TA.AperFunction,ComponentPad*%
%ADD15C,1.600000*%
%TD*%
%TA.AperFunction,ComponentPad*%
%ADD16R,2.200000X2.200000*%
%TD*%
%TA.AperFunction,ComponentPad*%
%ADD17O,2.200000X2.200000*%
%TD*%
%TA.AperFunction,ComponentPad*%
%ADD18R,2.500000X2.500000*%
%TD*%
%TA.AperFunction,ComponentPad*%
%ADD19O,2.500000X2.500000*%
%TD*%
%TA.AperFunction,ComponentPad*%
%ADD20R,1.500000X1.500000*%
%TD*%
%TA.AperFunction,ComponentPad*%
%ADD21C,1.500000*%
%TD*%
%TA.AperFunction,ComponentPad*%
%ADD22R,1.050000X1.500000*%
%TD*%
%TA.AperFunction,ComponentPad*%
%ADD23O,1.050000X1.500000*%
%TD*%
%TA.AperFunction,ComponentPad*%
%ADD24O,1.600000X1.600000*%
%TD*%
%TA.AperFunction,ComponentPad*%
%ADD25C,2.000000*%
%TD*%
%TA.AperFunction,ComponentPad*%
%ADD26R,1.727200X1.727200*%
%TD*%
%TA.AperFunction,ComponentPad*%
%ADD27O,1.727200X1.727200*%
%TD*%
%TA.AperFunction,ViaPad*%
%ADD28C,5.000000*%
%TD*%
%TA.AperFunction,ViaPad*%
%ADD29C,0.800000*%
%TD*%
%TA.AperFunction,Conductor*%
%ADD30C,0.508000*%
%TD*%
%TA.AperFunction,Conductor*%
%ADD31C,1.016000*%
%TD*%
%TA.AperFunction,Conductor*%
%ADD32C,0.254000*%
%TD*%
%TA.AperFunction,Conductor*%
%ADD33C,2.032000*%
%TD*%
%TA.AperFunction,Conductor*%
%ADD34C,0.100000*%
%TD*%
G04 APERTURE END LIST*
D10*
%TO.P,AC IN,2*%
%TO.N,Net-(J1-Pad2)*%
X113030000Y-82804000D03*
D11*
%TO.P,AC IN,1*%
%TO.N,Net-(J1-Pad1)*%
X113030000Y-77724000D03*
%TD*%
D12*
%TO.P,FTDI IN,6*%
%TO.N,Net-(J5-Pad6)*%
X192278000Y-127254000D03*
%TO.P,FTDI IN,5*%
%TO.N,RX*%
X189738000Y-127254000D03*
%TO.P,FTDI IN,4*%
%TO.N,TX*%
X187198000Y-127254000D03*
%TO.P,FTDI IN,3*%
%TO.N,+3V3*%
X184658000Y-127254000D03*
%TO.P,FTDI IN,2*%
%TO.N,Net-(J5-Pad2)*%
X182118000Y-127254000D03*
D13*
%TO.P,FTDI IN,1*%
%TO.N,GND*%
X179578000Y-127254000D03*
%TD*%
D14*
%TO.P,C1,1*%
%TO.N,+5V*%
X192532000Y-82296000D03*
D15*
%TO.P,C1,2*%
%TO.N,GND*%
X192532000Y-78796000D03*
%TD*%
%TO.P,C2,2*%
%TO.N,GND*%
X181864000Y-78796000D03*
D14*
%TO.P,C2,1*%
%TO.N,+3V3*%
X181864000Y-82296000D03*
%TD*%
D16*
%TO.P,D1,1*%
%TO.N,Net-(D1-Pad1)*%
X166116000Y-90424000D03*
D17*
%TO.P,D1,2*%
%TO.N,GND*%
X166116000Y-98044000D03*
%TD*%
D16*
%TO.P,D2,1*%
%TO.N,+5V*%
X123698000Y-107696000D03*
D17*
%TO.P,D2,2*%
%TO.N,Net-(D2-Pad2)*%
X123698000Y-115316000D03*
%TD*%
D16*
%TO.P,D3,1*%
%TO.N,+5V*%
X152146000Y-107696000D03*
D17*
%TO.P,D3,2*%
%TO.N,Net-(D3-Pad2)*%
X152146000Y-115316000D03*
%TD*%
D11*
%TO.P,5V IN,1*%
%TO.N,+5V*%
X113030000Y-89408000D03*
D10*
%TO.P,5V IN,2*%
%TO.N,GND*%
X113030000Y-94488000D03*
%TD*%
D11*
%TO.P,K1 OUT,1*%
%TO.N,K1_OFF*%
X113030000Y-101092000D03*
D10*
%TO.P,K1 OUT,2*%
%TO.N,K1_ON*%
X113030000Y-106172000D03*
%TO.P,K1 OUT,3*%
%TO.N,K1_IN*%
X113030000Y-111252000D03*
%TD*%
%TO.P,K2 OUT,3*%
%TO.N,K2_IN*%
X113030000Y-128016000D03*
%TO.P,K2 OUT,2*%
%TO.N,K2_ON*%
X113030000Y-122936000D03*
D11*
%TO.P,K2 OUT,1*%
%TO.N,K2_OFF*%
X113030000Y-117856000D03*
%TD*%
D18*
%TO.P,K1,1*%
%TO.N,K1_IN*%
X129286000Y-111506000D03*
D19*
%TO.P,K1,2*%
%TO.N,Net-(D2-Pad2)*%
X131286000Y-117506000D03*
%TO.P,K1,3*%
%TO.N,K1_OFF*%
X143486000Y-117506000D03*
%TO.P,K1,4*%
%TO.N,K1_ON*%
X143486000Y-105506000D03*
%TO.P,K1,5*%
%TO.N,+5V*%
X131286000Y-105506000D03*
%TD*%
D18*
%TO.P,K2,1*%
%TO.N,K2_IN*%
X157734000Y-111506000D03*
D19*
%TO.P,K2,2*%
%TO.N,Net-(D3-Pad2)*%
X159734000Y-117506000D03*
%TO.P,K2,3*%
%TO.N,K2_OFF*%
X171934000Y-117506000D03*
%TO.P,K2,4*%
%TO.N,K2_ON*%
X171934000Y-105506000D03*
%TO.P,K2,5*%
%TO.N,+5V*%
X159734000Y-105506000D03*
%TD*%
D20*
%TO.P,HLK-5M05,1*%
%TO.N,Net-(J1-Pad1)*%
X124678000Y-85646000D03*
D21*
%TO.P,HLK-5M05,2*%
%TO.N,Net-(J1-Pad2)*%
X124678000Y-91646000D03*
%TO.P,HLK-5M05,3*%
%TO.N,GND*%
X158278000Y-79646000D03*
%TO.P,HLK-5M05,4*%
%TO.N,+5V*%
X158278000Y-97646000D03*
%TD*%
D22*
%TO.P,Q1,1*%
%TO.N,+5V*%
X171450000Y-81534000D03*
D23*
%TO.P,Q1,3*%
%TO.N,+3V3*%
X173990000Y-81534000D03*
%TO.P,Q1,2*%
%TO.N,Net-(D1-Pad1)*%
X172720000Y-81534000D03*
%TD*%
D22*
%TO.P,Q2,1*%
%TO.N,GND*%
X182626000Y-117856000D03*
D23*
%TO.P,Q2,3*%
%TO.N,Net-(D2-Pad2)*%
X185166000Y-117856000D03*
%TO.P,Q2,2*%
%TO.N,K1*%
X183896000Y-117856000D03*
%TD*%
D22*
%TO.P,Q3,1*%
%TO.N,GND*%
X189992000Y-117856000D03*
D23*
%TO.P,Q3,3*%
%TO.N,Net-(D3-Pad2)*%
X192532000Y-117856000D03*
%TO.P,Q3,2*%
%TO.N,K2*%
X191262000Y-117856000D03*
%TD*%
D15*
%TO.P,R1,1*%
%TO.N,+5V*%
X166116000Y-78740000D03*
D24*
%TO.P,R1,2*%
%TO.N,Net-(D1-Pad1)*%
X166116000Y-86360000D03*
%TD*%
%TO.P,R2,2*%
%TO.N,K1*%
X181356000Y-90424000D03*
D15*
%TO.P,R2,1*%
%TO.N,+3V3*%
X181356000Y-98044000D03*
%TD*%
D24*
%TO.P,R3,2*%
%TO.N,K2*%
X186182000Y-90424000D03*
D15*
%TO.P,R3,1*%
%TO.N,+3V3*%
X186182000Y-98044000D03*
%TD*%
%TO.P,R4,1*%
%TO.N,Net-(R4-Pad1)*%
X191008000Y-90424000D03*
D24*
%TO.P,R4,2*%
%TO.N,+3V3*%
X191008000Y-98044000D03*
%TD*%
D15*
%TO.P,R5,1*%
%TO.N,K1*%
X183896000Y-111760000D03*
D24*
%TO.P,R5,2*%
%TO.N,Net-(R5-Pad2)*%
X183896000Y-104140000D03*
%TD*%
%TO.P,R6,2*%
%TO.N,Net-(R6-Pad2)*%
X191262000Y-104140000D03*
D15*
%TO.P,R6,1*%
%TO.N,K2*%
X191262000Y-111760000D03*
%TD*%
D25*
%TO.P,Reset,1*%
%TO.N,Net-(R4-Pad1)*%
X140612000Y-123952000D03*
%TO.P,Reset,2*%
%TO.N,GND*%
X140612000Y-128452000D03*
%TO.P,Reset,1*%
%TO.N,Net-(R4-Pad1)*%
X134112000Y-123952000D03*
%TO.P,Reset,2*%
%TO.N,GND*%
X134112000Y-128452000D03*
%TD*%
%TO.P,Flash,2*%
%TO.N,K2*%
X169060000Y-123952000D03*
%TO.P,Flash,1*%
%TO.N,GND*%
X169060000Y-128452000D03*
%TO.P,Flash,2*%
%TO.N,K2*%
X162560000Y-123952000D03*
%TO.P,Flash,1*%
%TO.N,GND*%
X162560000Y-128452000D03*
%TD*%
D26*
%TO.P,ESP-01,1*%
%TO.N,RX*%
X172720000Y-90424000D03*
D27*
%TO.P,ESP-01,2*%
%TO.N,GND*%
X175260000Y-90424000D03*
%TO.P,ESP-01,3*%
%TO.N,+3V3*%
X172720000Y-92964000D03*
%TO.P,ESP-01,4*%
%TO.N,Net-(R5-Pad2)*%
X175260000Y-92964000D03*
%TO.P,ESP-01,5*%
%TO.N,Net-(R4-Pad1)*%
X172720000Y-95504000D03*
%TO.P,ESP-01,6*%
%TO.N,Net-(R6-Pad2)*%
X175260000Y-95504000D03*
%TO.P,ESP-01,7*%
%TO.N,+3V3*%
X172720000Y-98044000D03*
%TO.P,ESP-01,8*%
%TO.N,TX*%
X175260000Y-98044000D03*
%TD*%
D28*
%TO.N,*%
X111760000Y-71120000D03*
X195580000Y-71120000D03*
X195580000Y-134620000D03*
X111760000Y-134620000D03*
D29*
%TO.N,+5V*%
X131318000Y-99314000D03*
%TO.N,Net-(D2-Pad2)*%
X173482000Y-114808000D03*
%TO.N,Net-(D3-Pad2)*%
X182372000Y-120904000D03*
%TO.N,TX*%
X179578000Y-102362000D03*
%TO.N,RX*%
X185070130Y-102457870D03*
X188722000Y-122936000D03*
%TO.N,Net-(R4-Pad1)*%
X181356000Y-94234000D03*
X168910000Y-100838000D03*
%TO.N,Net-(R5-Pad2)*%
X180848000Y-100076000D03*
%TD*%
D30*
%TO.N,+5V*%
X129096000Y-107696000D02*
X131286000Y-105506000D01*
X123698000Y-107696000D02*
X129096000Y-107696000D01*
X131286000Y-99346000D02*
X131318000Y-99314000D01*
X131286000Y-105506000D02*
X131286000Y-99346000D01*
D31*
%TO.N,+3V3*%
X171196000Y-98044000D02*
X172720000Y-98044000D01*
X171450000Y-87884000D02*
X170180000Y-89154000D01*
X170180000Y-97028000D02*
X171196000Y-98044000D01*
X172720000Y-92964000D02*
X170180000Y-92964000D01*
X170180000Y-92964000D02*
X170180000Y-97028000D01*
X170180000Y-89154000D02*
X170180000Y-92964000D01*
D32*
X181356000Y-98044000D02*
X186182000Y-98044000D01*
X186182000Y-98044000D02*
X191008000Y-98044000D01*
D31*
X171450000Y-87884000D02*
X179832000Y-87884000D01*
X181864000Y-85852000D02*
X181864000Y-82296000D01*
X179832000Y-87884000D02*
X181864000Y-85852000D01*
D32*
%TO.N,Net-(D1-Pad1)*%
X166116000Y-86360000D02*
X169926000Y-86360000D01*
X172720000Y-83566000D02*
X172720000Y-81534000D01*
X169926000Y-86360000D02*
X172720000Y-83566000D01*
D30*
%TO.N,Net-(D2-Pad2)*%
X129096000Y-115316000D02*
X131286000Y-117506000D01*
X123698000Y-115316000D02*
X129096000Y-115316000D01*
X173482000Y-114808000D02*
X181356000Y-114808000D01*
X181356000Y-114808000D02*
X182626000Y-116078000D01*
X185166000Y-116598000D02*
X185166000Y-117856000D01*
X184646000Y-116078000D02*
X185166000Y-116598000D01*
X182626000Y-116078000D02*
X184646000Y-116078000D01*
%TO.N,Net-(D3-Pad2)*%
X163132000Y-120904000D02*
X159734000Y-117506000D01*
X182372000Y-120904000D02*
X163132000Y-120904000D01*
D32*
%TO.N,TX*%
X175260000Y-98044000D02*
X179578000Y-102362000D01*
%TO.N,RX*%
X185070130Y-102457870D02*
X187706000Y-105093740D01*
X187706000Y-105093740D02*
X187706000Y-115570000D01*
X187706000Y-121920000D02*
X188722000Y-122936000D01*
X187706000Y-115570000D02*
X187706000Y-121920000D01*
%TO.N,K2*%
X162560000Y-123952000D02*
X169060000Y-123952000D01*
X191262000Y-122174000D02*
X191262000Y-117856000D01*
X189484000Y-123952000D02*
X191262000Y-122174000D01*
X169060000Y-123952000D02*
X189484000Y-123952000D01*
%TO.N,Net-(R4-Pad1)*%
X187198000Y-94234000D02*
X191008000Y-90424000D01*
X181356000Y-94234000D02*
X187198000Y-94234000D01*
X168910000Y-100838000D02*
X168910000Y-105156000D01*
X150114000Y-123952000D02*
X140612000Y-123952000D01*
X168910000Y-105156000D02*
X150114000Y-123952000D01*
X134112000Y-123952000D02*
X140612000Y-123952000D01*
D33*
%TO.N,K2_IN*%
X113030000Y-128016000D02*
X125476000Y-128016000D01*
X141986000Y-111506000D02*
X157734000Y-111506000D01*
X125476000Y-128016000D02*
X141986000Y-111506000D01*
D32*
%TO.N,Net-(R5-Pad2)*%
X175260000Y-92964000D02*
X178054000Y-95758000D01*
X178054000Y-95758000D02*
X178054000Y-98806000D01*
X179324000Y-100076000D02*
X180848000Y-100076000D01*
X178054000Y-98806000D02*
X179324000Y-100076000D01*
%TO.N,Net-(R6-Pad2)*%
X175260000Y-95504000D02*
X177292000Y-97536000D01*
X177292000Y-99000038D02*
X179129962Y-100838000D01*
X177292000Y-97536000D02*
X177292000Y-99000038D01*
X187960000Y-100838000D02*
X191262000Y-104140000D01*
X179129962Y-100838000D02*
X187960000Y-100838000D01*
%TD*%
%TO.N,GND*%
X110275021Y-73898201D02*
X110845554Y-74134524D01*
X111451229Y-74255000D01*
X112068771Y-74255000D01*
X112674446Y-74134524D01*
X113244979Y-73898201D01*
X113411403Y-73787000D01*
X114919315Y-73787000D01*
X114919550Y-73789383D01*
X114957290Y-73913793D01*
X115018575Y-74028450D01*
X115101052Y-74128948D01*
X115201550Y-74211425D01*
X115316207Y-74272710D01*
X115440617Y-74310450D01*
X115537581Y-74320000D01*
X115570000Y-74323193D01*
X115602419Y-74320000D01*
X191737581Y-74320000D01*
X191770000Y-74323193D01*
X191802419Y-74320000D01*
X191899383Y-74310450D01*
X192023793Y-74272710D01*
X192138450Y-74211425D01*
X192238948Y-74128948D01*
X192321425Y-74028450D01*
X192382710Y-73913793D01*
X192420450Y-73789383D01*
X192420685Y-73787000D01*
X193928597Y-73787000D01*
X194095021Y-73898201D01*
X194665554Y-74134524D01*
X195271229Y-74255000D01*
X195888771Y-74255000D01*
X196494446Y-74134524D01*
X197064979Y-73898201D01*
X197231403Y-73787000D01*
X198730000Y-73787000D01*
X198730001Y-131953000D01*
X197231403Y-131953000D01*
X197064979Y-131841799D01*
X196494446Y-131605476D01*
X195888771Y-131485000D01*
X195271229Y-131485000D01*
X194665554Y-131605476D01*
X194095021Y-131841799D01*
X193928597Y-131953000D01*
X192420685Y-131953000D01*
X192420450Y-131950617D01*
X192382710Y-131826207D01*
X192321425Y-131711550D01*
X192238948Y-131611052D01*
X192138450Y-131528575D01*
X192023793Y-131467290D01*
X191899383Y-131429550D01*
X191802419Y-131420000D01*
X191770000Y-131416807D01*
X191737581Y-131420000D01*
X115602419Y-131420000D01*
X115570000Y-131416807D01*
X115537581Y-131420000D01*
X115440617Y-131429550D01*
X115316207Y-131467290D01*
X115201550Y-131528575D01*
X115101052Y-131611052D01*
X115018575Y-131711550D01*
X114957290Y-131826207D01*
X114919550Y-131950617D01*
X114919315Y-131953000D01*
X113411403Y-131953000D01*
X113244979Y-131841799D01*
X112674446Y-131605476D01*
X112068771Y-131485000D01*
X111451229Y-131485000D01*
X110845554Y-131605476D01*
X110275021Y-131841799D01*
X110108597Y-131953000D01*
X108610000Y-131953000D01*
X108610000Y-127805721D01*
X110895000Y-127805721D01*
X110895000Y-128226279D01*
X110977047Y-128638756D01*
X111137988Y-129027302D01*
X111371637Y-129376983D01*
X111669017Y-129674363D01*
X112018698Y-129908012D01*
X112407244Y-130068953D01*
X112819721Y-130151000D01*
X113240279Y-130151000D01*
X113652756Y-130068953D01*
X114041302Y-129908012D01*
X114390983Y-129674363D01*
X114398346Y-129667000D01*
X125394899Y-129667000D01*
X125476000Y-129674988D01*
X125557101Y-129667000D01*
X125557104Y-129667000D01*
X125799653Y-129643111D01*
X125983264Y-129587413D01*
X133156192Y-129587413D01*
X133251956Y-129851814D01*
X133541571Y-129992704D01*
X133853108Y-130074384D01*
X134174595Y-130093718D01*
X134493675Y-130049961D01*
X134798088Y-129944795D01*
X134972044Y-129851814D01*
X135067808Y-129587413D01*
X139656192Y-129587413D01*
X139751956Y-129851814D01*
X140041571Y-129992704D01*
X140353108Y-130074384D01*
X140674595Y-130093718D01*
X140993675Y-130049961D01*
X141298088Y-129944795D01*
X141472044Y-129851814D01*
X141567808Y-129587413D01*
X161604192Y-129587413D01*
X161699956Y-129851814D01*
X161989571Y-129992704D01*
X162301108Y-130074384D01*
X162622595Y-130093718D01*
X162941675Y-130049961D01*
X163246088Y-129944795D01*
X163420044Y-129851814D01*
X163515808Y-129587413D01*
X168104192Y-129587413D01*
X168199956Y-129851814D01*
X168489571Y-129992704D01*
X168801108Y-130074384D01*
X169122595Y-130093718D01*
X169441675Y-130049961D01*
X169746088Y-129944795D01*
X169920044Y-129851814D01*
X170015808Y-129587413D01*
X169060000Y-128631605D01*
X168104192Y-129587413D01*
X163515808Y-129587413D01*
X162560000Y-128631605D01*
X161604192Y-129587413D01*
X141567808Y-129587413D01*
X140612000Y-128631605D01*
X139656192Y-129587413D01*
X135067808Y-129587413D01*
X134112000Y-128631605D01*
X133156192Y-129587413D01*
X125983264Y-129587413D01*
X126110867Y-129548705D01*
X126397684Y-129395398D01*
X126649082Y-129189082D01*
X126700787Y-129126079D01*
X127312271Y-128514595D01*
X132470282Y-128514595D01*
X132514039Y-128833675D01*
X132619205Y-129138088D01*
X132712186Y-129312044D01*
X132976587Y-129407808D01*
X133932395Y-128452000D01*
X134291605Y-128452000D01*
X135247413Y-129407808D01*
X135511814Y-129312044D01*
X135652704Y-129022429D01*
X135734384Y-128710892D01*
X135746189Y-128514595D01*
X138970282Y-128514595D01*
X139014039Y-128833675D01*
X139119205Y-129138088D01*
X139212186Y-129312044D01*
X139476587Y-129407808D01*
X140432395Y-128452000D01*
X140791605Y-128452000D01*
X141747413Y-129407808D01*
X142011814Y-129312044D01*
X142152704Y-129022429D01*
X142234384Y-128710892D01*
X142246189Y-128514595D01*
X160918282Y-128514595D01*
X160962039Y-128833675D01*
X161067205Y-129138088D01*
X161160186Y-129312044D01*
X161424587Y-129407808D01*
X162380395Y-128452000D01*
X162739605Y-128452000D01*
X163695413Y-129407808D01*
X163959814Y-129312044D01*
X164100704Y-129022429D01*
X164182384Y-128710892D01*
X164194189Y-128514595D01*
X167418282Y-128514595D01*
X167462039Y-128833675D01*
X167567205Y-129138088D01*
X167660186Y-129312044D01*
X167924587Y-129407808D01*
X168880395Y-128452000D01*
X169239605Y-128452000D01*
X170195413Y-129407808D01*
X170459814Y-129312044D01*
X170600704Y-129022429D01*
X170682384Y-128710892D01*
X170701718Y-128389405D01*
X170662580Y-128104000D01*
X178089928Y-128104000D01*
X178102188Y-128228482D01*
X178138498Y-128348180D01*
X178197463Y-128458494D01*
X178276815Y-128555185D01*
X178373506Y-128634537D01*
X178483820Y-128693502D01*
X178603518Y-128729812D01*
X178728000Y-128742072D01*
X179292250Y-128739000D01*
X179451000Y-128580250D01*
X179451000Y-127381000D01*
X178251750Y-127381000D01*
X178093000Y-127539750D01*
X178089928Y-128104000D01*
X170662580Y-128104000D01*
X170657961Y-128070325D01*
X170552795Y-127765912D01*
X170459814Y-127591956D01*
X170195413Y-127496192D01*
X169239605Y-128452000D01*
X168880395Y-128452000D01*
X167924587Y-127496192D01*
X167660186Y-127591956D01*
X167519296Y-127881571D01*
X167437616Y-128193108D01*
X167418282Y-128514595D01*
X164194189Y-128514595D01*
X164201718Y-128389405D01*
X164157961Y-128070325D01*
X164052795Y-127765912D01*
X163959814Y-127591956D01*
X163695413Y-127496192D01*
X162739605Y-128452000D01*
X162380395Y-128452000D01*
X161424587Y-127496192D01*
X161160186Y-127591956D01*
X161019296Y-127881571D01*
X160937616Y-128193108D01*
X160918282Y-128514595D01*
X142246189Y-128514595D01*
X142253718Y-128389405D01*
X142209961Y-128070325D01*
X142104795Y-127765912D01*
X142011814Y-127591956D01*
X141747413Y-127496192D01*
X140791605Y-128452000D01*
X140432395Y-128452000D01*
X139476587Y-127496192D01*
X139212186Y-127591956D01*
X139071296Y-127881571D01*
X138989616Y-128193108D01*
X138970282Y-128514595D01*
X135746189Y-128514595D01*
X135753718Y-128389405D01*
X135709961Y-128070325D01*
X135604795Y-127765912D01*
X135511814Y-127591956D01*
X135247413Y-127496192D01*
X134291605Y-128452000D01*
X133932395Y-128452000D01*
X132976587Y-127496192D01*
X132712186Y-127591956D01*
X132571296Y-127881571D01*
X132489616Y-128193108D01*
X132470282Y-128514595D01*
X127312271Y-128514595D01*
X128510279Y-127316587D01*
X133156192Y-127316587D01*
X134112000Y-128272395D01*
X135067808Y-127316587D01*
X139656192Y-127316587D01*
X140612000Y-128272395D01*
X141567808Y-127316587D01*
X161604192Y-127316587D01*
X162560000Y-128272395D01*
X163515808Y-127316587D01*
X168104192Y-127316587D01*
X169060000Y-128272395D01*
X170015808Y-127316587D01*
X169920044Y-127052186D01*
X169630429Y-126911296D01*
X169318892Y-126829616D01*
X168997405Y-126810282D01*
X168678325Y-126854039D01*
X168373912Y-126959205D01*
X168199956Y-127052186D01*
X168104192Y-127316587D01*
X163515808Y-127316587D01*
X163420044Y-127052186D01*
X163130429Y-126911296D01*
X162818892Y-126829616D01*
X162497405Y-126810282D01*
X162178325Y-126854039D01*
X161873912Y-126959205D01*
X161699956Y-127052186D01*
X161604192Y-127316587D01*
X141567808Y-127316587D01*
X141472044Y-127052186D01*
X141182429Y-126911296D01*
X140870892Y-126829616D01*
X140549405Y-126810282D01*
X140230325Y-126854039D01*
X139925912Y-126959205D01*
X139751956Y-127052186D01*
X139656192Y-127316587D01*
X135067808Y-127316587D01*
X134972044Y-127052186D01*
X134682429Y-126911296D01*
X134370892Y-126829616D01*
X134049405Y-126810282D01*
X133730325Y-126854039D01*
X133425912Y-126959205D01*
X133251956Y-127052186D01*
X133156192Y-127316587D01*
X128510279Y-127316587D01*
X129422866Y-126404000D01*
X178089928Y-126404000D01*
X178093000Y-126968250D01*
X178251750Y-127127000D01*
X179451000Y-127127000D01*
X179451000Y-125927750D01*
X179705000Y-125927750D01*
X179705000Y-127127000D01*
X179725000Y-127127000D01*
X179725000Y-127381000D01*
X179705000Y-127381000D01*
X179705000Y-128580250D01*
X179863750Y-128739000D01*
X180428000Y-128742072D01*
X180552482Y-128729812D01*
X180672180Y-128693502D01*
X180782494Y-128634537D01*
X180879185Y-128555185D01*
X180958537Y-128458494D01*
X181017502Y-128348180D01*
X181039513Y-128275620D01*
X181171368Y-128407475D01*
X181414589Y-128569990D01*
X181684842Y-128681932D01*
X181971740Y-128739000D01*
X182264260Y-128739000D01*
X182551158Y-128681932D01*
X182821411Y-128569990D01*
X183064632Y-128407475D01*
X183271475Y-128200632D01*
X183388000Y-128026240D01*
X183504525Y-128200632D01*
X183711368Y-128407475D01*
X183954589Y-128569990D01*
X184224842Y-128681932D01*
X184511740Y-128739000D01*
X184804260Y-128739000D01*
X185091158Y-128681932D01*
X185361411Y-128569990D01*
X185604632Y-128407475D01*
X185811475Y-128200632D01*
X185928000Y-128026240D01*
X186044525Y-128200632D01*
X186251368Y-128407475D01*
X186494589Y-128569990D01*
X186764842Y-128681932D01*
X187051740Y-128739000D01*
X187344260Y-128739000D01*
X187631158Y-128681932D01*
X187901411Y-128569990D01*
X188144632Y-128407475D01*
X188351475Y-128200632D01*
X188468000Y-128026240D01*
X188584525Y-128200632D01*
X188791368Y-128407475D01*
X189034589Y-128569990D01*
X189304842Y-128681932D01*
X189591740Y-128739000D01*
X189884260Y-128739000D01*
X190171158Y-128681932D01*
X190441411Y-128569990D01*
X190684632Y-128407475D01*
X190891475Y-128200632D01*
X191008000Y-128026240D01*
X191124525Y-128200632D01*
X191331368Y-128407475D01*
X191574589Y-128569990D01*
X191844842Y-128681932D01*
X192131740Y-128739000D01*
X192424260Y-128739000D01*
X192711158Y-128681932D01*
X192981411Y-128569990D01*
X193224632Y-128407475D01*
X193431475Y-128200632D01*
X193593990Y-127957411D01*
X193705932Y-127687158D01*
X193763000Y-127400260D01*
X193763000Y-127107740D01*
X193705932Y-126820842D01*
X193593990Y-126550589D01*
X193431475Y-126307368D01*
X193224632Y-126100525D01*
X192981411Y-125938010D01*
X192711158Y-125826068D01*
X192424260Y-125769000D01*
X192131740Y-125769000D01*
X191844842Y-125826068D01*
X191574589Y-125938010D01*
X191331368Y-126100525D01*
X191124525Y-126307368D01*
X191008000Y-126481760D01*
X190891475Y-126307368D01*
X190684632Y-126100525D01*
X190441411Y-125938010D01*
X190171158Y-125826068D01*
X189884260Y-125769000D01*
X189591740Y-125769000D01*
X189304842Y-125826068D01*
X189034589Y-125938010D01*
X188791368Y-126100525D01*
X188584525Y-126307368D01*
X188468000Y-126481760D01*
X188351475Y-126307368D01*
X188144632Y-126100525D01*
X187901411Y-125938010D01*
X187631158Y-125826068D01*
X187344260Y-125769000D01*
X187051740Y-125769000D01*
X186764842Y-125826068D01*
X186494589Y-125938010D01*
X186251368Y-126100525D01*
X186044525Y-126307368D01*
X185928000Y-126481760D01*
X185811475Y-126307368D01*
X185604632Y-126100525D01*
X185361411Y-125938010D01*
X185091158Y-125826068D01*
X184804260Y-125769000D01*
X184511740Y-125769000D01*
X184224842Y-125826068D01*
X183954589Y-125938010D01*
X183711368Y-126100525D01*
X183504525Y-126307368D01*
X183388000Y-126481760D01*
X183271475Y-126307368D01*
X183064632Y-126100525D01*
X182821411Y-125938010D01*
X182551158Y-125826068D01*
X182264260Y-125769000D01*
X181971740Y-125769000D01*
X181684842Y-125826068D01*
X181414589Y-125938010D01*
X181171368Y-126100525D01*
X181039513Y-126232380D01*
X181017502Y-126159820D01*
X180958537Y-126049506D01*
X180879185Y-125952815D01*
X180782494Y-125873463D01*
X180672180Y-125814498D01*
X180552482Y-125778188D01*
X180428000Y-125765928D01*
X179863750Y-125769000D01*
X179705000Y-125927750D01*
X179451000Y-125927750D01*
X179292250Y-125769000D01*
X178728000Y-125765928D01*
X178603518Y-125778188D01*
X178483820Y-125814498D01*
X178373506Y-125873463D01*
X178276815Y-125952815D01*
X178197463Y-126049506D01*
X178138498Y-126159820D01*
X178102188Y-126279518D01*
X178089928Y-126404000D01*
X129422866Y-126404000D01*
X132690775Y-123136091D01*
X132663082Y-123177537D01*
X132539832Y-123475088D01*
X132477000Y-123790967D01*
X132477000Y-124113033D01*
X132539832Y-124428912D01*
X132663082Y-124726463D01*
X132842013Y-124994252D01*
X133069748Y-125221987D01*
X133337537Y-125400918D01*
X133635088Y-125524168D01*
X133950967Y-125587000D01*
X134273033Y-125587000D01*
X134588912Y-125524168D01*
X134886463Y-125400918D01*
X135154252Y-125221987D01*
X135381987Y-124994252D01*
X135560918Y-124726463D01*
X135566080Y-124714000D01*
X139157920Y-124714000D01*
X139163082Y-124726463D01*
X139342013Y-124994252D01*
X139569748Y-125221987D01*
X139837537Y-125400918D01*
X140135088Y-125524168D01*
X140450967Y-125587000D01*
X140773033Y-125587000D01*
X141088912Y-125524168D01*
X141386463Y-125400918D01*
X141654252Y-125221987D01*
X141881987Y-124994252D01*
X142060918Y-124726463D01*
X142066080Y-124714000D01*
X150076577Y-124714000D01*
X150114000Y-124717686D01*
X150151423Y-124714000D01*
X150151426Y-124714000D01*
X150263378Y-124702974D01*
X150407015Y-124659402D01*
X150539392Y-124588645D01*
X150655422Y-124493422D01*
X150679284Y-124464346D01*
X151352663Y-123790967D01*
X160925000Y-123790967D01*
X160925000Y-124113033D01*
X160987832Y-124428912D01*
X161111082Y-124726463D01*
X161290013Y-124994252D01*
X161517748Y-125221987D01*
X161785537Y-125400918D01*
X162083088Y-125524168D01*
X162398967Y-125587000D01*
X162721033Y-125587000D01*
X163036912Y-125524168D01*
X163334463Y-125400918D01*
X163602252Y-125221987D01*
X163829987Y-124994252D01*
X164008918Y-124726463D01*
X164014080Y-124714000D01*
X167605920Y-124714000D01*
X167611082Y-124726463D01*
X167790013Y-124994252D01*
X168017748Y-125221987D01*
X168285537Y-125400918D01*
X168583088Y-125524168D01*
X168898967Y-125587000D01*
X169221033Y-125587000D01*
X169536912Y-125524168D01*
X169834463Y-125400918D01*
X170102252Y-125221987D01*
X170329987Y-124994252D01*
X170508918Y-124726463D01*
X170514080Y-124714000D01*
X189446577Y-124714000D01*
X189484000Y-124717686D01*
X189521423Y-124714000D01*
X189521426Y-124714000D01*
X189633378Y-124702974D01*
X189777015Y-124659402D01*
X189909392Y-124588645D01*
X190025422Y-124493422D01*
X190049284Y-124464346D01*
X191774347Y-122739283D01*
X191803422Y-122715422D01*
X191875658Y-122627402D01*
X191898645Y-122599393D01*
X191936465Y-122528636D01*
X191969402Y-122467015D01*
X192012974Y-122323378D01*
X192024000Y-122211426D01*
X192024000Y-122211423D01*
X192027686Y-122174000D01*
X192024000Y-122136577D01*
X192024000Y-119124777D01*
X192085941Y-119157885D01*
X192304601Y-119224215D01*
X192532000Y-119246612D01*
X192759400Y-119224215D01*
X192978060Y-119157885D01*
X193179579Y-119050171D01*
X193356212Y-118905212D01*
X193501171Y-118728579D01*
X193608885Y-118527059D01*
X193675215Y-118308399D01*
X193692000Y-118137978D01*
X193692000Y-117574021D01*
X193675215Y-117403600D01*
X193608885Y-117184940D01*
X193501171Y-116983421D01*
X193356212Y-116806788D01*
X193179578Y-116661829D01*
X192978059Y-116554115D01*
X192759399Y-116487785D01*
X192532000Y-116465388D01*
X192304600Y-116487785D01*
X192085940Y-116554115D01*
X191897000Y-116655106D01*
X191708059Y-116554115D01*
X191489399Y-116487785D01*
X191262000Y-116465388D01*
X191034600Y-116487785D01*
X190825902Y-116551093D01*
X190761180Y-116516498D01*
X190641482Y-116480188D01*
X190517000Y-116467928D01*
X190277750Y-116471000D01*
X190119000Y-116629750D01*
X190119000Y-117402892D01*
X190118785Y-117403601D01*
X190102000Y-117574022D01*
X190102000Y-118137979D01*
X190118785Y-118308400D01*
X190119000Y-118309109D01*
X190119000Y-119082250D01*
X190277750Y-119241000D01*
X190500001Y-119243854D01*
X190500000Y-121858370D01*
X189718394Y-122639976D01*
X189717226Y-122634102D01*
X189639205Y-122445744D01*
X189525937Y-122276226D01*
X189381774Y-122132063D01*
X189212256Y-122018795D01*
X189023898Y-121940774D01*
X188823939Y-121901000D01*
X188764631Y-121901000D01*
X188468000Y-121604370D01*
X188468000Y-118606000D01*
X188828928Y-118606000D01*
X188841188Y-118730482D01*
X188877498Y-118850180D01*
X188936463Y-118960494D01*
X189015815Y-119057185D01*
X189112506Y-119136537D01*
X189222820Y-119195502D01*
X189342518Y-119231812D01*
X189467000Y-119244072D01*
X189706250Y-119241000D01*
X189865000Y-119082250D01*
X189865000Y-117983000D01*
X188990750Y-117983000D01*
X188832000Y-118141750D01*
X188828928Y-118606000D01*
X188468000Y-118606000D01*
X188468000Y-117106000D01*
X188828928Y-117106000D01*
X188832000Y-117570250D01*
X188990750Y-117729000D01*
X189865000Y-117729000D01*
X189865000Y-116629750D01*
X189706250Y-116471000D01*
X189467000Y-116467928D01*
X189342518Y-116480188D01*
X189222820Y-116516498D01*
X189112506Y-116575463D01*
X189015815Y-116654815D01*
X188936463Y-116751506D01*
X188877498Y-116861820D01*
X188841188Y-116981518D01*
X188828928Y-117106000D01*
X188468000Y-117106000D01*
X188468000Y-111618665D01*
X189827000Y-111618665D01*
X189827000Y-111901335D01*
X189882147Y-112178574D01*
X189990320Y-112439727D01*
X190147363Y-112674759D01*
X190347241Y-112874637D01*
X190582273Y-113031680D01*
X190843426Y-113139853D01*
X191120665Y-113195000D01*
X191403335Y-113195000D01*
X191680574Y-113139853D01*
X191941727Y-113031680D01*
X192176759Y-112874637D01*
X192376637Y-112674759D01*
X192533680Y-112439727D01*
X192641853Y-112178574D01*
X192697000Y-111901335D01*
X192697000Y-111618665D01*
X192641853Y-111341426D01*
X192533680Y-111080273D01*
X192376637Y-110845241D01*
X192176759Y-110645363D01*
X191941727Y-110488320D01*
X191680574Y-110380147D01*
X191403335Y-110325000D01*
X191120665Y-110325000D01*
X190843426Y-110380147D01*
X190582273Y-110488320D01*
X190347241Y-110645363D01*
X190147363Y-110845241D01*
X189990320Y-111080273D01*
X189882147Y-111341426D01*
X189827000Y-111618665D01*
X188468000Y-111618665D01*
X188468000Y-105131162D01*
X188471686Y-105093739D01*
X188467847Y-105054759D01*
X188456974Y-104944362D01*
X188413402Y-104800725D01*
X188342645Y-104668348D01*
X188247422Y-104552318D01*
X188218353Y-104528462D01*
X186105130Y-102415240D01*
X186105130Y-102355931D01*
X186065356Y-102155972D01*
X185987335Y-101967614D01*
X185874067Y-101798096D01*
X185729904Y-101653933D01*
X185649187Y-101600000D01*
X187644370Y-101600000D01*
X189862843Y-103818474D01*
X189827000Y-103998665D01*
X189827000Y-104281335D01*
X189882147Y-104558574D01*
X189990320Y-104819727D01*
X190147363Y-105054759D01*
X190347241Y-105254637D01*
X190582273Y-105411680D01*
X190843426Y-105519853D01*
X191120665Y-105575000D01*
X191403335Y-105575000D01*
X191680574Y-105519853D01*
X191941727Y-105411680D01*
X192176759Y-105254637D01*
X192376637Y-105054759D01*
X192533680Y-104819727D01*
X192641853Y-104558574D01*
X192697000Y-104281335D01*
X192697000Y-103998665D01*
X192641853Y-103721426D01*
X192533680Y-103460273D01*
X192376637Y-103225241D01*
X192176759Y-103025363D01*
X191941727Y-102868320D01*
X191680574Y-102760147D01*
X191403335Y-102705000D01*
X191120665Y-102705000D01*
X190940474Y-102740843D01*
X188525284Y-100325654D01*
X188501422Y-100296578D01*
X188385392Y-100201355D01*
X188253015Y-100130598D01*
X188109378Y-100087026D01*
X187997426Y-100076000D01*
X187997423Y-100076000D01*
X187960000Y-100072314D01*
X187922577Y-100076000D01*
X181883000Y-100076000D01*
X181883000Y-99974061D01*
X181843226Y-99774102D01*
X181765205Y-99585744D01*
X181670823Y-99444491D01*
X181774574Y-99423853D01*
X182035727Y-99315680D01*
X182270759Y-99158637D01*
X182470637Y-98958759D01*
X182572707Y-98806000D01*
X184965293Y-98806000D01*
X185067363Y-98958759D01*
X185267241Y-99158637D01*
X185502273Y-99315680D01*
X185763426Y-99423853D01*
X186040665Y-99479000D01*
X186323335Y-99479000D01*
X186600574Y-99423853D01*
X186861727Y-99315680D01*
X187096759Y-99158637D01*
X187296637Y-98958759D01*
X187398707Y-98806000D01*
X189791293Y-98806000D01*
X189893363Y-98958759D01*
X190093241Y-99158637D01*
X190328273Y-99315680D01*
X190589426Y-99423853D01*
X190866665Y-99479000D01*
X191149335Y-99479000D01*
X191426574Y-99423853D01*
X191687727Y-99315680D01*
X191922759Y-99158637D01*
X192122637Y-98958759D01*
X192279680Y-98723727D01*
X192387853Y-98462574D01*
X192443000Y-98185335D01*
X192443000Y-97902665D01*
X192387853Y-97625426D01*
X192279680Y-97364273D01*
X192122637Y-97129241D01*
X191922759Y-96929363D01*
X191687727Y-96772320D01*
X191426574Y-96664147D01*
X191149335Y-96609000D01*
X190866665Y-96609000D01*
X190589426Y-96664147D01*
X190328273Y-96772320D01*
X190093241Y-96929363D01*
X189893363Y-97129241D01*
X189791293Y-97282000D01*
X187398707Y-97282000D01*
X187296637Y-97129241D01*
X187096759Y-96929363D01*
X186861727Y-96772320D01*
X186600574Y-96664147D01*
X186323335Y-96609000D01*
X186040665Y-96609000D01*
X185763426Y-96664147D01*
X185502273Y-96772320D01*
X185267241Y-96929363D01*
X185067363Y-97129241D01*
X184965293Y-97282000D01*
X182572707Y-97282000D01*
X182470637Y-97129241D01*
X182270759Y-96929363D01*
X182035727Y-96772320D01*
X181774574Y-96664147D01*
X181497335Y-96609000D01*
X181214665Y-96609000D01*
X180937426Y-96664147D01*
X180676273Y-96772320D01*
X180441241Y-96929363D01*
X180241363Y-97129241D01*
X180084320Y-97364273D01*
X179976147Y-97625426D01*
X179921000Y-97902665D01*
X179921000Y-98185335D01*
X179976147Y-98462574D01*
X180084320Y-98723727D01*
X180241363Y-98958759D01*
X180416897Y-99134293D01*
X180357744Y-99158795D01*
X180188226Y-99272063D01*
X180146289Y-99314000D01*
X179639631Y-99314000D01*
X178816000Y-98490370D01*
X178816000Y-95795423D01*
X178819686Y-95758000D01*
X178816000Y-95720574D01*
X178804974Y-95608622D01*
X178761402Y-95464985D01*
X178690646Y-95332609D01*
X178690645Y-95332607D01*
X178655857Y-95290219D01*
X178595422Y-95216578D01*
X178566347Y-95192717D01*
X177505691Y-94132061D01*
X180321000Y-94132061D01*
X180321000Y-94335939D01*
X180360774Y-94535898D01*
X180438795Y-94724256D01*
X180552063Y-94893774D01*
X180696226Y-95037937D01*
X180865744Y-95151205D01*
X181054102Y-95229226D01*
X181254061Y-95269000D01*
X181457939Y-95269000D01*
X181657898Y-95229226D01*
X181846256Y-95151205D01*
X182015774Y-95037937D01*
X182057711Y-94996000D01*
X187160577Y-94996000D01*
X187198000Y-94999686D01*
X187235423Y-94996000D01*
X187235426Y-94996000D01*
X187347378Y-94984974D01*
X187491015Y-94941402D01*
X187623392Y-94870645D01*
X187739422Y-94775422D01*
X187763284Y-94746346D01*
X190686473Y-91823157D01*
X190866665Y-91859000D01*
X191149335Y-91859000D01*
X191426574Y-91803853D01*
X191687727Y-91695680D01*
X191922759Y-91538637D01*
X192122637Y-91338759D01*
X192279680Y-91103727D01*
X192387853Y-90842574D01*
X192443000Y-90565335D01*
X192443000Y-90282665D01*
X192387853Y-90005426D01*
X192279680Y-89744273D01*
X192122637Y-89509241D01*
X191922759Y-89309363D01*
X191687727Y-89152320D01*
X191426574Y-89044147D01*
X191149335Y-88989000D01*
X190866665Y-88989000D01*
X190589426Y-89044147D01*
X190328273Y-89152320D01*
X190093241Y-89309363D01*
X189893363Y-89509241D01*
X189736320Y-89744273D01*
X189628147Y-90005426D01*
X189573000Y-90282665D01*
X189573000Y-90565335D01*
X189608843Y-90745527D01*
X186882370Y-93472000D01*
X182057711Y-93472000D01*
X182015774Y-93430063D01*
X181846256Y-93316795D01*
X181657898Y-93238774D01*
X181457939Y-93199000D01*
X181254061Y-93199000D01*
X181054102Y-93238774D01*
X180865744Y-93316795D01*
X180696226Y-93430063D01*
X180552063Y-93574226D01*
X180438795Y-93743744D01*
X180360774Y-93932102D01*
X180321000Y-94132061D01*
X177505691Y-94132061D01*
X176713245Y-93339615D01*
X176758600Y-93111599D01*
X176758600Y-92816401D01*
X176701010Y-92526875D01*
X176588042Y-92254147D01*
X176424039Y-92008698D01*
X176215302Y-91799961D01*
X176049897Y-91689441D01*
X176148488Y-91630817D01*
X176366854Y-91434293D01*
X176542684Y-91198944D01*
X176669222Y-90933814D01*
X176714958Y-90783026D01*
X176593817Y-90551000D01*
X175387000Y-90551000D01*
X175387000Y-90571000D01*
X175133000Y-90571000D01*
X175133000Y-90551000D01*
X175113000Y-90551000D01*
X175113000Y-90297000D01*
X175133000Y-90297000D01*
X175133000Y-90277000D01*
X175387000Y-90277000D01*
X175387000Y-90297000D01*
X176593817Y-90297000D01*
X176601301Y-90282665D01*
X179921000Y-90282665D01*
X179921000Y-90565335D01*
X179976147Y-90842574D01*
X180084320Y-91103727D01*
X180241363Y-91338759D01*
X180441241Y-91538637D01*
X180676273Y-91695680D01*
X180937426Y-91803853D01*
X181214665Y-91859000D01*
X181497335Y-91859000D01*
X181774574Y-91803853D01*
X182035727Y-91695680D01*
X182270759Y-91538637D01*
X182470637Y-91338759D01*
X182627680Y-91103727D01*
X182735853Y-90842574D01*
X182791000Y-90565335D01*
X182791000Y-90282665D01*
X184747000Y-90282665D01*
X184747000Y-90565335D01*
X184802147Y-90842574D01*
X184910320Y-91103727D01*
X185067363Y-91338759D01*
X185267241Y-91538637D01*
X185502273Y-91695680D01*
X185763426Y-91803853D01*
X186040665Y-91859000D01*
X186323335Y-91859000D01*
X186600574Y-91803853D01*
X186861727Y-91695680D01*
X187096759Y-91538637D01*
X187296637Y-91338759D01*
X187453680Y-91103727D01*
X187561853Y-90842574D01*
X187617000Y-90565335D01*
X187617000Y-90282665D01*
X187561853Y-90005426D01*
X187453680Y-89744273D01*
X187296637Y-89509241D01*
X187096759Y-89309363D01*
X186861727Y-89152320D01*
X186600574Y-89044147D01*
X186323335Y-88989000D01*
X186040665Y-88989000D01*
X185763426Y-89044147D01*
X185502273Y-89152320D01*
X185267241Y-89309363D01*
X185067363Y-89509241D01*
X184910320Y-89744273D01*
X184802147Y-90005426D01*
X184747000Y-90282665D01*
X182791000Y-90282665D01*
X182735853Y-90005426D01*
X182627680Y-89744273D01*
X182470637Y-89509241D01*
X182270759Y-89309363D01*
X182035727Y-89152320D01*
X181774574Y-89044147D01*
X181497335Y-88989000D01*
X181214665Y-88989000D01*
X180937426Y-89044147D01*
X180676273Y-89152320D01*
X180441241Y-89309363D01*
X180241363Y-89509241D01*
X180084320Y-89744273D01*
X179976147Y-90005426D01*
X179921000Y-90282665D01*
X176601301Y-90282665D01*
X176714958Y-90064974D01*
X176669222Y-89914186D01*
X176542684Y-89649056D01*
X176366854Y-89413707D01*
X176148488Y-89217183D01*
X175895978Y-89067036D01*
X175782834Y-89027000D01*
X179775861Y-89027000D01*
X179832000Y-89032529D01*
X179888139Y-89027000D01*
X179888146Y-89027000D01*
X180056067Y-89010461D01*
X180271523Y-88945103D01*
X180470089Y-88838968D01*
X180644133Y-88696133D01*
X180679927Y-88652518D01*
X182632524Y-86699922D01*
X182676133Y-86664133D01*
X182818968Y-86490089D01*
X182925103Y-86291523D01*
X182990461Y-86076067D01*
X183007000Y-85908146D01*
X183007000Y-85908139D01*
X183012529Y-85852000D01*
X183007000Y-85795861D01*
X183007000Y-83632681D01*
X183018494Y-83626537D01*
X183115185Y-83547185D01*
X183194537Y-83450494D01*
X183253502Y-83340180D01*
X183289812Y-83220482D01*
X183302072Y-83096000D01*
X183302072Y-81496000D01*
X191093928Y-81496000D01*
X191093928Y-83096000D01*
X191106188Y-83220482D01*
X191142498Y-83340180D01*
X191201463Y-83450494D01*
X191280815Y-83547185D01*
X191377506Y-83626537D01*
X191487820Y-83685502D01*
X191607518Y-83721812D01*
X191732000Y-83734072D01*
X193332000Y-83734072D01*
X193456482Y-83721812D01*
X193576180Y-83685502D01*
X193686494Y-83626537D01*
X193783185Y-83547185D01*
X193862537Y-83450494D01*
X193921502Y-83340180D01*
X193957812Y-83220482D01*
X193970072Y-83096000D01*
X193970072Y-81496000D01*
X193957812Y-81371518D01*
X193921502Y-81251820D01*
X193862537Y-81141506D01*
X193783185Y-81044815D01*
X193686494Y-80965463D01*
X193576180Y-80906498D01*
X193456482Y-80870188D01*
X193332000Y-80857928D01*
X191732000Y-80857928D01*
X191607518Y-80870188D01*
X191487820Y-80906498D01*
X191377506Y-80965463D01*
X191280815Y-81044815D01*
X191201463Y-81141506D01*
X191142498Y-81251820D01*
X191106188Y-81371518D01*
X191093928Y-81496000D01*
X183302072Y-81496000D01*
X183289812Y-81371518D01*
X183253502Y-81251820D01*
X183194537Y-81141506D01*
X183115185Y-81044815D01*
X183018494Y-80965463D01*
X182908180Y-80906498D01*
X182788482Y-80870188D01*
X182664000Y-80857928D01*
X181064000Y-80857928D01*
X180939518Y-80870188D01*
X180819820Y-80906498D01*
X180709506Y-80965463D01*
X180612815Y-81044815D01*
X180533463Y-81141506D01*
X180474498Y-81251820D01*
X180438188Y-81371518D01*
X180425928Y-81496000D01*
X180425928Y-83096000D01*
X180438188Y-83220482D01*
X180474498Y-83340180D01*
X180533463Y-83450494D01*
X180612815Y-83547185D01*
X180709506Y-83626537D01*
X180721001Y-83632681D01*
X180721000Y-85378554D01*
X179358555Y-86741000D01*
X171506138Y-86741000D01*
X171449999Y-86735471D01*
X171393860Y-86741000D01*
X171393854Y-86741000D01*
X171248600Y-86755306D01*
X171225932Y-86757539D01*
X171160574Y-86777365D01*
X171010477Y-86822897D01*
X170811911Y-86929032D01*
X170637867Y-87071867D01*
X170602077Y-87115477D01*
X169411482Y-88306073D01*
X169367867Y-88341867D01*
X169225032Y-88515912D01*
X169118897Y-88714478D01*
X169053539Y-88929934D01*
X169037000Y-89097855D01*
X169037000Y-89097861D01*
X169031471Y-89154000D01*
X169037000Y-89210139D01*
X169037001Y-92907844D01*
X169031470Y-92964000D01*
X169037000Y-93020146D01*
X169037001Y-96971852D01*
X169031471Y-97028000D01*
X169053539Y-97252067D01*
X169094357Y-97386622D01*
X169118898Y-97467523D01*
X169225033Y-97666089D01*
X169294706Y-97750985D01*
X169320497Y-97782411D01*
X169367868Y-97840133D01*
X169411478Y-97875923D01*
X170348077Y-98812523D01*
X170383867Y-98856133D01*
X170557911Y-98998968D01*
X170756477Y-99105103D01*
X170902557Y-99149416D01*
X170971932Y-99170461D01*
X170992517Y-99172488D01*
X171139854Y-99187000D01*
X171139861Y-99187000D01*
X171196000Y-99192529D01*
X171252139Y-99187000D01*
X171743659Y-99187000D01*
X171764698Y-99208039D01*
X172010147Y-99372042D01*
X172282875Y-99485010D01*
X172572401Y-99542600D01*
X172867599Y-99542600D01*
X173157125Y-99485010D01*
X173429853Y-99372042D01*
X173675302Y-99208039D01*
X173884039Y-98999302D01*
X173990000Y-98840719D01*
X174095961Y-98999302D01*
X174304698Y-99208039D01*
X174550147Y-99372042D01*
X174822875Y-99485010D01*
X175112401Y-99542600D01*
X175407599Y-99542600D01*
X175635615Y-99497245D01*
X178543000Y-102404631D01*
X178543000Y-102463939D01*
X178582774Y-102663898D01*
X178660795Y-102852256D01*
X178774063Y-103021774D01*
X178918226Y-103165937D01*
X179087744Y-103279205D01*
X179276102Y-103357226D01*
X179476061Y-103397000D01*
X179679939Y-103397000D01*
X179879898Y-103357226D01*
X180068256Y-103279205D01*
X180237774Y-103165937D01*
X180381937Y-103021774D01*
X180495205Y-102852256D01*
X180573226Y-102663898D01*
X180613000Y-102463939D01*
X180613000Y-102260061D01*
X180573226Y-102060102D01*
X180495205Y-101871744D01*
X180381937Y-101702226D01*
X180279711Y-101600000D01*
X184491073Y-101600000D01*
X184410356Y-101653933D01*
X184266193Y-101798096D01*
X184152925Y-101967614D01*
X184074904Y-102155972D01*
X184035130Y-102355931D01*
X184035130Y-102559809D01*
X184065109Y-102710525D01*
X184037335Y-102705000D01*
X183754665Y-102705000D01*
X183477426Y-102760147D01*
X183216273Y-102868320D01*
X182981241Y-103025363D01*
X182781363Y-103225241D01*
X182624320Y-103460273D01*
X182516147Y-103721426D01*
X182461000Y-103998665D01*
X182461000Y-104281335D01*
X182516147Y-104558574D01*
X182624320Y-104819727D01*
X182781363Y-105054759D01*
X182981241Y-105254637D01*
X183216273Y-105411680D01*
X183477426Y-105519853D01*
X183754665Y-105575000D01*
X184037335Y-105575000D01*
X184314574Y-105519853D01*
X184575727Y-105411680D01*
X184810759Y-105254637D01*
X185010637Y-105054759D01*
X185167680Y-104819727D01*
X185275853Y-104558574D01*
X185331000Y-104281335D01*
X185331000Y-103998665D01*
X185280769Y-103746139D01*
X186944000Y-105409371D01*
X186944001Y-115532565D01*
X186944000Y-115532575D01*
X186944001Y-121882567D01*
X186940314Y-121920000D01*
X186955027Y-122069378D01*
X186998599Y-122213015D01*
X187069355Y-122345392D01*
X187133579Y-122423648D01*
X187164579Y-122461422D01*
X187193649Y-122485279D01*
X187687000Y-122978631D01*
X187687000Y-123037939D01*
X187717247Y-123190000D01*
X170514080Y-123190000D01*
X170508918Y-123177537D01*
X170329987Y-122909748D01*
X170102252Y-122682013D01*
X169834463Y-122503082D01*
X169536912Y-122379832D01*
X169221033Y-122317000D01*
X168898967Y-122317000D01*
X168583088Y-122379832D01*
X168285537Y-122503082D01*
X168017748Y-122682013D01*
X167790013Y-122909748D01*
X167611082Y-123177537D01*
X167605920Y-123190000D01*
X164014080Y-123190000D01*
X164008918Y-123177537D01*
X163829987Y-122909748D01*
X163602252Y-122682013D01*
X163334463Y-122503082D01*
X163036912Y-122379832D01*
X162721033Y-122317000D01*
X162398967Y-122317000D01*
X162083088Y-122379832D01*
X161785537Y-122503082D01*
X161517748Y-122682013D01*
X161290013Y-122909748D01*
X161111082Y-123177537D01*
X160987832Y-123475088D01*
X160925000Y-123790967D01*
X151352663Y-123790967D01*
X157855385Y-117288246D01*
X157849000Y-117320344D01*
X157849000Y-117691656D01*
X157921439Y-118055834D01*
X158063534Y-118398882D01*
X158269825Y-118707618D01*
X158532382Y-118970175D01*
X158841118Y-119176466D01*
X159184166Y-119318561D01*
X159548344Y-119391000D01*
X159919656Y-119391000D01*
X160283834Y-119318561D01*
X160287717Y-119316953D01*
X162472506Y-121501742D01*
X162500341Y-121535659D01*
X162635709Y-121646753D01*
X162790149Y-121729303D01*
X162906892Y-121764716D01*
X162957725Y-121780136D01*
X162974325Y-121781771D01*
X163088333Y-121793000D01*
X163088340Y-121793000D01*
X163132000Y-121797300D01*
X163175660Y-121793000D01*
X181839532Y-121793000D01*
X181881744Y-121821205D01*
X182070102Y-121899226D01*
X182270061Y-121939000D01*
X182473939Y-121939000D01*
X182673898Y-121899226D01*
X182862256Y-121821205D01*
X183031774Y-121707937D01*
X183175937Y-121563774D01*
X183289205Y-121394256D01*
X183367226Y-121205898D01*
X183407000Y-121005939D01*
X183407000Y-120802061D01*
X183367226Y-120602102D01*
X183289205Y-120413744D01*
X183175937Y-120244226D01*
X183031774Y-120100063D01*
X182862256Y-119986795D01*
X182673898Y-119908774D01*
X182473939Y-119869000D01*
X182270061Y-119869000D01*
X182070102Y-119908774D01*
X181881744Y-119986795D01*
X181839532Y-120015000D01*
X163500236Y-120015000D01*
X161544953Y-118059717D01*
X161546561Y-118055834D01*
X161619000Y-117691656D01*
X161619000Y-117320344D01*
X170049000Y-117320344D01*
X170049000Y-117691656D01*
X170121439Y-118055834D01*
X170263534Y-118398882D01*
X170469825Y-118707618D01*
X170732382Y-118970175D01*
X171041118Y-119176466D01*
X171384166Y-119318561D01*
X171748344Y-119391000D01*
X172119656Y-119391000D01*
X172483834Y-119318561D01*
X172826882Y-119176466D01*
X173135618Y-118970175D01*
X173398175Y-118707618D01*
X173466074Y-118606000D01*
X181462928Y-118606000D01*
X181475188Y-118730482D01*
X181511498Y-118850180D01*
X181570463Y-118960494D01*
X181649815Y-119057185D01*
X181746506Y-119136537D01*
X181856820Y-119195502D01*
X181976518Y-119231812D01*
X182101000Y-119244072D01*
X182340250Y-119241000D01*
X182499000Y-119082250D01*
X182499000Y-117983000D01*
X181624750Y-117983000D01*
X181466000Y-118141750D01*
X181462928Y-118606000D01*
X173466074Y-118606000D01*
X173604466Y-118398882D01*
X173746561Y-118055834D01*
X173819000Y-117691656D01*
X173819000Y-117320344D01*
X173746561Y-116956166D01*
X173604466Y-116613118D01*
X173398175Y-116304382D01*
X173135618Y-116041825D01*
X172826882Y-115835534D01*
X172483834Y-115693439D01*
X172119656Y-115621000D01*
X171748344Y-115621000D01*
X171384166Y-115693439D01*
X171041118Y-115835534D01*
X170732382Y-116041825D01*
X170469825Y-116304382D01*
X170263534Y-116613118D01*
X170121439Y-116956166D01*
X170049000Y-117320344D01*
X161619000Y-117320344D01*
X161546561Y-116956166D01*
X161404466Y-116613118D01*
X161198175Y-116304382D01*
X160935618Y-116041825D01*
X160626882Y-115835534D01*
X160283834Y-115693439D01*
X159919656Y-115621000D01*
X159548344Y-115621000D01*
X159516246Y-115627385D01*
X160437570Y-114706061D01*
X172447000Y-114706061D01*
X172447000Y-114909939D01*
X172486774Y-115109898D01*
X172564795Y-115298256D01*
X172678063Y-115467774D01*
X172822226Y-115611937D01*
X172991744Y-115725205D01*
X173180102Y-115803226D01*
X173380061Y-115843000D01*
X173583939Y-115843000D01*
X173783898Y-115803226D01*
X173972256Y-115725205D01*
X174014468Y-115697000D01*
X180987765Y-115697000D01*
X181824525Y-116533760D01*
X181746506Y-116575463D01*
X181649815Y-116654815D01*
X181570463Y-116751506D01*
X181511498Y-116861820D01*
X181475188Y-116981518D01*
X181462928Y-117106000D01*
X181466000Y-117570250D01*
X181624750Y-117729000D01*
X182499000Y-117729000D01*
X182499000Y-117709000D01*
X182736000Y-117709000D01*
X182736000Y-118137979D01*
X182752785Y-118308400D01*
X182753000Y-118309109D01*
X182753000Y-119082250D01*
X182911750Y-119241000D01*
X183151000Y-119244072D01*
X183275482Y-119231812D01*
X183395180Y-119195502D01*
X183459902Y-119160907D01*
X183668601Y-119224215D01*
X183896000Y-119246612D01*
X184123400Y-119224215D01*
X184342060Y-119157885D01*
X184531001Y-119056894D01*
X184719941Y-119157885D01*
X184938601Y-119224215D01*
X185166000Y-119246612D01*
X185393400Y-119224215D01*
X185612060Y-119157885D01*
X185813579Y-119050171D01*
X185990212Y-118905212D01*
X186135171Y-118728579D01*
X186242885Y-118527059D01*
X186309215Y-118308399D01*
X186326000Y-118137978D01*
X186326000Y-117574021D01*
X186309215Y-117403600D01*
X186242885Y-117184940D01*
X186135171Y-116983421D01*
X186055000Y-116885732D01*
X186055000Y-116641659D01*
X186059300Y-116597999D01*
X186055000Y-116554339D01*
X186055000Y-116554333D01*
X186042136Y-116423726D01*
X185991303Y-116256149D01*
X185908753Y-116101709D01*
X185797659Y-115966341D01*
X185763737Y-115938502D01*
X185305499Y-115480264D01*
X185277659Y-115446341D01*
X185142291Y-115335247D01*
X184987851Y-115252697D01*
X184820274Y-115201864D01*
X184689667Y-115189000D01*
X184689660Y-115189000D01*
X184646000Y-115184700D01*
X184602340Y-115189000D01*
X182994236Y-115189000D01*
X182015499Y-114210264D01*
X181987659Y-114176341D01*
X181852291Y-114065247D01*
X181697851Y-113982697D01*
X181530274Y-113931864D01*
X181399667Y-113919000D01*
X181399660Y-113919000D01*
X181356000Y-113914700D01*
X181312340Y-113919000D01*
X174014468Y-113919000D01*
X173972256Y-113890795D01*
X173783898Y-113812774D01*
X173583939Y-113773000D01*
X173380061Y-113773000D01*
X173180102Y-113812774D01*
X172991744Y-113890795D01*
X172822226Y-114004063D01*
X172678063Y-114148226D01*
X172564795Y-114317744D01*
X172486774Y-114506102D01*
X172447000Y-114706061D01*
X160437570Y-114706061D01*
X163524966Y-111618665D01*
X182461000Y-111618665D01*
X182461000Y-111901335D01*
X182516147Y-112178574D01*
X182624320Y-112439727D01*
X182781363Y-112674759D01*
X182981241Y-112874637D01*
X183216273Y-113031680D01*
X183477426Y-113139853D01*
X183754665Y-113195000D01*
X184037335Y-113195000D01*
X184314574Y-113139853D01*
X184575727Y-113031680D01*
X184810759Y-112874637D01*
X185010637Y-112674759D01*
X185167680Y-112439727D01*
X185275853Y-112178574D01*
X185331000Y-111901335D01*
X185331000Y-111618665D01*
X185275853Y-111341426D01*
X185167680Y-111080273D01*
X185010637Y-110845241D01*
X184810759Y-110645363D01*
X184575727Y-110488320D01*
X184314574Y-110380147D01*
X184037335Y-110325000D01*
X183754665Y-110325000D01*
X183477426Y-110380147D01*
X183216273Y-110488320D01*
X182981241Y-110645363D01*
X182781363Y-110845241D01*
X182624320Y-111080273D01*
X182516147Y-111341426D01*
X182461000Y-111618665D01*
X163524966Y-111618665D01*
X169422352Y-105721279D01*
X169451422Y-105697422D01*
X169546645Y-105581392D01*
X169617402Y-105449015D01*
X169656434Y-105320344D01*
X170049000Y-105320344D01*
X170049000Y-105691656D01*
X170121439Y-106055834D01*
X170263534Y-106398882D01*
X170469825Y-106707618D01*
X170732382Y-106970175D01*
X171041118Y-107176466D01*
X171384166Y-107318561D01*
X171748344Y-107391000D01*
X172119656Y-107391000D01*
X172483834Y-107318561D01*
X172826882Y-107176466D01*
X173135618Y-106970175D01*
X173398175Y-106707618D01*
X173604466Y-106398882D01*
X173746561Y-106055834D01*
X173819000Y-105691656D01*
X173819000Y-105320344D01*
X173746561Y-104956166D01*
X173604466Y-104613118D01*
X173398175Y-104304382D01*
X173135618Y-104041825D01*
X172826882Y-103835534D01*
X172483834Y-103693439D01*
X172119656Y-103621000D01*
X171748344Y-103621000D01*
X171384166Y-103693439D01*
X171041118Y-103835534D01*
X170732382Y-104041825D01*
X170469825Y-104304382D01*
X170263534Y-104613118D01*
X170121439Y-104956166D01*
X170049000Y-105320344D01*
X169656434Y-105320344D01*
X169660974Y-105305378D01*
X169672000Y-105193426D01*
X169672000Y-105193424D01*
X169675686Y-105156001D01*
X169672000Y-105118578D01*
X169672000Y-101539711D01*
X169713937Y-101497774D01*
X169827205Y-101328256D01*
X169905226Y-101139898D01*
X169945000Y-100939939D01*
X169945000Y-100736061D01*
X169905226Y-100536102D01*
X169827205Y-100347744D01*
X169713937Y-100178226D01*
X169569774Y-100034063D01*
X169400256Y-99920795D01*
X169211898Y-99842774D01*
X169011939Y-99803000D01*
X168808061Y-99803000D01*
X168608102Y-99842774D01*
X168419744Y-99920795D01*
X168250226Y-100034063D01*
X168106063Y-100178226D01*
X167992795Y-100347744D01*
X167914774Y-100536102D01*
X167875000Y-100736061D01*
X167875000Y-100939939D01*
X167914774Y-101139898D01*
X167992795Y-101328256D01*
X168106063Y-101497774D01*
X168148000Y-101539711D01*
X168148001Y-104840368D01*
X149798370Y-123190000D01*
X142066080Y-123190000D01*
X142060918Y-123177537D01*
X141881987Y-122909748D01*
X141654252Y-122682013D01*
X141386463Y-122503082D01*
X141088912Y-122379832D01*
X140773033Y-122317000D01*
X140450967Y-122317000D01*
X140135088Y-122379832D01*
X139837537Y-122503082D01*
X139569748Y-122682013D01*
X139342013Y-122909748D01*
X139163082Y-123177537D01*
X139157920Y-123190000D01*
X135566080Y-123190000D01*
X135560918Y-123177537D01*
X135381987Y-122909748D01*
X135154252Y-122682013D01*
X134886463Y-122503082D01*
X134588912Y-122379832D01*
X134273033Y-122317000D01*
X133950967Y-122317000D01*
X133635088Y-122379832D01*
X133337537Y-122503082D01*
X133296091Y-122530775D01*
X138506522Y-117320344D01*
X141601000Y-117320344D01*
X141601000Y-117691656D01*
X141673439Y-118055834D01*
X141815534Y-118398882D01*
X142021825Y-118707618D01*
X142284382Y-118970175D01*
X142593118Y-119176466D01*
X142936166Y-119318561D01*
X143300344Y-119391000D01*
X143671656Y-119391000D01*
X144035834Y-119318561D01*
X144378882Y-119176466D01*
X144687618Y-118970175D01*
X144950175Y-118707618D01*
X145156466Y-118398882D01*
X145298561Y-118055834D01*
X145371000Y-117691656D01*
X145371000Y-117320344D01*
X145298561Y-116956166D01*
X145156466Y-116613118D01*
X144950175Y-116304382D01*
X144687618Y-116041825D01*
X144378882Y-115835534D01*
X144035834Y-115693439D01*
X143671656Y-115621000D01*
X143300344Y-115621000D01*
X142936166Y-115693439D01*
X142593118Y-115835534D01*
X142284382Y-116041825D01*
X142021825Y-116304382D01*
X141815534Y-116613118D01*
X141673439Y-116956166D01*
X141601000Y-117320344D01*
X138506522Y-117320344D01*
X140681749Y-115145117D01*
X150411000Y-115145117D01*
X150411000Y-115486883D01*
X150477675Y-115822081D01*
X150608463Y-116137831D01*
X150798337Y-116421998D01*
X151040002Y-116663663D01*
X151324169Y-116853537D01*
X151639919Y-116984325D01*
X151975117Y-117051000D01*
X152316883Y-117051000D01*
X152652081Y-116984325D01*
X152967831Y-116853537D01*
X153251998Y-116663663D01*
X153493663Y-116421998D01*
X153683537Y-116137831D01*
X153814325Y-115822081D01*
X153881000Y-115486883D01*
X153881000Y-115145117D01*
X153814325Y-114809919D01*
X153683537Y-114494169D01*
X153493663Y-114210002D01*
X153251998Y-113968337D01*
X152967831Y-113778463D01*
X152652081Y-113647675D01*
X152316883Y-113581000D01*
X151975117Y-113581000D01*
X151639919Y-113647675D01*
X151324169Y-113778463D01*
X151040002Y-113968337D01*
X150798337Y-114210002D01*
X150608463Y-114494169D01*
X150477675Y-114809919D01*
X150411000Y-115145117D01*
X140681749Y-115145117D01*
X142669867Y-113157000D01*
X155991629Y-113157000D01*
X156032815Y-113207185D01*
X156129506Y-113286537D01*
X156239820Y-113345502D01*
X156359518Y-113381812D01*
X156484000Y-113394072D01*
X158984000Y-113394072D01*
X159108482Y-113381812D01*
X159228180Y-113345502D01*
X159338494Y-113286537D01*
X159435185Y-113207185D01*
X159514537Y-113110494D01*
X159573502Y-113000180D01*
X159609812Y-112880482D01*
X159622072Y-112756000D01*
X159622072Y-110256000D01*
X159609812Y-110131518D01*
X159573502Y-110011820D01*
X159514537Y-109901506D01*
X159435185Y-109804815D01*
X159338494Y-109725463D01*
X159228180Y-109666498D01*
X159108482Y-109630188D01*
X158984000Y-109617928D01*
X156484000Y-109617928D01*
X156359518Y-109630188D01*
X156239820Y-109666498D01*
X156129506Y-109725463D01*
X156032815Y-109804815D01*
X155991629Y-109855000D01*
X142067101Y-109855000D01*
X141986000Y-109847012D01*
X141904899Y-109855000D01*
X141904896Y-109855000D01*
X141662347Y-109878889D01*
X141351133Y-109973295D01*
X141064316Y-110126602D01*
X140812918Y-110332918D01*
X140761218Y-110395915D01*
X133096625Y-118060509D01*
X133098561Y-118055834D01*
X133171000Y-117691656D01*
X133171000Y-117320344D01*
X133098561Y-116956166D01*
X132956466Y-116613118D01*
X132750175Y-116304382D01*
X132487618Y-116041825D01*
X132178882Y-115835534D01*
X131835834Y-115693439D01*
X131471656Y-115621000D01*
X131100344Y-115621000D01*
X130736166Y-115693439D01*
X130732283Y-115695047D01*
X129755499Y-114718264D01*
X129727659Y-114684341D01*
X129592291Y-114573247D01*
X129437851Y-114490697D01*
X129270274Y-114439864D01*
X129139667Y-114427000D01*
X129139660Y-114427000D01*
X129096000Y-114422700D01*
X129052340Y-114427000D01*
X125190656Y-114427000D01*
X125045663Y-114210002D01*
X124803998Y-113968337D01*
X124519831Y-113778463D01*
X124204081Y-113647675D01*
X123868883Y-113581000D01*
X123527117Y-113581000D01*
X123191919Y-113647675D01*
X122876169Y-113778463D01*
X122592002Y-113968337D01*
X122350337Y-114210002D01*
X122160463Y-114494169D01*
X122029675Y-114809919D01*
X121963000Y-115145117D01*
X121963000Y-115486883D01*
X122029675Y-115822081D01*
X122160463Y-116137831D01*
X122350337Y-116421998D01*
X122592002Y-116663663D01*
X122876169Y-116853537D01*
X123191919Y-116984325D01*
X123527117Y-117051000D01*
X123868883Y-117051000D01*
X124204081Y-116984325D01*
X124519831Y-116853537D01*
X124803998Y-116663663D01*
X125045663Y-116421998D01*
X125190656Y-116205000D01*
X128727765Y-116205000D01*
X129475047Y-116952283D01*
X129473439Y-116956166D01*
X129401000Y-117320344D01*
X129401000Y-117691656D01*
X129473439Y-118055834D01*
X129615534Y-118398882D01*
X129821825Y-118707618D01*
X130084382Y-118970175D01*
X130393118Y-119176466D01*
X130736166Y-119318561D01*
X131100344Y-119391000D01*
X131471656Y-119391000D01*
X131835834Y-119318561D01*
X131840509Y-119316625D01*
X124792134Y-126365000D01*
X114398346Y-126365000D01*
X114390983Y-126357637D01*
X114041302Y-126123988D01*
X113652756Y-125963047D01*
X113240279Y-125881000D01*
X112819721Y-125881000D01*
X112407244Y-125963047D01*
X112018698Y-126123988D01*
X111669017Y-126357637D01*
X111371637Y-126655017D01*
X111137988Y-127004698D01*
X110977047Y-127393244D01*
X110895000Y-127805721D01*
X108610000Y-127805721D01*
X108610000Y-122725721D01*
X110895000Y-122725721D01*
X110895000Y-123146279D01*
X110977047Y-123558756D01*
X111137988Y-123947302D01*
X111371637Y-124296983D01*
X111669017Y-124594363D01*
X112018698Y-124828012D01*
X112407244Y-124988953D01*
X112819721Y-125071000D01*
X113240279Y-125071000D01*
X113652756Y-124988953D01*
X114041302Y-124828012D01*
X114390983Y-124594363D01*
X114688363Y-124296983D01*
X114922012Y-123947302D01*
X115082953Y-123558756D01*
X115165000Y-123146279D01*
X115165000Y-122725721D01*
X115082953Y-122313244D01*
X114922012Y-121924698D01*
X114688363Y-121575017D01*
X114390983Y-121277637D01*
X114041302Y-121043988D01*
X113652756Y-120883047D01*
X113240279Y-120801000D01*
X112819721Y-120801000D01*
X112407244Y-120883047D01*
X112018698Y-121043988D01*
X111669017Y-121277637D01*
X111371637Y-121575017D01*
X111137988Y-121924698D01*
X110977047Y-122313244D01*
X110895000Y-122725721D01*
X108610000Y-122725721D01*
X108610000Y-116356000D01*
X110891928Y-116356000D01*
X110891928Y-119356000D01*
X110904188Y-119480482D01*
X110940498Y-119600180D01*
X110999463Y-119710494D01*
X111078815Y-119807185D01*
X111175506Y-119886537D01*
X111285820Y-119945502D01*
X111405518Y-119981812D01*
X111530000Y-119994072D01*
X114530000Y-119994072D01*
X114654482Y-119981812D01*
X114774180Y-119945502D01*
X114884494Y-119886537D01*
X114981185Y-119807185D01*
X115060537Y-119710494D01*
X115119502Y-119600180D01*
X115155812Y-119480482D01*
X115168072Y-119356000D01*
X115168072Y-116356000D01*
X115155812Y-116231518D01*
X115119502Y-116111820D01*
X115060537Y-116001506D01*
X114981185Y-115904815D01*
X114884494Y-115825463D01*
X114774180Y-115766498D01*
X114654482Y-115730188D01*
X114530000Y-115717928D01*
X111530000Y-115717928D01*
X111405518Y-115730188D01*
X111285820Y-115766498D01*
X111175506Y-115825463D01*
X111078815Y-115904815D01*
X110999463Y-116001506D01*
X110940498Y-116111820D01*
X110904188Y-116231518D01*
X110891928Y-116356000D01*
X108610000Y-116356000D01*
X108610000Y-111041721D01*
X110895000Y-111041721D01*
X110895000Y-111462279D01*
X110977047Y-111874756D01*
X111137988Y-112263302D01*
X111371637Y-112612983D01*
X111669017Y-112910363D01*
X112018698Y-113144012D01*
X112407244Y-113304953D01*
X112819721Y-113387000D01*
X113240279Y-113387000D01*
X113652756Y-113304953D01*
X114041302Y-113144012D01*
X114390983Y-112910363D01*
X114688363Y-112612983D01*
X114922012Y-112263302D01*
X115082953Y-111874756D01*
X115165000Y-111462279D01*
X115165000Y-111041721D01*
X115082953Y-110629244D01*
X114928351Y-110256000D01*
X127397928Y-110256000D01*
X127397928Y-112756000D01*
X127410188Y-112880482D01*
X127446498Y-113000180D01*
X127505463Y-113110494D01*
X127584815Y-113207185D01*
X127681506Y-113286537D01*
X127791820Y-113345502D01*
X127911518Y-113381812D01*
X128036000Y-113394072D01*
X130536000Y-113394072D01*
X130660482Y-113381812D01*
X130780180Y-113345502D01*
X130890494Y-113286537D01*
X130987185Y-113207185D01*
X131066537Y-113110494D01*
X131125502Y-113000180D01*
X131161812Y-112880482D01*
X131174072Y-112756000D01*
X131174072Y-110256000D01*
X131161812Y-110131518D01*
X131125502Y-110011820D01*
X131066537Y-109901506D01*
X130987185Y-109804815D01*
X130890494Y-109725463D01*
X130780180Y-109666498D01*
X130660482Y-109630188D01*
X130536000Y-109617928D01*
X128036000Y-109617928D01*
X127911518Y-109630188D01*
X127791820Y-109666498D01*
X127681506Y-109725463D01*
X127584815Y-109804815D01*
X127505463Y-109901506D01*
X127446498Y-110011820D01*
X127410188Y-110131518D01*
X127397928Y-110256000D01*
X114928351Y-110256000D01*
X114922012Y-110240698D01*
X114688363Y-109891017D01*
X114390983Y-109593637D01*
X114041302Y-109359988D01*
X113652756Y-109199047D01*
X113240279Y-109117000D01*
X112819721Y-109117000D01*
X112407244Y-109199047D01*
X112018698Y-109359988D01*
X111669017Y-109593637D01*
X111371637Y-109891017D01*
X111137988Y-110240698D01*
X110977047Y-110629244D01*
X110895000Y-111041721D01*
X108610000Y-111041721D01*
X108610000Y-105961721D01*
X110895000Y-105961721D01*
X110895000Y-106382279D01*
X110977047Y-106794756D01*
X111137988Y-107183302D01*
X111371637Y-107532983D01*
X111669017Y-107830363D01*
X112018698Y-108064012D01*
X112407244Y-108224953D01*
X112819721Y-108307000D01*
X113240279Y-108307000D01*
X113652756Y-108224953D01*
X114041302Y-108064012D01*
X114390983Y-107830363D01*
X114688363Y-107532983D01*
X114922012Y-107183302D01*
X115082953Y-106794756D01*
X115122488Y-106596000D01*
X121959928Y-106596000D01*
X121959928Y-108796000D01*
X121972188Y-108920482D01*
X122008498Y-109040180D01*
X122067463Y-109150494D01*
X122146815Y-109247185D01*
X122243506Y-109326537D01*
X122353820Y-109385502D01*
X122473518Y-109421812D01*
X122598000Y-109434072D01*
X124798000Y-109434072D01*
X124922482Y-109421812D01*
X125042180Y-109385502D01*
X125152494Y-109326537D01*
X125249185Y-109247185D01*
X125328537Y-109150494D01*
X125387502Y-109040180D01*
X125423812Y-108920482D01*
X125436072Y-108796000D01*
X125436072Y-108585000D01*
X129052340Y-108585000D01*
X129096000Y-108589300D01*
X129139660Y-108585000D01*
X129139667Y-108585000D01*
X129270274Y-108572136D01*
X129437851Y-108521303D01*
X129592291Y-108438753D01*
X129727659Y-108327659D01*
X129755499Y-108293736D01*
X130732283Y-107316953D01*
X130736166Y-107318561D01*
X131100344Y-107391000D01*
X131471656Y-107391000D01*
X131835834Y-107318561D01*
X132178882Y-107176466D01*
X132487618Y-106970175D01*
X132750175Y-106707618D01*
X132956466Y-106398882D01*
X133098561Y-106055834D01*
X133171000Y-105691656D01*
X133171000Y-105320344D01*
X141601000Y-105320344D01*
X141601000Y-105691656D01*
X141673439Y-106055834D01*
X141815534Y-106398882D01*
X142021825Y-106707618D01*
X142284382Y-106970175D01*
X142593118Y-107176466D01*
X142936166Y-107318561D01*
X143300344Y-107391000D01*
X143671656Y-107391000D01*
X144035834Y-107318561D01*
X144378882Y-107176466D01*
X144687618Y-106970175D01*
X144950175Y-106707618D01*
X145024755Y-106596000D01*
X150407928Y-106596000D01*
X150407928Y-108796000D01*
X150420188Y-108920482D01*
X150456498Y-109040180D01*
X150515463Y-109150494D01*
X150594815Y-109247185D01*
X150691506Y-109326537D01*
X150801820Y-109385502D01*
X150921518Y-109421812D01*
X151046000Y-109434072D01*
X153246000Y-109434072D01*
X153370482Y-109421812D01*
X153490180Y-109385502D01*
X153600494Y-109326537D01*
X153697185Y-109247185D01*
X153776537Y-109150494D01*
X153835502Y-109040180D01*
X153871812Y-108920482D01*
X153884072Y-108796000D01*
X153884072Y-106596000D01*
X153871812Y-106471518D01*
X153835502Y-106351820D01*
X153776537Y-106241506D01*
X153697185Y-106144815D01*
X153600494Y-106065463D01*
X153490180Y-106006498D01*
X153370482Y-105970188D01*
X153246000Y-105957928D01*
X151046000Y-105957928D01*
X150921518Y-105970188D01*
X150801820Y-106006498D01*
X150691506Y-106065463D01*
X150594815Y-106144815D01*
X150515463Y-106241506D01*
X150456498Y-106351820D01*
X150420188Y-106471518D01*
X150407928Y-106596000D01*
X145024755Y-106596000D01*
X145156466Y-106398882D01*
X145298561Y-106055834D01*
X145371000Y-105691656D01*
X145371000Y-105320344D01*
X157849000Y-105320344D01*
X157849000Y-105691656D01*
X157921439Y-106055834D01*
X158063534Y-106398882D01*
X158269825Y-106707618D01*
X158532382Y-106970175D01*
X158841118Y-107176466D01*
X159184166Y-107318561D01*
X159548344Y-107391000D01*
X159919656Y-107391000D01*
X160283834Y-107318561D01*
X160626882Y-107176466D01*
X160935618Y-106970175D01*
X161198175Y-106707618D01*
X161404466Y-106398882D01*
X161546561Y-106055834D01*
X161619000Y-105691656D01*
X161619000Y-105320344D01*
X161546561Y-104956166D01*
X161404466Y-104613118D01*
X161198175Y-104304382D01*
X160935618Y-104041825D01*
X160626882Y-103835534D01*
X160283834Y-103693439D01*
X159919656Y-103621000D01*
X159548344Y-103621000D01*
X159184166Y-103693439D01*
X158841118Y-103835534D01*
X158532382Y-104041825D01*
X158269825Y-104304382D01*
X158063534Y-104613118D01*
X157921439Y-104956166D01*
X157849000Y-105320344D01*
X145371000Y-105320344D01*
X145298561Y-104956166D01*
X145156466Y-104613118D01*
X144950175Y-104304382D01*
X144687618Y-104041825D01*
X144378882Y-103835534D01*
X144035834Y-103693439D01*
X143671656Y-103621000D01*
X143300344Y-103621000D01*
X142936166Y-103693439D01*
X142593118Y-103835534D01*
X142284382Y-104041825D01*
X142021825Y-104304382D01*
X141815534Y-104613118D01*
X141673439Y-104956166D01*
X141601000Y-105320344D01*
X133171000Y-105320344D01*
X133098561Y-104956166D01*
X132956466Y-104613118D01*
X132750175Y-104304382D01*
X132487618Y-104041825D01*
X132178882Y-103835534D01*
X132175000Y-103833926D01*
X132175000Y-99894359D01*
X132235205Y-99804256D01*
X132313226Y-99615898D01*
X132353000Y-99415939D01*
X132353000Y-99212061D01*
X132313226Y-99012102D01*
X132235205Y-98823744D01*
X132121937Y-98654226D01*
X131977774Y-98510063D01*
X131808256Y-98396795D01*
X131619898Y-98318774D01*
X131419939Y-98279000D01*
X131216061Y-98279000D01*
X131016102Y-98318774D01*
X130827744Y-98396795D01*
X130658226Y-98510063D01*
X130514063Y-98654226D01*
X130400795Y-98823744D01*
X130322774Y-99012102D01*
X130283000Y-99212061D01*
X130283000Y-99415939D01*
X130322774Y-99615898D01*
X130397001Y-99795096D01*
X130397000Y-103833926D01*
X130393118Y-103835534D01*
X130084382Y-104041825D01*
X129821825Y-104304382D01*
X129615534Y-104613118D01*
X129473439Y-104956166D01*
X129401000Y-105320344D01*
X129401000Y-105691656D01*
X129473439Y-106055834D01*
X129475047Y-106059717D01*
X128727765Y-106807000D01*
X125436072Y-106807000D01*
X125436072Y-106596000D01*
X125423812Y-106471518D01*
X125387502Y-106351820D01*
X125328537Y-106241506D01*
X125249185Y-106144815D01*
X125152494Y-106065463D01*
X125042180Y-106006498D01*
X124922482Y-105970188D01*
X124798000Y-105957928D01*
X122598000Y-105957928D01*
X122473518Y-105970188D01*
X122353820Y-106006498D01*
X122243506Y-106065463D01*
X122146815Y-106144815D01*
X122067463Y-106241506D01*
X122008498Y-106351820D01*
X121972188Y-106471518D01*
X121959928Y-106596000D01*
X115122488Y-106596000D01*
X115165000Y-106382279D01*
X115165000Y-105961721D01*
X115082953Y-105549244D01*
X114922012Y-105160698D01*
X114688363Y-104811017D01*
X114390983Y-104513637D01*
X114041302Y-104279988D01*
X113652756Y-104119047D01*
X113240279Y-104037000D01*
X112819721Y-104037000D01*
X112407244Y-104119047D01*
X112018698Y-104279988D01*
X111669017Y-104513637D01*
X111371637Y-104811017D01*
X111137988Y-105160698D01*
X110977047Y-105549244D01*
X110895000Y-105961721D01*
X108610000Y-105961721D01*
X108610000Y-99592000D01*
X110891928Y-99592000D01*
X110891928Y-102592000D01*
X110904188Y-102716482D01*
X110940498Y-102836180D01*
X110999463Y-102946494D01*
X111078815Y-103043185D01*
X111175506Y-103122537D01*
X111285820Y-103181502D01*
X111405518Y-103217812D01*
X111530000Y-103230072D01*
X114530000Y-103230072D01*
X114654482Y-103217812D01*
X114774180Y-103181502D01*
X114884494Y-103122537D01*
X114981185Y-103043185D01*
X115060537Y-102946494D01*
X115119502Y-102836180D01*
X115155812Y-102716482D01*
X115168072Y-102592000D01*
X115168072Y-99592000D01*
X115155812Y-99467518D01*
X115119502Y-99347820D01*
X115060537Y-99237506D01*
X114981185Y-99140815D01*
X114884494Y-99061463D01*
X114774180Y-99002498D01*
X114654482Y-98966188D01*
X114530000Y-98953928D01*
X111530000Y-98953928D01*
X111405518Y-98966188D01*
X111285820Y-99002498D01*
X111175506Y-99061463D01*
X111078815Y-99140815D01*
X110999463Y-99237506D01*
X110940498Y-99347820D01*
X110904188Y-99467518D01*
X110891928Y-99592000D01*
X108610000Y-99592000D01*
X108610000Y-97509589D01*
X156893000Y-97509589D01*
X156893000Y-97782411D01*
X156946225Y-98049989D01*
X157050629Y-98302043D01*
X157202201Y-98528886D01*
X157395114Y-98721799D01*
X157621957Y-98873371D01*
X157874011Y-98977775D01*
X158141589Y-99031000D01*
X158414411Y-99031000D01*
X158681989Y-98977775D01*
X158934043Y-98873371D01*
X159160886Y-98721799D01*
X159353799Y-98528886D01*
X159413108Y-98440123D01*
X164426821Y-98440123D01*
X164536558Y-98762054D01*
X164706992Y-99056391D01*
X164931573Y-99311822D01*
X165201671Y-99518531D01*
X165506906Y-99668575D01*
X165719878Y-99733175D01*
X165989000Y-99615125D01*
X165989000Y-98171000D01*
X166243000Y-98171000D01*
X166243000Y-99615125D01*
X166512122Y-99733175D01*
X166725094Y-99668575D01*
X167030329Y-99518531D01*
X167300427Y-99311822D01*
X167525008Y-99056391D01*
X167695442Y-98762054D01*
X167805179Y-98440123D01*
X167687600Y-98171000D01*
X166243000Y-98171000D01*
X165989000Y-98171000D01*
X164544400Y-98171000D01*
X164426821Y-98440123D01*
X159413108Y-98440123D01*
X159505371Y-98302043D01*
X159609775Y-98049989D01*
X159663000Y-97782411D01*
X159663000Y-97647877D01*
X164426821Y-97647877D01*
X164544400Y-97917000D01*
X165989000Y-97917000D01*
X165989000Y-96472875D01*
X166243000Y-96472875D01*
X166243000Y-97917000D01*
X167687600Y-97917000D01*
X167805179Y-97647877D01*
X167695442Y-97325946D01*
X167525008Y-97031609D01*
X167300427Y-96776178D01*
X167030329Y-96569469D01*
X166725094Y-96419425D01*
X166512122Y-96354825D01*
X166243000Y-96472875D01*
X165989000Y-96472875D01*
X165719878Y-96354825D01*
X165506906Y-96419425D01*
X165201671Y-96569469D01*
X164931573Y-96776178D01*
X164706992Y-97031609D01*
X164536558Y-97325946D01*
X164426821Y-97647877D01*
X159663000Y-97647877D01*
X159663000Y-97509589D01*
X159609775Y-97242011D01*
X159505371Y-96989957D01*
X159353799Y-96763114D01*
X159160886Y-96570201D01*
X158934043Y-96418629D01*
X158681989Y-96314225D01*
X158414411Y-96261000D01*
X158141589Y-96261000D01*
X157874011Y-96314225D01*
X157621957Y-96418629D01*
X157395114Y-96570201D01*
X157202201Y-96763114D01*
X157050629Y-96989957D01*
X156946225Y-97242011D01*
X156893000Y-97509589D01*
X108610000Y-97509589D01*
X108610000Y-95979653D01*
X111717952Y-95979653D01*
X111873962Y-96295214D01*
X112248745Y-96486020D01*
X112653551Y-96600044D01*
X113072824Y-96632902D01*
X113490451Y-96583334D01*
X113890383Y-96453243D01*
X114186038Y-96295214D01*
X114342048Y-95979653D01*
X113030000Y-94667605D01*
X111717952Y-95979653D01*
X108610000Y-95979653D01*
X108610000Y-94530824D01*
X110885098Y-94530824D01*
X110934666Y-94948451D01*
X111064757Y-95348383D01*
X111222786Y-95644038D01*
X111538347Y-95800048D01*
X112850395Y-94488000D01*
X113209605Y-94488000D01*
X114521653Y-95800048D01*
X114837214Y-95644038D01*
X115028020Y-95269255D01*
X115142044Y-94864449D01*
X115174902Y-94445176D01*
X115125334Y-94027549D01*
X114995243Y-93627617D01*
X114837214Y-93331962D01*
X114521653Y-93175952D01*
X113209605Y-94488000D01*
X112850395Y-94488000D01*
X111538347Y-93175952D01*
X111222786Y-93331962D01*
X111031980Y-93706745D01*
X110917956Y-94111551D01*
X110885098Y-94530824D01*
X108610000Y-94530824D01*
X108610000Y-92996347D01*
X111717952Y-92996347D01*
X113030000Y-94308395D01*
X114342048Y-92996347D01*
X114186038Y-92680786D01*
X113811255Y-92489980D01*
X113406449Y-92375956D01*
X112987176Y-92343098D01*
X112569549Y-92392666D01*
X112169617Y-92522757D01*
X111873962Y-92680786D01*
X111717952Y-92996347D01*
X108610000Y-92996347D01*
X108610000Y-87908000D01*
X110891928Y-87908000D01*
X110891928Y-90908000D01*
X110904188Y-91032482D01*
X110940498Y-91152180D01*
X110999463Y-91262494D01*
X111078815Y-91359185D01*
X111175506Y-91438537D01*
X111285820Y-91497502D01*
X111405518Y-91533812D01*
X111530000Y-91546072D01*
X114530000Y-91546072D01*
X114654482Y-91533812D01*
X114734334Y-91509589D01*
X123293000Y-91509589D01*
X123293000Y-91782411D01*
X123346225Y-92049989D01*
X123450629Y-92302043D01*
X123602201Y-92528886D01*
X123795114Y-92721799D01*
X124021957Y-92873371D01*
X124274011Y-92977775D01*
X124541589Y-93031000D01*
X124814411Y-93031000D01*
X125081989Y-92977775D01*
X125334043Y-92873371D01*
X125560886Y-92721799D01*
X125753799Y-92528886D01*
X125905371Y-92302043D01*
X126009775Y-92049989D01*
X126063000Y-91782411D01*
X126063000Y-91509589D01*
X126009775Y-91242011D01*
X125905371Y-90989957D01*
X125753799Y-90763114D01*
X125560886Y-90570201D01*
X125334043Y-90418629D01*
X125081989Y-90314225D01*
X124814411Y-90261000D01*
X124541589Y-90261000D01*
X124274011Y-90314225D01*
X124021957Y-90418629D01*
X123795114Y-90570201D01*
X123602201Y-90763114D01*
X123450629Y-90989957D01*
X123346225Y-91242011D01*
X123293000Y-91509589D01*
X114734334Y-91509589D01*
X114774180Y-91497502D01*
X114884494Y-91438537D01*
X114981185Y-91359185D01*
X115060537Y-91262494D01*
X115119502Y-91152180D01*
X115155812Y-91032482D01*
X115168072Y-90908000D01*
X115168072Y-89324000D01*
X164377928Y-89324000D01*
X164377928Y-91524000D01*
X164390188Y-91648482D01*
X164426498Y-91768180D01*
X164485463Y-91878494D01*
X164564815Y-91975185D01*
X164661506Y-92054537D01*
X164771820Y-92113502D01*
X164891518Y-92149812D01*
X165016000Y-92162072D01*
X167216000Y-92162072D01*
X167340482Y-92149812D01*
X167460180Y-92113502D01*
X167570494Y-92054537D01*
X167667185Y-91975185D01*
X167746537Y-91878494D01*
X167805502Y-91768180D01*
X167841812Y-91648482D01*
X167854072Y-91524000D01*
X167854072Y-89324000D01*
X167841812Y-89199518D01*
X167805502Y-89079820D01*
X167746537Y-88969506D01*
X167667185Y-88872815D01*
X167570494Y-88793463D01*
X167460180Y-88734498D01*
X167340482Y-88698188D01*
X167216000Y-88685928D01*
X165016000Y-88685928D01*
X164891518Y-88698188D01*
X164771820Y-88734498D01*
X164661506Y-88793463D01*
X164564815Y-88872815D01*
X164485463Y-88969506D01*
X164426498Y-89079820D01*
X164390188Y-89199518D01*
X164377928Y-89324000D01*
X115168072Y-89324000D01*
X115168072Y-87908000D01*
X115155812Y-87783518D01*
X115119502Y-87663820D01*
X115060537Y-87553506D01*
X114981185Y-87456815D01*
X114884494Y-87377463D01*
X114774180Y-87318498D01*
X114654482Y-87282188D01*
X114530000Y-87269928D01*
X111530000Y-87269928D01*
X111405518Y-87282188D01*
X111285820Y-87318498D01*
X111175506Y-87377463D01*
X111078815Y-87456815D01*
X110999463Y-87553506D01*
X110940498Y-87663820D01*
X110904188Y-87783518D01*
X110891928Y-87908000D01*
X108610000Y-87908000D01*
X108610000Y-82593721D01*
X110895000Y-82593721D01*
X110895000Y-83014279D01*
X110977047Y-83426756D01*
X111137988Y-83815302D01*
X111371637Y-84164983D01*
X111669017Y-84462363D01*
X112018698Y-84696012D01*
X112407244Y-84856953D01*
X112819721Y-84939000D01*
X113240279Y-84939000D01*
X113456454Y-84896000D01*
X123289928Y-84896000D01*
X123289928Y-86396000D01*
X123302188Y-86520482D01*
X123338498Y-86640180D01*
X123397463Y-86750494D01*
X123476815Y-86847185D01*
X123573506Y-86926537D01*
X123683820Y-86985502D01*
X123803518Y-87021812D01*
X123928000Y-87034072D01*
X125428000Y-87034072D01*
X125552482Y-87021812D01*
X125672180Y-86985502D01*
X125782494Y-86926537D01*
X125879185Y-86847185D01*
X125958537Y-86750494D01*
X126017502Y-86640180D01*
X126053812Y-86520482D01*
X126066072Y-86396000D01*
X126066072Y-86218665D01*
X164681000Y-86218665D01*
X164681000Y-86501335D01*
X164736147Y-86778574D01*
X164844320Y-87039727D01*
X165001363Y-87274759D01*
X165201241Y-87474637D01*
X165436273Y-87631680D01*
X165697426Y-87739853D01*
X165974665Y-87795000D01*
X166257335Y-87795000D01*
X166534574Y-87739853D01*
X166795727Y-87631680D01*
X167030759Y-87474637D01*
X167230637Y-87274759D01*
X167332707Y-87122000D01*
X169888577Y-87122000D01*
X169926000Y-87125686D01*
X169963423Y-87122000D01*
X169963426Y-87122000D01*
X170075378Y-87110974D01*
X170219015Y-87067402D01*
X170351392Y-86996645D01*
X170467422Y-86901422D01*
X170491284Y-86872346D01*
X173232347Y-84131283D01*
X173261422Y-84107422D01*
X173321857Y-84033781D01*
X173356645Y-83991393D01*
X173427401Y-83859016D01*
X173427402Y-83859015D01*
X173470974Y-83715378D01*
X173482000Y-83603426D01*
X173482000Y-83603423D01*
X173485686Y-83566000D01*
X173482000Y-83528577D01*
X173482000Y-82802777D01*
X173543941Y-82835885D01*
X173762601Y-82902215D01*
X173990000Y-82924612D01*
X174217400Y-82902215D01*
X174436060Y-82835885D01*
X174637579Y-82728171D01*
X174814212Y-82583212D01*
X174959171Y-82406579D01*
X175066885Y-82205059D01*
X175133215Y-81986399D01*
X175150000Y-81815978D01*
X175150000Y-81252021D01*
X175133215Y-81081600D01*
X175066885Y-80862940D01*
X174959171Y-80661421D01*
X174814212Y-80484788D01*
X174637578Y-80339829D01*
X174436059Y-80232115D01*
X174217399Y-80165785D01*
X173990000Y-80143388D01*
X173762600Y-80165785D01*
X173543940Y-80232115D01*
X173355000Y-80333106D01*
X173166059Y-80232115D01*
X172947399Y-80165785D01*
X172720000Y-80143388D01*
X172492600Y-80165785D01*
X172283902Y-80229093D01*
X172219180Y-80194498D01*
X172099482Y-80158188D01*
X171975000Y-80145928D01*
X170925000Y-80145928D01*
X170800518Y-80158188D01*
X170680820Y-80194498D01*
X170570506Y-80253463D01*
X170473815Y-80332815D01*
X170394463Y-80429506D01*
X170335498Y-80539820D01*
X170299188Y-80659518D01*
X170286928Y-80784000D01*
X170286928Y-82284000D01*
X170299188Y-82408482D01*
X170335498Y-82528180D01*
X170394463Y-82638494D01*
X170473815Y-82735185D01*
X170570506Y-82814537D01*
X170680820Y-82873502D01*
X170800518Y-82909812D01*
X170925000Y-82922072D01*
X171958000Y-82922072D01*
X171958000Y-83250370D01*
X169610370Y-85598000D01*
X167332707Y-85598000D01*
X167230637Y-85445241D01*
X167030759Y-85245363D01*
X166795727Y-85088320D01*
X166534574Y-84980147D01*
X166257335Y-84925000D01*
X165974665Y-84925000D01*
X165697426Y-84980147D01*
X165436273Y-85088320D01*
X165201241Y-85245363D01*
X165001363Y-85445241D01*
X164844320Y-85680273D01*
X164736147Y-85941426D01*
X164681000Y-86218665D01*
X126066072Y-86218665D01*
X126066072Y-84896000D01*
X126053812Y-84771518D01*
X126017502Y-84651820D01*
X125958537Y-84541506D01*
X125879185Y-84444815D01*
X125782494Y-84365463D01*
X125672180Y-84306498D01*
X125552482Y-84270188D01*
X125428000Y-84257928D01*
X123928000Y-84257928D01*
X123803518Y-84270188D01*
X123683820Y-84306498D01*
X123573506Y-84365463D01*
X123476815Y-84444815D01*
X123397463Y-84541506D01*
X123338498Y-84651820D01*
X123302188Y-84771518D01*
X123289928Y-84896000D01*
X113456454Y-84896000D01*
X113652756Y-84856953D01*
X114041302Y-84696012D01*
X114390983Y-84462363D01*
X114688363Y-84164983D01*
X114922012Y-83815302D01*
X115082953Y-83426756D01*
X115165000Y-83014279D01*
X115165000Y-82593721D01*
X115082953Y-82181244D01*
X114922012Y-81792698D01*
X114688363Y-81443017D01*
X114390983Y-81145637D01*
X114041302Y-80911988D01*
X113652756Y-80751047D01*
X113240279Y-80669000D01*
X112819721Y-80669000D01*
X112407244Y-80751047D01*
X112018698Y-80911988D01*
X111669017Y-81145637D01*
X111371637Y-81443017D01*
X111137988Y-81792698D01*
X110977047Y-82181244D01*
X110895000Y-82593721D01*
X108610000Y-82593721D01*
X108610000Y-80602993D01*
X157500612Y-80602993D01*
X157566137Y-80841860D01*
X157813116Y-80957760D01*
X158077960Y-81023250D01*
X158350492Y-81035812D01*
X158620238Y-80994965D01*
X158876832Y-80902277D01*
X158989863Y-80841860D01*
X159055388Y-80602993D01*
X158278000Y-79825605D01*
X157500612Y-80602993D01*
X108610000Y-80602993D01*
X108610000Y-76224000D01*
X110891928Y-76224000D01*
X110891928Y-79224000D01*
X110904188Y-79348482D01*
X110940498Y-79468180D01*
X110999463Y-79578494D01*
X111078815Y-79675185D01*
X111175506Y-79754537D01*
X111285820Y-79813502D01*
X111405518Y-79849812D01*
X111530000Y-79862072D01*
X114530000Y-79862072D01*
X114654482Y-79849812D01*
X114774180Y-79813502D01*
X114884494Y-79754537D01*
X114928415Y-79718492D01*
X156888188Y-79718492D01*
X156929035Y-79988238D01*
X157021723Y-80244832D01*
X157082140Y-80357863D01*
X157321007Y-80423388D01*
X158098395Y-79646000D01*
X158457605Y-79646000D01*
X159234993Y-80423388D01*
X159473860Y-80357863D01*
X159589760Y-80110884D01*
X159655250Y-79846040D01*
X159667812Y-79573508D01*
X159626965Y-79303762D01*
X159534277Y-79047168D01*
X159473860Y-78934137D01*
X159234993Y-78868612D01*
X158457605Y-79646000D01*
X158098395Y-79646000D01*
X157321007Y-78868612D01*
X157082140Y-78934137D01*
X156966240Y-79181116D01*
X156900750Y-79445960D01*
X156888188Y-79718492D01*
X114928415Y-79718492D01*
X114981185Y-79675185D01*
X115060537Y-79578494D01*
X115119502Y-79468180D01*
X115155812Y-79348482D01*
X115168072Y-79224000D01*
X115168072Y-78689007D01*
X157500612Y-78689007D01*
X158278000Y-79466395D01*
X159055388Y-78689007D01*
X159030606Y-78598665D01*
X164681000Y-78598665D01*
X164681000Y-78881335D01*
X164736147Y-79158574D01*
X164844320Y-79419727D01*
X165001363Y-79654759D01*
X165201241Y-79854637D01*
X165436273Y-80011680D01*
X165697426Y-80119853D01*
X165974665Y-80175000D01*
X166257335Y-80175000D01*
X166534574Y-80119853D01*
X166795727Y-80011680D01*
X167030759Y-79854637D01*
X167096694Y-79788702D01*
X181050903Y-79788702D01*
X181122486Y-80032671D01*
X181377996Y-80153571D01*
X181652184Y-80222300D01*
X181934512Y-80236217D01*
X182214130Y-80194787D01*
X182480292Y-80099603D01*
X182605514Y-80032671D01*
X182677097Y-79788702D01*
X191718903Y-79788702D01*
X191790486Y-80032671D01*
X192045996Y-80153571D01*
X192320184Y-80222300D01*
X192602512Y-80236217D01*
X192882130Y-80194787D01*
X193148292Y-80099603D01*
X193273514Y-80032671D01*
X193345097Y-79788702D01*
X192532000Y-78975605D01*
X191718903Y-79788702D01*
X182677097Y-79788702D01*
X181864000Y-78975605D01*
X181050903Y-79788702D01*
X167096694Y-79788702D01*
X167230637Y-79654759D01*
X167387680Y-79419727D01*
X167495853Y-79158574D01*
X167551000Y-78881335D01*
X167551000Y-78866512D01*
X180423783Y-78866512D01*
X180465213Y-79146130D01*
X180560397Y-79412292D01*
X180627329Y-79537514D01*
X180871298Y-79609097D01*
X181684395Y-78796000D01*
X182043605Y-78796000D01*
X182856702Y-79609097D01*
X183100671Y-79537514D01*
X183221571Y-79282004D01*
X183290300Y-79007816D01*
X183297265Y-78866512D01*
X191091783Y-78866512D01*
X191133213Y-79146130D01*
X191228397Y-79412292D01*
X191295329Y-79537514D01*
X191539298Y-79609097D01*
X192352395Y-78796000D01*
X192711605Y-78796000D01*
X193524702Y-79609097D01*
X193768671Y-79537514D01*
X193889571Y-79282004D01*
X193958300Y-79007816D01*
X193972217Y-78725488D01*
X193930787Y-78445870D01*
X193835603Y-78179708D01*
X193768671Y-78054486D01*
X193524702Y-77982903D01*
X192711605Y-78796000D01*
X192352395Y-78796000D01*
X191539298Y-77982903D01*
X191295329Y-78054486D01*
X191174429Y-78309996D01*
X191105700Y-78584184D01*
X191091783Y-78866512D01*
X183297265Y-78866512D01*
X183304217Y-78725488D01*
X183262787Y-78445870D01*
X183167603Y-78179708D01*
X183100671Y-78054486D01*
X182856702Y-77982903D01*
X182043605Y-78796000D01*
X181684395Y-78796000D01*
X180871298Y-77982903D01*
X180627329Y-78054486D01*
X180506429Y-78309996D01*
X180437700Y-78584184D01*
X180423783Y-78866512D01*
X167551000Y-78866512D01*
X167551000Y-78598665D01*
X167495853Y-78321426D01*
X167387680Y-78060273D01*
X167230637Y-77825241D01*
X167208694Y-77803298D01*
X181050903Y-77803298D01*
X181864000Y-78616395D01*
X182677097Y-77803298D01*
X191718903Y-77803298D01*
X192532000Y-78616395D01*
X193345097Y-77803298D01*
X193273514Y-77559329D01*
X193018004Y-77438429D01*
X192743816Y-77369700D01*
X192461488Y-77355783D01*
X192181870Y-77397213D01*
X191915708Y-77492397D01*
X191790486Y-77559329D01*
X191718903Y-77803298D01*
X182677097Y-77803298D01*
X182605514Y-77559329D01*
X182350004Y-77438429D01*
X182075816Y-77369700D01*
X181793488Y-77355783D01*
X181513870Y-77397213D01*
X181247708Y-77492397D01*
X181122486Y-77559329D01*
X181050903Y-77803298D01*
X167208694Y-77803298D01*
X167030759Y-77625363D01*
X166795727Y-77468320D01*
X166534574Y-77360147D01*
X166257335Y-77305000D01*
X165974665Y-77305000D01*
X165697426Y-77360147D01*
X165436273Y-77468320D01*
X165201241Y-77625363D01*
X165001363Y-77825241D01*
X164844320Y-78060273D01*
X164736147Y-78321426D01*
X164681000Y-78598665D01*
X159030606Y-78598665D01*
X158989863Y-78450140D01*
X158742884Y-78334240D01*
X158478040Y-78268750D01*
X158205508Y-78256188D01*
X157935762Y-78297035D01*
X157679168Y-78389723D01*
X157566137Y-78450140D01*
X157500612Y-78689007D01*
X115168072Y-78689007D01*
X115168072Y-76224000D01*
X115155812Y-76099518D01*
X115119502Y-75979820D01*
X115060537Y-75869506D01*
X114981185Y-75772815D01*
X114884494Y-75693463D01*
X114774180Y-75634498D01*
X114654482Y-75598188D01*
X114530000Y-75585928D01*
X111530000Y-75585928D01*
X111405518Y-75598188D01*
X111285820Y-75634498D01*
X111175506Y-75693463D01*
X111078815Y-75772815D01*
X110999463Y-75869506D01*
X110940498Y-75979820D01*
X110904188Y-76099518D01*
X110891928Y-76224000D01*
X108610000Y-76224000D01*
X108610000Y-73787000D01*
X110108597Y-73787000D01*
X110275021Y-73898201D01*
%TA.AperFunction,Conductor*%
D34*
G36*
X110275021Y-73898201D02*
G01*
X110845554Y-74134524D01*
X111451229Y-74255000D01*
X112068771Y-74255000D01*
X112674446Y-74134524D01*
X113244979Y-73898201D01*
X113411403Y-73787000D01*
X114919315Y-73787000D01*
X114919550Y-73789383D01*
X114957290Y-73913793D01*
X115018575Y-74028450D01*
X115101052Y-74128948D01*
X115201550Y-74211425D01*
X115316207Y-74272710D01*
X115440617Y-74310450D01*
X115537581Y-74320000D01*
X115570000Y-74323193D01*
X115602419Y-74320000D01*
X191737581Y-74320000D01*
X191770000Y-74323193D01*
X191802419Y-74320000D01*
X191899383Y-74310450D01*
X192023793Y-74272710D01*
X192138450Y-74211425D01*
X192238948Y-74128948D01*
X192321425Y-74028450D01*
X192382710Y-73913793D01*
X192420450Y-73789383D01*
X192420685Y-73787000D01*
X193928597Y-73787000D01*
X194095021Y-73898201D01*
X194665554Y-74134524D01*
X195271229Y-74255000D01*
X195888771Y-74255000D01*
X196494446Y-74134524D01*
X197064979Y-73898201D01*
X197231403Y-73787000D01*
X198730000Y-73787000D01*
X198730001Y-131953000D01*
X197231403Y-131953000D01*
X197064979Y-131841799D01*
X196494446Y-131605476D01*
X195888771Y-131485000D01*
X195271229Y-131485000D01*
X194665554Y-131605476D01*
X194095021Y-131841799D01*
X193928597Y-131953000D01*
X192420685Y-131953000D01*
X192420450Y-131950617D01*
X192382710Y-131826207D01*
X192321425Y-131711550D01*
X192238948Y-131611052D01*
X192138450Y-131528575D01*
X192023793Y-131467290D01*
X191899383Y-131429550D01*
X191802419Y-131420000D01*
X191770000Y-131416807D01*
X191737581Y-131420000D01*
X115602419Y-131420000D01*
X115570000Y-131416807D01*
X115537581Y-131420000D01*
X115440617Y-131429550D01*
X115316207Y-131467290D01*
X115201550Y-131528575D01*
X115101052Y-131611052D01*
X115018575Y-131711550D01*
X114957290Y-131826207D01*
X114919550Y-131950617D01*
X114919315Y-131953000D01*
X113411403Y-131953000D01*
X113244979Y-131841799D01*
X112674446Y-131605476D01*
X112068771Y-131485000D01*
X111451229Y-131485000D01*
X110845554Y-131605476D01*
X110275021Y-131841799D01*
X110108597Y-131953000D01*
X108610000Y-131953000D01*
X108610000Y-127805721D01*
X110895000Y-127805721D01*
X110895000Y-128226279D01*
X110977047Y-128638756D01*
X111137988Y-129027302D01*
X111371637Y-129376983D01*
X111669017Y-129674363D01*
X112018698Y-129908012D01*
X112407244Y-130068953D01*
X112819721Y-130151000D01*
X113240279Y-130151000D01*
X113652756Y-130068953D01*
X114041302Y-129908012D01*
X114390983Y-129674363D01*
X114398346Y-129667000D01*
X125394899Y-129667000D01*
X125476000Y-129674988D01*
X125557101Y-129667000D01*
X125557104Y-129667000D01*
X125799653Y-129643111D01*
X125983264Y-129587413D01*
X133156192Y-129587413D01*
X133251956Y-129851814D01*
X133541571Y-129992704D01*
X133853108Y-130074384D01*
X134174595Y-130093718D01*
X134493675Y-130049961D01*
X134798088Y-129944795D01*
X134972044Y-129851814D01*
X135067808Y-129587413D01*
X139656192Y-129587413D01*
X139751956Y-129851814D01*
X140041571Y-129992704D01*
X140353108Y-130074384D01*
X140674595Y-130093718D01*
X140993675Y-130049961D01*
X141298088Y-129944795D01*
X141472044Y-129851814D01*
X141567808Y-129587413D01*
X161604192Y-129587413D01*
X161699956Y-129851814D01*
X161989571Y-129992704D01*
X162301108Y-130074384D01*
X162622595Y-130093718D01*
X162941675Y-130049961D01*
X163246088Y-129944795D01*
X163420044Y-129851814D01*
X163515808Y-129587413D01*
X168104192Y-129587413D01*
X168199956Y-129851814D01*
X168489571Y-129992704D01*
X168801108Y-130074384D01*
X169122595Y-130093718D01*
X169441675Y-130049961D01*
X169746088Y-129944795D01*
X169920044Y-129851814D01*
X170015808Y-129587413D01*
X169060000Y-128631605D01*
X168104192Y-129587413D01*
X163515808Y-129587413D01*
X162560000Y-128631605D01*
X161604192Y-129587413D01*
X141567808Y-129587413D01*
X140612000Y-128631605D01*
X139656192Y-129587413D01*
X135067808Y-129587413D01*
X134112000Y-128631605D01*
X133156192Y-129587413D01*
X125983264Y-129587413D01*
X126110867Y-129548705D01*
X126397684Y-129395398D01*
X126649082Y-129189082D01*
X126700787Y-129126079D01*
X127312271Y-128514595D01*
X132470282Y-128514595D01*
X132514039Y-128833675D01*
X132619205Y-129138088D01*
X132712186Y-129312044D01*
X132976587Y-129407808D01*
X133932395Y-128452000D01*
X134291605Y-128452000D01*
X135247413Y-129407808D01*
X135511814Y-129312044D01*
X135652704Y-129022429D01*
X135734384Y-128710892D01*
X135746189Y-128514595D01*
X138970282Y-128514595D01*
X139014039Y-128833675D01*
X139119205Y-129138088D01*
X139212186Y-129312044D01*
X139476587Y-129407808D01*
X140432395Y-128452000D01*
X140791605Y-128452000D01*
X141747413Y-129407808D01*
X142011814Y-129312044D01*
X142152704Y-129022429D01*
X142234384Y-128710892D01*
X142246189Y-128514595D01*
X160918282Y-128514595D01*
X160962039Y-128833675D01*
X161067205Y-129138088D01*
X161160186Y-129312044D01*
X161424587Y-129407808D01*
X162380395Y-128452000D01*
X162739605Y-128452000D01*
X163695413Y-129407808D01*
X163959814Y-129312044D01*
X164100704Y-129022429D01*
X164182384Y-128710892D01*
X164194189Y-128514595D01*
X167418282Y-128514595D01*
X167462039Y-128833675D01*
X167567205Y-129138088D01*
X167660186Y-129312044D01*
X167924587Y-129407808D01*
X168880395Y-128452000D01*
X169239605Y-128452000D01*
X170195413Y-129407808D01*
X170459814Y-129312044D01*
X170600704Y-129022429D01*
X170682384Y-128710892D01*
X170701718Y-128389405D01*
X170662580Y-128104000D01*
X178089928Y-128104000D01*
X178102188Y-128228482D01*
X178138498Y-128348180D01*
X178197463Y-128458494D01*
X178276815Y-128555185D01*
X178373506Y-128634537D01*
X178483820Y-128693502D01*
X178603518Y-128729812D01*
X178728000Y-128742072D01*
X179292250Y-128739000D01*
X179451000Y-128580250D01*
X179451000Y-127381000D01*
X178251750Y-127381000D01*
X178093000Y-127539750D01*
X178089928Y-128104000D01*
X170662580Y-128104000D01*
X170657961Y-128070325D01*
X170552795Y-127765912D01*
X170459814Y-127591956D01*
X170195413Y-127496192D01*
X169239605Y-128452000D01*
X168880395Y-128452000D01*
X167924587Y-127496192D01*
X167660186Y-127591956D01*
X167519296Y-127881571D01*
X167437616Y-128193108D01*
X167418282Y-128514595D01*
X164194189Y-128514595D01*
X164201718Y-128389405D01*
X164157961Y-128070325D01*
X164052795Y-127765912D01*
X163959814Y-127591956D01*
X163695413Y-127496192D01*
X162739605Y-128452000D01*
X162380395Y-128452000D01*
X161424587Y-127496192D01*
X161160186Y-127591956D01*
X161019296Y-127881571D01*
X160937616Y-128193108D01*
X160918282Y-128514595D01*
X142246189Y-128514595D01*
X142253718Y-128389405D01*
X142209961Y-128070325D01*
X142104795Y-127765912D01*
X142011814Y-127591956D01*
X141747413Y-127496192D01*
X140791605Y-128452000D01*
X140432395Y-128452000D01*
X139476587Y-127496192D01*
X139212186Y-127591956D01*
X139071296Y-127881571D01*
X138989616Y-128193108D01*
X138970282Y-128514595D01*
X135746189Y-128514595D01*
X135753718Y-128389405D01*
X135709961Y-128070325D01*
X135604795Y-127765912D01*
X135511814Y-127591956D01*
X135247413Y-127496192D01*
X134291605Y-128452000D01*
X133932395Y-128452000D01*
X132976587Y-127496192D01*
X132712186Y-127591956D01*
X132571296Y-127881571D01*
X132489616Y-128193108D01*
X132470282Y-128514595D01*
X127312271Y-128514595D01*
X128510279Y-127316587D01*
X133156192Y-127316587D01*
X134112000Y-128272395D01*
X135067808Y-127316587D01*
X139656192Y-127316587D01*
X140612000Y-128272395D01*
X141567808Y-127316587D01*
X161604192Y-127316587D01*
X162560000Y-128272395D01*
X163515808Y-127316587D01*
X168104192Y-127316587D01*
X169060000Y-128272395D01*
X170015808Y-127316587D01*
X169920044Y-127052186D01*
X169630429Y-126911296D01*
X169318892Y-126829616D01*
X168997405Y-126810282D01*
X168678325Y-126854039D01*
X168373912Y-126959205D01*
X168199956Y-127052186D01*
X168104192Y-127316587D01*
X163515808Y-127316587D01*
X163420044Y-127052186D01*
X163130429Y-126911296D01*
X162818892Y-126829616D01*
X162497405Y-126810282D01*
X162178325Y-126854039D01*
X161873912Y-126959205D01*
X161699956Y-127052186D01*
X161604192Y-127316587D01*
X141567808Y-127316587D01*
X141472044Y-127052186D01*
X141182429Y-126911296D01*
X140870892Y-126829616D01*
X140549405Y-126810282D01*
X140230325Y-126854039D01*
X139925912Y-126959205D01*
X139751956Y-127052186D01*
X139656192Y-127316587D01*
X135067808Y-127316587D01*
X134972044Y-127052186D01*
X134682429Y-126911296D01*
X134370892Y-126829616D01*
X134049405Y-126810282D01*
X133730325Y-126854039D01*
X133425912Y-126959205D01*
X133251956Y-127052186D01*
X133156192Y-127316587D01*
X128510279Y-127316587D01*
X129422866Y-126404000D01*
X178089928Y-126404000D01*
X178093000Y-126968250D01*
X178251750Y-127127000D01*
X179451000Y-127127000D01*
X179451000Y-125927750D01*
X179705000Y-125927750D01*
X179705000Y-127127000D01*
X179725000Y-127127000D01*
X179725000Y-127381000D01*
X179705000Y-127381000D01*
X179705000Y-128580250D01*
X179863750Y-128739000D01*
X180428000Y-128742072D01*
X180552482Y-128729812D01*
X180672180Y-128693502D01*
X180782494Y-128634537D01*
X180879185Y-128555185D01*
X180958537Y-128458494D01*
X181017502Y-128348180D01*
X181039513Y-128275620D01*
X181171368Y-128407475D01*
X181414589Y-128569990D01*
X181684842Y-128681932D01*
X181971740Y-128739000D01*
X182264260Y-128739000D01*
X182551158Y-128681932D01*
X182821411Y-128569990D01*
X183064632Y-128407475D01*
X183271475Y-128200632D01*
X183388000Y-128026240D01*
X183504525Y-128200632D01*
X183711368Y-128407475D01*
X183954589Y-128569990D01*
X184224842Y-128681932D01*
X184511740Y-128739000D01*
X184804260Y-128739000D01*
X185091158Y-128681932D01*
X185361411Y-128569990D01*
X185604632Y-128407475D01*
X185811475Y-128200632D01*
X185928000Y-128026240D01*
X186044525Y-128200632D01*
X186251368Y-128407475D01*
X186494589Y-128569990D01*
X186764842Y-128681932D01*
X187051740Y-128739000D01*
X187344260Y-128739000D01*
X187631158Y-128681932D01*
X187901411Y-128569990D01*
X188144632Y-128407475D01*
X188351475Y-128200632D01*
X188468000Y-128026240D01*
X188584525Y-128200632D01*
X188791368Y-128407475D01*
X189034589Y-128569990D01*
X189304842Y-128681932D01*
X189591740Y-128739000D01*
X189884260Y-128739000D01*
X190171158Y-128681932D01*
X190441411Y-128569990D01*
X190684632Y-128407475D01*
X190891475Y-128200632D01*
X191008000Y-128026240D01*
X191124525Y-128200632D01*
X191331368Y-128407475D01*
X191574589Y-128569990D01*
X191844842Y-128681932D01*
X192131740Y-128739000D01*
X192424260Y-128739000D01*
X192711158Y-128681932D01*
X192981411Y-128569990D01*
X193224632Y-128407475D01*
X193431475Y-128200632D01*
X193593990Y-127957411D01*
X193705932Y-127687158D01*
X193763000Y-127400260D01*
X193763000Y-127107740D01*
X193705932Y-126820842D01*
X193593990Y-126550589D01*
X193431475Y-126307368D01*
X193224632Y-126100525D01*
X192981411Y-125938010D01*
X192711158Y-125826068D01*
X192424260Y-125769000D01*
X192131740Y-125769000D01*
X191844842Y-125826068D01*
X191574589Y-125938010D01*
X191331368Y-126100525D01*
X191124525Y-126307368D01*
X191008000Y-126481760D01*
X190891475Y-126307368D01*
X190684632Y-126100525D01*
X190441411Y-125938010D01*
X190171158Y-125826068D01*
X189884260Y-125769000D01*
X189591740Y-125769000D01*
X189304842Y-125826068D01*
X189034589Y-125938010D01*
X188791368Y-126100525D01*
X188584525Y-126307368D01*
X188468000Y-126481760D01*
X188351475Y-126307368D01*
X188144632Y-126100525D01*
X187901411Y-125938010D01*
X187631158Y-125826068D01*
X187344260Y-125769000D01*
X187051740Y-125769000D01*
X186764842Y-125826068D01*
X186494589Y-125938010D01*
X186251368Y-126100525D01*
X186044525Y-126307368D01*
X185928000Y-126481760D01*
X185811475Y-126307368D01*
X185604632Y-126100525D01*
X185361411Y-125938010D01*
X185091158Y-125826068D01*
X184804260Y-125769000D01*
X184511740Y-125769000D01*
X184224842Y-125826068D01*
X183954589Y-125938010D01*
X183711368Y-126100525D01*
X183504525Y-126307368D01*
X183388000Y-126481760D01*
X183271475Y-126307368D01*
X183064632Y-126100525D01*
X182821411Y-125938010D01*
X182551158Y-125826068D01*
X182264260Y-125769000D01*
X181971740Y-125769000D01*
X181684842Y-125826068D01*
X181414589Y-125938010D01*
X181171368Y-126100525D01*
X181039513Y-126232380D01*
X181017502Y-126159820D01*
X180958537Y-126049506D01*
X180879185Y-125952815D01*
X180782494Y-125873463D01*
X180672180Y-125814498D01*
X180552482Y-125778188D01*
X180428000Y-125765928D01*
X179863750Y-125769000D01*
X179705000Y-125927750D01*
X179451000Y-125927750D01*
X179292250Y-125769000D01*
X178728000Y-125765928D01*
X178603518Y-125778188D01*
X178483820Y-125814498D01*
X178373506Y-125873463D01*
X178276815Y-125952815D01*
X178197463Y-126049506D01*
X178138498Y-126159820D01*
X178102188Y-126279518D01*
X178089928Y-126404000D01*
X129422866Y-126404000D01*
X132690775Y-123136091D01*
X132663082Y-123177537D01*
X132539832Y-123475088D01*
X132477000Y-123790967D01*
X132477000Y-124113033D01*
X132539832Y-124428912D01*
X132663082Y-124726463D01*
X132842013Y-124994252D01*
X133069748Y-125221987D01*
X133337537Y-125400918D01*
X133635088Y-125524168D01*
X133950967Y-125587000D01*
X134273033Y-125587000D01*
X134588912Y-125524168D01*
X134886463Y-125400918D01*
X135154252Y-125221987D01*
X135381987Y-124994252D01*
X135560918Y-124726463D01*
X135566080Y-124714000D01*
X139157920Y-124714000D01*
X139163082Y-124726463D01*
X139342013Y-124994252D01*
X139569748Y-125221987D01*
X139837537Y-125400918D01*
X140135088Y-125524168D01*
X140450967Y-125587000D01*
X140773033Y-125587000D01*
X141088912Y-125524168D01*
X141386463Y-125400918D01*
X141654252Y-125221987D01*
X141881987Y-124994252D01*
X142060918Y-124726463D01*
X142066080Y-124714000D01*
X150076577Y-124714000D01*
X150114000Y-124717686D01*
X150151423Y-124714000D01*
X150151426Y-124714000D01*
X150263378Y-124702974D01*
X150407015Y-124659402D01*
X150539392Y-124588645D01*
X150655422Y-124493422D01*
X150679284Y-124464346D01*
X151352663Y-123790967D01*
X160925000Y-123790967D01*
X160925000Y-124113033D01*
X160987832Y-124428912D01*
X161111082Y-124726463D01*
X161290013Y-124994252D01*
X161517748Y-125221987D01*
X161785537Y-125400918D01*
X162083088Y-125524168D01*
X162398967Y-125587000D01*
X162721033Y-125587000D01*
X163036912Y-125524168D01*
X163334463Y-125400918D01*
X163602252Y-125221987D01*
X163829987Y-124994252D01*
X164008918Y-124726463D01*
X164014080Y-124714000D01*
X167605920Y-124714000D01*
X167611082Y-124726463D01*
X167790013Y-124994252D01*
X168017748Y-125221987D01*
X168285537Y-125400918D01*
X168583088Y-125524168D01*
X168898967Y-125587000D01*
X169221033Y-125587000D01*
X169536912Y-125524168D01*
X169834463Y-125400918D01*
X170102252Y-125221987D01*
X170329987Y-124994252D01*
X170508918Y-124726463D01*
X170514080Y-124714000D01*
X189446577Y-124714000D01*
X189484000Y-124717686D01*
X189521423Y-124714000D01*
X189521426Y-124714000D01*
X189633378Y-124702974D01*
X189777015Y-124659402D01*
X189909392Y-124588645D01*
X190025422Y-124493422D01*
X190049284Y-124464346D01*
X191774347Y-122739283D01*
X191803422Y-122715422D01*
X191875658Y-122627402D01*
X191898645Y-122599393D01*
X191936465Y-122528636D01*
X191969402Y-122467015D01*
X192012974Y-122323378D01*
X192024000Y-122211426D01*
X192024000Y-122211423D01*
X192027686Y-122174000D01*
X192024000Y-122136577D01*
X192024000Y-119124777D01*
X192085941Y-119157885D01*
X192304601Y-119224215D01*
X192532000Y-119246612D01*
X192759400Y-119224215D01*
X192978060Y-119157885D01*
X193179579Y-119050171D01*
X193356212Y-118905212D01*
X193501171Y-118728579D01*
X193608885Y-118527059D01*
X193675215Y-118308399D01*
X193692000Y-118137978D01*
X193692000Y-117574021D01*
X193675215Y-117403600D01*
X193608885Y-117184940D01*
X193501171Y-116983421D01*
X193356212Y-116806788D01*
X193179578Y-116661829D01*
X192978059Y-116554115D01*
X192759399Y-116487785D01*
X192532000Y-116465388D01*
X192304600Y-116487785D01*
X192085940Y-116554115D01*
X191897000Y-116655106D01*
X191708059Y-116554115D01*
X191489399Y-116487785D01*
X191262000Y-116465388D01*
X191034600Y-116487785D01*
X190825902Y-116551093D01*
X190761180Y-116516498D01*
X190641482Y-116480188D01*
X190517000Y-116467928D01*
X190277750Y-116471000D01*
X190119000Y-116629750D01*
X190119000Y-117402892D01*
X190118785Y-117403601D01*
X190102000Y-117574022D01*
X190102000Y-118137979D01*
X190118785Y-118308400D01*
X190119000Y-118309109D01*
X190119000Y-119082250D01*
X190277750Y-119241000D01*
X190500001Y-119243854D01*
X190500000Y-121858370D01*
X189718394Y-122639976D01*
X189717226Y-122634102D01*
X189639205Y-122445744D01*
X189525937Y-122276226D01*
X189381774Y-122132063D01*
X189212256Y-122018795D01*
X189023898Y-121940774D01*
X188823939Y-121901000D01*
X188764631Y-121901000D01*
X188468000Y-121604370D01*
X188468000Y-118606000D01*
X188828928Y-118606000D01*
X188841188Y-118730482D01*
X188877498Y-118850180D01*
X188936463Y-118960494D01*
X189015815Y-119057185D01*
X189112506Y-119136537D01*
X189222820Y-119195502D01*
X189342518Y-119231812D01*
X189467000Y-119244072D01*
X189706250Y-119241000D01*
X189865000Y-119082250D01*
X189865000Y-117983000D01*
X188990750Y-117983000D01*
X188832000Y-118141750D01*
X188828928Y-118606000D01*
X188468000Y-118606000D01*
X188468000Y-117106000D01*
X188828928Y-117106000D01*
X188832000Y-117570250D01*
X188990750Y-117729000D01*
X189865000Y-117729000D01*
X189865000Y-116629750D01*
X189706250Y-116471000D01*
X189467000Y-116467928D01*
X189342518Y-116480188D01*
X189222820Y-116516498D01*
X189112506Y-116575463D01*
X189015815Y-116654815D01*
X188936463Y-116751506D01*
X188877498Y-116861820D01*
X188841188Y-116981518D01*
X188828928Y-117106000D01*
X188468000Y-117106000D01*
X188468000Y-111618665D01*
X189827000Y-111618665D01*
X189827000Y-111901335D01*
X189882147Y-112178574D01*
X189990320Y-112439727D01*
X190147363Y-112674759D01*
X190347241Y-112874637D01*
X190582273Y-113031680D01*
X190843426Y-113139853D01*
X191120665Y-113195000D01*
X191403335Y-113195000D01*
X191680574Y-113139853D01*
X191941727Y-113031680D01*
X192176759Y-112874637D01*
X192376637Y-112674759D01*
X192533680Y-112439727D01*
X192641853Y-112178574D01*
X192697000Y-111901335D01*
X192697000Y-111618665D01*
X192641853Y-111341426D01*
X192533680Y-111080273D01*
X192376637Y-110845241D01*
X192176759Y-110645363D01*
X191941727Y-110488320D01*
X191680574Y-110380147D01*
X191403335Y-110325000D01*
X191120665Y-110325000D01*
X190843426Y-110380147D01*
X190582273Y-110488320D01*
X190347241Y-110645363D01*
X190147363Y-110845241D01*
X189990320Y-111080273D01*
X189882147Y-111341426D01*
X189827000Y-111618665D01*
X188468000Y-111618665D01*
X188468000Y-105131162D01*
X188471686Y-105093739D01*
X188467847Y-105054759D01*
X188456974Y-104944362D01*
X188413402Y-104800725D01*
X188342645Y-104668348D01*
X188247422Y-104552318D01*
X188218353Y-104528462D01*
X186105130Y-102415240D01*
X186105130Y-102355931D01*
X186065356Y-102155972D01*
X185987335Y-101967614D01*
X185874067Y-101798096D01*
X185729904Y-101653933D01*
X185649187Y-101600000D01*
X187644370Y-101600000D01*
X189862843Y-103818474D01*
X189827000Y-103998665D01*
X189827000Y-104281335D01*
X189882147Y-104558574D01*
X189990320Y-104819727D01*
X190147363Y-105054759D01*
X190347241Y-105254637D01*
X190582273Y-105411680D01*
X190843426Y-105519853D01*
X191120665Y-105575000D01*
X191403335Y-105575000D01*
X191680574Y-105519853D01*
X191941727Y-105411680D01*
X192176759Y-105254637D01*
X192376637Y-105054759D01*
X192533680Y-104819727D01*
X192641853Y-104558574D01*
X192697000Y-104281335D01*
X192697000Y-103998665D01*
X192641853Y-103721426D01*
X192533680Y-103460273D01*
X192376637Y-103225241D01*
X192176759Y-103025363D01*
X191941727Y-102868320D01*
X191680574Y-102760147D01*
X191403335Y-102705000D01*
X191120665Y-102705000D01*
X190940474Y-102740843D01*
X188525284Y-100325654D01*
X188501422Y-100296578D01*
X188385392Y-100201355D01*
X188253015Y-100130598D01*
X188109378Y-100087026D01*
X187997426Y-100076000D01*
X187997423Y-100076000D01*
X187960000Y-100072314D01*
X187922577Y-100076000D01*
X181883000Y-100076000D01*
X181883000Y-99974061D01*
X181843226Y-99774102D01*
X181765205Y-99585744D01*
X181670823Y-99444491D01*
X181774574Y-99423853D01*
X182035727Y-99315680D01*
X182270759Y-99158637D01*
X182470637Y-98958759D01*
X182572707Y-98806000D01*
X184965293Y-98806000D01*
X185067363Y-98958759D01*
X185267241Y-99158637D01*
X185502273Y-99315680D01*
X185763426Y-99423853D01*
X186040665Y-99479000D01*
X186323335Y-99479000D01*
X186600574Y-99423853D01*
X186861727Y-99315680D01*
X187096759Y-99158637D01*
X187296637Y-98958759D01*
X187398707Y-98806000D01*
X189791293Y-98806000D01*
X189893363Y-98958759D01*
X190093241Y-99158637D01*
X190328273Y-99315680D01*
X190589426Y-99423853D01*
X190866665Y-99479000D01*
X191149335Y-99479000D01*
X191426574Y-99423853D01*
X191687727Y-99315680D01*
X191922759Y-99158637D01*
X192122637Y-98958759D01*
X192279680Y-98723727D01*
X192387853Y-98462574D01*
X192443000Y-98185335D01*
X192443000Y-97902665D01*
X192387853Y-97625426D01*
X192279680Y-97364273D01*
X192122637Y-97129241D01*
X191922759Y-96929363D01*
X191687727Y-96772320D01*
X191426574Y-96664147D01*
X191149335Y-96609000D01*
X190866665Y-96609000D01*
X190589426Y-96664147D01*
X190328273Y-96772320D01*
X190093241Y-96929363D01*
X189893363Y-97129241D01*
X189791293Y-97282000D01*
X187398707Y-97282000D01*
X187296637Y-97129241D01*
X187096759Y-96929363D01*
X186861727Y-96772320D01*
X186600574Y-96664147D01*
X186323335Y-96609000D01*
X186040665Y-96609000D01*
X185763426Y-96664147D01*
X185502273Y-96772320D01*
X185267241Y-96929363D01*
X185067363Y-97129241D01*
X184965293Y-97282000D01*
X182572707Y-97282000D01*
X182470637Y-97129241D01*
X182270759Y-96929363D01*
X182035727Y-96772320D01*
X181774574Y-96664147D01*
X181497335Y-96609000D01*
X181214665Y-96609000D01*
X180937426Y-96664147D01*
X180676273Y-96772320D01*
X180441241Y-96929363D01*
X180241363Y-97129241D01*
X180084320Y-97364273D01*
X179976147Y-97625426D01*
X179921000Y-97902665D01*
X179921000Y-98185335D01*
X179976147Y-98462574D01*
X180084320Y-98723727D01*
X180241363Y-98958759D01*
X180416897Y-99134293D01*
X180357744Y-99158795D01*
X180188226Y-99272063D01*
X180146289Y-99314000D01*
X179639631Y-99314000D01*
X178816000Y-98490370D01*
X178816000Y-95795423D01*
X178819686Y-95758000D01*
X178816000Y-95720574D01*
X178804974Y-95608622D01*
X178761402Y-95464985D01*
X178690646Y-95332609D01*
X178690645Y-95332607D01*
X178655857Y-95290219D01*
X178595422Y-95216578D01*
X178566347Y-95192717D01*
X177505691Y-94132061D01*
X180321000Y-94132061D01*
X180321000Y-94335939D01*
X180360774Y-94535898D01*
X180438795Y-94724256D01*
X180552063Y-94893774D01*
X180696226Y-95037937D01*
X180865744Y-95151205D01*
X181054102Y-95229226D01*
X181254061Y-95269000D01*
X181457939Y-95269000D01*
X181657898Y-95229226D01*
X181846256Y-95151205D01*
X182015774Y-95037937D01*
X182057711Y-94996000D01*
X187160577Y-94996000D01*
X187198000Y-94999686D01*
X187235423Y-94996000D01*
X187235426Y-94996000D01*
X187347378Y-94984974D01*
X187491015Y-94941402D01*
X187623392Y-94870645D01*
X187739422Y-94775422D01*
X187763284Y-94746346D01*
X190686473Y-91823157D01*
X190866665Y-91859000D01*
X191149335Y-91859000D01*
X191426574Y-91803853D01*
X191687727Y-91695680D01*
X191922759Y-91538637D01*
X192122637Y-91338759D01*
X192279680Y-91103727D01*
X192387853Y-90842574D01*
X192443000Y-90565335D01*
X192443000Y-90282665D01*
X192387853Y-90005426D01*
X192279680Y-89744273D01*
X192122637Y-89509241D01*
X191922759Y-89309363D01*
X191687727Y-89152320D01*
X191426574Y-89044147D01*
X191149335Y-88989000D01*
X190866665Y-88989000D01*
X190589426Y-89044147D01*
X190328273Y-89152320D01*
X190093241Y-89309363D01*
X189893363Y-89509241D01*
X189736320Y-89744273D01*
X189628147Y-90005426D01*
X189573000Y-90282665D01*
X189573000Y-90565335D01*
X189608843Y-90745527D01*
X186882370Y-93472000D01*
X182057711Y-93472000D01*
X182015774Y-93430063D01*
X181846256Y-93316795D01*
X181657898Y-93238774D01*
X181457939Y-93199000D01*
X181254061Y-93199000D01*
X181054102Y-93238774D01*
X180865744Y-93316795D01*
X180696226Y-93430063D01*
X180552063Y-93574226D01*
X180438795Y-93743744D01*
X180360774Y-93932102D01*
X180321000Y-94132061D01*
X177505691Y-94132061D01*
X176713245Y-93339615D01*
X176758600Y-93111599D01*
X176758600Y-92816401D01*
X176701010Y-92526875D01*
X176588042Y-92254147D01*
X176424039Y-92008698D01*
X176215302Y-91799961D01*
X176049897Y-91689441D01*
X176148488Y-91630817D01*
X176366854Y-91434293D01*
X176542684Y-91198944D01*
X176669222Y-90933814D01*
X176714958Y-90783026D01*
X176593817Y-90551000D01*
X175387000Y-90551000D01*
X175387000Y-90571000D01*
X175133000Y-90571000D01*
X175133000Y-90551000D01*
X175113000Y-90551000D01*
X175113000Y-90297000D01*
X175133000Y-90297000D01*
X175133000Y-90277000D01*
X175387000Y-90277000D01*
X175387000Y-90297000D01*
X176593817Y-90297000D01*
X176601301Y-90282665D01*
X179921000Y-90282665D01*
X179921000Y-90565335D01*
X179976147Y-90842574D01*
X180084320Y-91103727D01*
X180241363Y-91338759D01*
X180441241Y-91538637D01*
X180676273Y-91695680D01*
X180937426Y-91803853D01*
X181214665Y-91859000D01*
X181497335Y-91859000D01*
X181774574Y-91803853D01*
X182035727Y-91695680D01*
X182270759Y-91538637D01*
X182470637Y-91338759D01*
X182627680Y-91103727D01*
X182735853Y-90842574D01*
X182791000Y-90565335D01*
X182791000Y-90282665D01*
X184747000Y-90282665D01*
X184747000Y-90565335D01*
X184802147Y-90842574D01*
X184910320Y-91103727D01*
X185067363Y-91338759D01*
X185267241Y-91538637D01*
X185502273Y-91695680D01*
X185763426Y-91803853D01*
X186040665Y-91859000D01*
X186323335Y-91859000D01*
X186600574Y-91803853D01*
X186861727Y-91695680D01*
X187096759Y-91538637D01*
X187296637Y-91338759D01*
X187453680Y-91103727D01*
X187561853Y-90842574D01*
X187617000Y-90565335D01*
X187617000Y-90282665D01*
X187561853Y-90005426D01*
X187453680Y-89744273D01*
X187296637Y-89509241D01*
X187096759Y-89309363D01*
X186861727Y-89152320D01*
X186600574Y-89044147D01*
X186323335Y-88989000D01*
X186040665Y-88989000D01*
X185763426Y-89044147D01*
X185502273Y-89152320D01*
X185267241Y-89309363D01*
X185067363Y-89509241D01*
X184910320Y-89744273D01*
X184802147Y-90005426D01*
X184747000Y-90282665D01*
X182791000Y-90282665D01*
X182735853Y-90005426D01*
X182627680Y-89744273D01*
X182470637Y-89509241D01*
X182270759Y-89309363D01*
X182035727Y-89152320D01*
X181774574Y-89044147D01*
X181497335Y-88989000D01*
X181214665Y-88989000D01*
X180937426Y-89044147D01*
X180676273Y-89152320D01*
X180441241Y-89309363D01*
X180241363Y-89509241D01*
X180084320Y-89744273D01*
X179976147Y-90005426D01*
X179921000Y-90282665D01*
X176601301Y-90282665D01*
X176714958Y-90064974D01*
X176669222Y-89914186D01*
X176542684Y-89649056D01*
X176366854Y-89413707D01*
X176148488Y-89217183D01*
X175895978Y-89067036D01*
X175782834Y-89027000D01*
X179775861Y-89027000D01*
X179832000Y-89032529D01*
X179888139Y-89027000D01*
X179888146Y-89027000D01*
X180056067Y-89010461D01*
X180271523Y-88945103D01*
X180470089Y-88838968D01*
X180644133Y-88696133D01*
X180679927Y-88652518D01*
X182632524Y-86699922D01*
X182676133Y-86664133D01*
X182818968Y-86490089D01*
X182925103Y-86291523D01*
X182990461Y-86076067D01*
X183007000Y-85908146D01*
X183007000Y-85908139D01*
X183012529Y-85852000D01*
X183007000Y-85795861D01*
X183007000Y-83632681D01*
X183018494Y-83626537D01*
X183115185Y-83547185D01*
X183194537Y-83450494D01*
X183253502Y-83340180D01*
X183289812Y-83220482D01*
X183302072Y-83096000D01*
X183302072Y-81496000D01*
X191093928Y-81496000D01*
X191093928Y-83096000D01*
X191106188Y-83220482D01*
X191142498Y-83340180D01*
X191201463Y-83450494D01*
X191280815Y-83547185D01*
X191377506Y-83626537D01*
X191487820Y-83685502D01*
X191607518Y-83721812D01*
X191732000Y-83734072D01*
X193332000Y-83734072D01*
X193456482Y-83721812D01*
X193576180Y-83685502D01*
X193686494Y-83626537D01*
X193783185Y-83547185D01*
X193862537Y-83450494D01*
X193921502Y-83340180D01*
X193957812Y-83220482D01*
X193970072Y-83096000D01*
X193970072Y-81496000D01*
X193957812Y-81371518D01*
X193921502Y-81251820D01*
X193862537Y-81141506D01*
X193783185Y-81044815D01*
X193686494Y-80965463D01*
X193576180Y-80906498D01*
X193456482Y-80870188D01*
X193332000Y-80857928D01*
X191732000Y-80857928D01*
X191607518Y-80870188D01*
X191487820Y-80906498D01*
X191377506Y-80965463D01*
X191280815Y-81044815D01*
X191201463Y-81141506D01*
X191142498Y-81251820D01*
X191106188Y-81371518D01*
X191093928Y-81496000D01*
X183302072Y-81496000D01*
X183289812Y-81371518D01*
X183253502Y-81251820D01*
X183194537Y-81141506D01*
X183115185Y-81044815D01*
X183018494Y-80965463D01*
X182908180Y-80906498D01*
X182788482Y-80870188D01*
X182664000Y-80857928D01*
X181064000Y-80857928D01*
X180939518Y-80870188D01*
X180819820Y-80906498D01*
X180709506Y-80965463D01*
X180612815Y-81044815D01*
X180533463Y-81141506D01*
X180474498Y-81251820D01*
X180438188Y-81371518D01*
X180425928Y-81496000D01*
X180425928Y-83096000D01*
X180438188Y-83220482D01*
X180474498Y-83340180D01*
X180533463Y-83450494D01*
X180612815Y-83547185D01*
X180709506Y-83626537D01*
X180721001Y-83632681D01*
X180721000Y-85378554D01*
X179358555Y-86741000D01*
X171506138Y-86741000D01*
X171449999Y-86735471D01*
X171393860Y-86741000D01*
X171393854Y-86741000D01*
X171248600Y-86755306D01*
X171225932Y-86757539D01*
X171160574Y-86777365D01*
X171010477Y-86822897D01*
X170811911Y-86929032D01*
X170637867Y-87071867D01*
X170602077Y-87115477D01*
X169411482Y-88306073D01*
X169367867Y-88341867D01*
X169225032Y-88515912D01*
X169118897Y-88714478D01*
X169053539Y-88929934D01*
X169037000Y-89097855D01*
X169037000Y-89097861D01*
X169031471Y-89154000D01*
X169037000Y-89210139D01*
X169037001Y-92907844D01*
X169031470Y-92964000D01*
X169037000Y-93020146D01*
X169037001Y-96971852D01*
X169031471Y-97028000D01*
X169053539Y-97252067D01*
X169094357Y-97386622D01*
X169118898Y-97467523D01*
X169225033Y-97666089D01*
X169294706Y-97750985D01*
X169320497Y-97782411D01*
X169367868Y-97840133D01*
X169411478Y-97875923D01*
X170348077Y-98812523D01*
X170383867Y-98856133D01*
X170557911Y-98998968D01*
X170756477Y-99105103D01*
X170902557Y-99149416D01*
X170971932Y-99170461D01*
X170992517Y-99172488D01*
X171139854Y-99187000D01*
X171139861Y-99187000D01*
X171196000Y-99192529D01*
X171252139Y-99187000D01*
X171743659Y-99187000D01*
X171764698Y-99208039D01*
X172010147Y-99372042D01*
X172282875Y-99485010D01*
X172572401Y-99542600D01*
X172867599Y-99542600D01*
X173157125Y-99485010D01*
X173429853Y-99372042D01*
X173675302Y-99208039D01*
X173884039Y-98999302D01*
X173990000Y-98840719D01*
X174095961Y-98999302D01*
X174304698Y-99208039D01*
X174550147Y-99372042D01*
X174822875Y-99485010D01*
X175112401Y-99542600D01*
X175407599Y-99542600D01*
X175635615Y-99497245D01*
X178543000Y-102404631D01*
X178543000Y-102463939D01*
X178582774Y-102663898D01*
X178660795Y-102852256D01*
X178774063Y-103021774D01*
X178918226Y-103165937D01*
X179087744Y-103279205D01*
X179276102Y-103357226D01*
X179476061Y-103397000D01*
X179679939Y-103397000D01*
X179879898Y-103357226D01*
X180068256Y-103279205D01*
X180237774Y-103165937D01*
X180381937Y-103021774D01*
X180495205Y-102852256D01*
X180573226Y-102663898D01*
X180613000Y-102463939D01*
X180613000Y-102260061D01*
X180573226Y-102060102D01*
X180495205Y-101871744D01*
X180381937Y-101702226D01*
X180279711Y-101600000D01*
X184491073Y-101600000D01*
X184410356Y-101653933D01*
X184266193Y-101798096D01*
X184152925Y-101967614D01*
X184074904Y-102155972D01*
X184035130Y-102355931D01*
X184035130Y-102559809D01*
X184065109Y-102710525D01*
X184037335Y-102705000D01*
X183754665Y-102705000D01*
X183477426Y-102760147D01*
X183216273Y-102868320D01*
X182981241Y-103025363D01*
X182781363Y-103225241D01*
X182624320Y-103460273D01*
X182516147Y-103721426D01*
X182461000Y-103998665D01*
X182461000Y-104281335D01*
X182516147Y-104558574D01*
X182624320Y-104819727D01*
X182781363Y-105054759D01*
X182981241Y-105254637D01*
X183216273Y-105411680D01*
X183477426Y-105519853D01*
X183754665Y-105575000D01*
X184037335Y-105575000D01*
X184314574Y-105519853D01*
X184575727Y-105411680D01*
X184810759Y-105254637D01*
X185010637Y-105054759D01*
X185167680Y-104819727D01*
X185275853Y-104558574D01*
X185331000Y-104281335D01*
X185331000Y-103998665D01*
X185280769Y-103746139D01*
X186944000Y-105409371D01*
X186944001Y-115532565D01*
X186944000Y-115532575D01*
X186944001Y-121882567D01*
X186940314Y-121920000D01*
X186955027Y-122069378D01*
X186998599Y-122213015D01*
X187069355Y-122345392D01*
X187133579Y-122423648D01*
X187164579Y-122461422D01*
X187193649Y-122485279D01*
X187687000Y-122978631D01*
X187687000Y-123037939D01*
X187717247Y-123190000D01*
X170514080Y-123190000D01*
X170508918Y-123177537D01*
X170329987Y-122909748D01*
X170102252Y-122682013D01*
X169834463Y-122503082D01*
X169536912Y-122379832D01*
X169221033Y-122317000D01*
X168898967Y-122317000D01*
X168583088Y-122379832D01*
X168285537Y-122503082D01*
X168017748Y-122682013D01*
X167790013Y-122909748D01*
X167611082Y-123177537D01*
X167605920Y-123190000D01*
X164014080Y-123190000D01*
X164008918Y-123177537D01*
X163829987Y-122909748D01*
X163602252Y-122682013D01*
X163334463Y-122503082D01*
X163036912Y-122379832D01*
X162721033Y-122317000D01*
X162398967Y-122317000D01*
X162083088Y-122379832D01*
X161785537Y-122503082D01*
X161517748Y-122682013D01*
X161290013Y-122909748D01*
X161111082Y-123177537D01*
X160987832Y-123475088D01*
X160925000Y-123790967D01*
X151352663Y-123790967D01*
X157855385Y-117288246D01*
X157849000Y-117320344D01*
X157849000Y-117691656D01*
X157921439Y-118055834D01*
X158063534Y-118398882D01*
X158269825Y-118707618D01*
X158532382Y-118970175D01*
X158841118Y-119176466D01*
X159184166Y-119318561D01*
X159548344Y-119391000D01*
X159919656Y-119391000D01*
X160283834Y-119318561D01*
X160287717Y-119316953D01*
X162472506Y-121501742D01*
X162500341Y-121535659D01*
X162635709Y-121646753D01*
X162790149Y-121729303D01*
X162906892Y-121764716D01*
X162957725Y-121780136D01*
X162974325Y-121781771D01*
X163088333Y-121793000D01*
X163088340Y-121793000D01*
X163132000Y-121797300D01*
X163175660Y-121793000D01*
X181839532Y-121793000D01*
X181881744Y-121821205D01*
X182070102Y-121899226D01*
X182270061Y-121939000D01*
X182473939Y-121939000D01*
X182673898Y-121899226D01*
X182862256Y-121821205D01*
X183031774Y-121707937D01*
X183175937Y-121563774D01*
X183289205Y-121394256D01*
X183367226Y-121205898D01*
X183407000Y-121005939D01*
X183407000Y-120802061D01*
X183367226Y-120602102D01*
X183289205Y-120413744D01*
X183175937Y-120244226D01*
X183031774Y-120100063D01*
X182862256Y-119986795D01*
X182673898Y-119908774D01*
X182473939Y-119869000D01*
X182270061Y-119869000D01*
X182070102Y-119908774D01*
X181881744Y-119986795D01*
X181839532Y-120015000D01*
X163500236Y-120015000D01*
X161544953Y-118059717D01*
X161546561Y-118055834D01*
X161619000Y-117691656D01*
X161619000Y-117320344D01*
X170049000Y-117320344D01*
X170049000Y-117691656D01*
X170121439Y-118055834D01*
X170263534Y-118398882D01*
X170469825Y-118707618D01*
X170732382Y-118970175D01*
X171041118Y-119176466D01*
X171384166Y-119318561D01*
X171748344Y-119391000D01*
X172119656Y-119391000D01*
X172483834Y-119318561D01*
X172826882Y-119176466D01*
X173135618Y-118970175D01*
X173398175Y-118707618D01*
X173466074Y-118606000D01*
X181462928Y-118606000D01*
X181475188Y-118730482D01*
X181511498Y-118850180D01*
X181570463Y-118960494D01*
X181649815Y-119057185D01*
X181746506Y-119136537D01*
X181856820Y-119195502D01*
X181976518Y-119231812D01*
X182101000Y-119244072D01*
X182340250Y-119241000D01*
X182499000Y-119082250D01*
X182499000Y-117983000D01*
X181624750Y-117983000D01*
X181466000Y-118141750D01*
X181462928Y-118606000D01*
X173466074Y-118606000D01*
X173604466Y-118398882D01*
X173746561Y-118055834D01*
X173819000Y-117691656D01*
X173819000Y-117320344D01*
X173746561Y-116956166D01*
X173604466Y-116613118D01*
X173398175Y-116304382D01*
X173135618Y-116041825D01*
X172826882Y-115835534D01*
X172483834Y-115693439D01*
X172119656Y-115621000D01*
X171748344Y-115621000D01*
X171384166Y-115693439D01*
X171041118Y-115835534D01*
X170732382Y-116041825D01*
X170469825Y-116304382D01*
X170263534Y-116613118D01*
X170121439Y-116956166D01*
X170049000Y-117320344D01*
X161619000Y-117320344D01*
X161546561Y-116956166D01*
X161404466Y-116613118D01*
X161198175Y-116304382D01*
X160935618Y-116041825D01*
X160626882Y-115835534D01*
X160283834Y-115693439D01*
X159919656Y-115621000D01*
X159548344Y-115621000D01*
X159516246Y-115627385D01*
X160437570Y-114706061D01*
X172447000Y-114706061D01*
X172447000Y-114909939D01*
X172486774Y-115109898D01*
X172564795Y-115298256D01*
X172678063Y-115467774D01*
X172822226Y-115611937D01*
X172991744Y-115725205D01*
X173180102Y-115803226D01*
X173380061Y-115843000D01*
X173583939Y-115843000D01*
X173783898Y-115803226D01*
X173972256Y-115725205D01*
X174014468Y-115697000D01*
X180987765Y-115697000D01*
X181824525Y-116533760D01*
X181746506Y-116575463D01*
X181649815Y-116654815D01*
X181570463Y-116751506D01*
X181511498Y-116861820D01*
X181475188Y-116981518D01*
X181462928Y-117106000D01*
X181466000Y-117570250D01*
X181624750Y-117729000D01*
X182499000Y-117729000D01*
X182499000Y-117709000D01*
X182736000Y-117709000D01*
X182736000Y-118137979D01*
X182752785Y-118308400D01*
X182753000Y-118309109D01*
X182753000Y-119082250D01*
X182911750Y-119241000D01*
X183151000Y-119244072D01*
X183275482Y-119231812D01*
X183395180Y-119195502D01*
X183459902Y-119160907D01*
X183668601Y-119224215D01*
X183896000Y-119246612D01*
X184123400Y-119224215D01*
X184342060Y-119157885D01*
X184531001Y-119056894D01*
X184719941Y-119157885D01*
X184938601Y-119224215D01*
X185166000Y-119246612D01*
X185393400Y-119224215D01*
X185612060Y-119157885D01*
X185813579Y-119050171D01*
X185990212Y-118905212D01*
X186135171Y-118728579D01*
X186242885Y-118527059D01*
X186309215Y-118308399D01*
X186326000Y-118137978D01*
X186326000Y-117574021D01*
X186309215Y-117403600D01*
X186242885Y-117184940D01*
X186135171Y-116983421D01*
X186055000Y-116885732D01*
X186055000Y-116641659D01*
X186059300Y-116597999D01*
X186055000Y-116554339D01*
X186055000Y-116554333D01*
X186042136Y-116423726D01*
X185991303Y-116256149D01*
X185908753Y-116101709D01*
X185797659Y-115966341D01*
X185763737Y-115938502D01*
X185305499Y-115480264D01*
X185277659Y-115446341D01*
X185142291Y-115335247D01*
X184987851Y-115252697D01*
X184820274Y-115201864D01*
X184689667Y-115189000D01*
X184689660Y-115189000D01*
X184646000Y-115184700D01*
X184602340Y-115189000D01*
X182994236Y-115189000D01*
X182015499Y-114210264D01*
X181987659Y-114176341D01*
X181852291Y-114065247D01*
X181697851Y-113982697D01*
X181530274Y-113931864D01*
X181399667Y-113919000D01*
X181399660Y-113919000D01*
X181356000Y-113914700D01*
X181312340Y-113919000D01*
X174014468Y-113919000D01*
X173972256Y-113890795D01*
X173783898Y-113812774D01*
X173583939Y-113773000D01*
X173380061Y-113773000D01*
X173180102Y-113812774D01*
X172991744Y-113890795D01*
X172822226Y-114004063D01*
X172678063Y-114148226D01*
X172564795Y-114317744D01*
X172486774Y-114506102D01*
X172447000Y-114706061D01*
X160437570Y-114706061D01*
X163524966Y-111618665D01*
X182461000Y-111618665D01*
X182461000Y-111901335D01*
X182516147Y-112178574D01*
X182624320Y-112439727D01*
X182781363Y-112674759D01*
X182981241Y-112874637D01*
X183216273Y-113031680D01*
X183477426Y-113139853D01*
X183754665Y-113195000D01*
X184037335Y-113195000D01*
X184314574Y-113139853D01*
X184575727Y-113031680D01*
X184810759Y-112874637D01*
X185010637Y-112674759D01*
X185167680Y-112439727D01*
X185275853Y-112178574D01*
X185331000Y-111901335D01*
X185331000Y-111618665D01*
X185275853Y-111341426D01*
X185167680Y-111080273D01*
X185010637Y-110845241D01*
X184810759Y-110645363D01*
X184575727Y-110488320D01*
X184314574Y-110380147D01*
X184037335Y-110325000D01*
X183754665Y-110325000D01*
X183477426Y-110380147D01*
X183216273Y-110488320D01*
X182981241Y-110645363D01*
X182781363Y-110845241D01*
X182624320Y-111080273D01*
X182516147Y-111341426D01*
X182461000Y-111618665D01*
X163524966Y-111618665D01*
X169422352Y-105721279D01*
X169451422Y-105697422D01*
X169546645Y-105581392D01*
X169617402Y-105449015D01*
X169656434Y-105320344D01*
X170049000Y-105320344D01*
X170049000Y-105691656D01*
X170121439Y-106055834D01*
X170263534Y-106398882D01*
X170469825Y-106707618D01*
X170732382Y-106970175D01*
X171041118Y-107176466D01*
X171384166Y-107318561D01*
X171748344Y-107391000D01*
X172119656Y-107391000D01*
X172483834Y-107318561D01*
X172826882Y-107176466D01*
X173135618Y-106970175D01*
X173398175Y-106707618D01*
X173604466Y-106398882D01*
X173746561Y-106055834D01*
X173819000Y-105691656D01*
X173819000Y-105320344D01*
X173746561Y-104956166D01*
X173604466Y-104613118D01*
X173398175Y-104304382D01*
X173135618Y-104041825D01*
X172826882Y-103835534D01*
X172483834Y-103693439D01*
X172119656Y-103621000D01*
X171748344Y-103621000D01*
X171384166Y-103693439D01*
X171041118Y-103835534D01*
X170732382Y-104041825D01*
X170469825Y-104304382D01*
X170263534Y-104613118D01*
X170121439Y-104956166D01*
X170049000Y-105320344D01*
X169656434Y-105320344D01*
X169660974Y-105305378D01*
X169672000Y-105193426D01*
X169672000Y-105193424D01*
X169675686Y-105156001D01*
X169672000Y-105118578D01*
X169672000Y-101539711D01*
X169713937Y-101497774D01*
X169827205Y-101328256D01*
X169905226Y-101139898D01*
X169945000Y-100939939D01*
X169945000Y-100736061D01*
X169905226Y-100536102D01*
X169827205Y-100347744D01*
X169713937Y-100178226D01*
X169569774Y-100034063D01*
X169400256Y-99920795D01*
X169211898Y-99842774D01*
X169011939Y-99803000D01*
X168808061Y-99803000D01*
X168608102Y-99842774D01*
X168419744Y-99920795D01*
X168250226Y-100034063D01*
X168106063Y-100178226D01*
X167992795Y-100347744D01*
X167914774Y-100536102D01*
X167875000Y-100736061D01*
X167875000Y-100939939D01*
X167914774Y-101139898D01*
X167992795Y-101328256D01*
X168106063Y-101497774D01*
X168148000Y-101539711D01*
X168148001Y-104840368D01*
X149798370Y-123190000D01*
X142066080Y-123190000D01*
X142060918Y-123177537D01*
X141881987Y-122909748D01*
X141654252Y-122682013D01*
X141386463Y-122503082D01*
X141088912Y-122379832D01*
X140773033Y-122317000D01*
X140450967Y-122317000D01*
X140135088Y-122379832D01*
X139837537Y-122503082D01*
X139569748Y-122682013D01*
X139342013Y-122909748D01*
X139163082Y-123177537D01*
X139157920Y-123190000D01*
X135566080Y-123190000D01*
X135560918Y-123177537D01*
X135381987Y-122909748D01*
X135154252Y-122682013D01*
X134886463Y-122503082D01*
X134588912Y-122379832D01*
X134273033Y-122317000D01*
X133950967Y-122317000D01*
X133635088Y-122379832D01*
X133337537Y-122503082D01*
X133296091Y-122530775D01*
X138506522Y-117320344D01*
X141601000Y-117320344D01*
X141601000Y-117691656D01*
X141673439Y-118055834D01*
X141815534Y-118398882D01*
X142021825Y-118707618D01*
X142284382Y-118970175D01*
X142593118Y-119176466D01*
X142936166Y-119318561D01*
X143300344Y-119391000D01*
X143671656Y-119391000D01*
X144035834Y-119318561D01*
X144378882Y-119176466D01*
X144687618Y-118970175D01*
X144950175Y-118707618D01*
X145156466Y-118398882D01*
X145298561Y-118055834D01*
X145371000Y-117691656D01*
X145371000Y-117320344D01*
X145298561Y-116956166D01*
X145156466Y-116613118D01*
X144950175Y-116304382D01*
X144687618Y-116041825D01*
X144378882Y-115835534D01*
X144035834Y-115693439D01*
X143671656Y-115621000D01*
X143300344Y-115621000D01*
X142936166Y-115693439D01*
X142593118Y-115835534D01*
X142284382Y-116041825D01*
X142021825Y-116304382D01*
X141815534Y-116613118D01*
X141673439Y-116956166D01*
X141601000Y-117320344D01*
X138506522Y-117320344D01*
X140681749Y-115145117D01*
X150411000Y-115145117D01*
X150411000Y-115486883D01*
X150477675Y-115822081D01*
X150608463Y-116137831D01*
X150798337Y-116421998D01*
X151040002Y-116663663D01*
X151324169Y-116853537D01*
X151639919Y-116984325D01*
X151975117Y-117051000D01*
X152316883Y-117051000D01*
X152652081Y-116984325D01*
X152967831Y-116853537D01*
X153251998Y-116663663D01*
X153493663Y-116421998D01*
X153683537Y-116137831D01*
X153814325Y-115822081D01*
X153881000Y-115486883D01*
X153881000Y-115145117D01*
X153814325Y-114809919D01*
X153683537Y-114494169D01*
X153493663Y-114210002D01*
X153251998Y-113968337D01*
X152967831Y-113778463D01*
X152652081Y-113647675D01*
X152316883Y-113581000D01*
X151975117Y-113581000D01*
X151639919Y-113647675D01*
X151324169Y-113778463D01*
X151040002Y-113968337D01*
X150798337Y-114210002D01*
X150608463Y-114494169D01*
X150477675Y-114809919D01*
X150411000Y-115145117D01*
X140681749Y-115145117D01*
X142669867Y-113157000D01*
X155991629Y-113157000D01*
X156032815Y-113207185D01*
X156129506Y-113286537D01*
X156239820Y-113345502D01*
X156359518Y-113381812D01*
X156484000Y-113394072D01*
X158984000Y-113394072D01*
X159108482Y-113381812D01*
X159228180Y-113345502D01*
X159338494Y-113286537D01*
X159435185Y-113207185D01*
X159514537Y-113110494D01*
X159573502Y-113000180D01*
X159609812Y-112880482D01*
X159622072Y-112756000D01*
X159622072Y-110256000D01*
X159609812Y-110131518D01*
X159573502Y-110011820D01*
X159514537Y-109901506D01*
X159435185Y-109804815D01*
X159338494Y-109725463D01*
X159228180Y-109666498D01*
X159108482Y-109630188D01*
X158984000Y-109617928D01*
X156484000Y-109617928D01*
X156359518Y-109630188D01*
X156239820Y-109666498D01*
X156129506Y-109725463D01*
X156032815Y-109804815D01*
X155991629Y-109855000D01*
X142067101Y-109855000D01*
X141986000Y-109847012D01*
X141904899Y-109855000D01*
X141904896Y-109855000D01*
X141662347Y-109878889D01*
X141351133Y-109973295D01*
X141064316Y-110126602D01*
X140812918Y-110332918D01*
X140761218Y-110395915D01*
X133096625Y-118060509D01*
X133098561Y-118055834D01*
X133171000Y-117691656D01*
X133171000Y-117320344D01*
X133098561Y-116956166D01*
X132956466Y-116613118D01*
X132750175Y-116304382D01*
X132487618Y-116041825D01*
X132178882Y-115835534D01*
X131835834Y-115693439D01*
X131471656Y-115621000D01*
X131100344Y-115621000D01*
X130736166Y-115693439D01*
X130732283Y-115695047D01*
X129755499Y-114718264D01*
X129727659Y-114684341D01*
X129592291Y-114573247D01*
X129437851Y-114490697D01*
X129270274Y-114439864D01*
X129139667Y-114427000D01*
X129139660Y-114427000D01*
X129096000Y-114422700D01*
X129052340Y-114427000D01*
X125190656Y-114427000D01*
X125045663Y-114210002D01*
X124803998Y-113968337D01*
X124519831Y-113778463D01*
X124204081Y-113647675D01*
X123868883Y-113581000D01*
X123527117Y-113581000D01*
X123191919Y-113647675D01*
X122876169Y-113778463D01*
X122592002Y-113968337D01*
X122350337Y-114210002D01*
X122160463Y-114494169D01*
X122029675Y-114809919D01*
X121963000Y-115145117D01*
X121963000Y-115486883D01*
X122029675Y-115822081D01*
X122160463Y-116137831D01*
X122350337Y-116421998D01*
X122592002Y-116663663D01*
X122876169Y-116853537D01*
X123191919Y-116984325D01*
X123527117Y-117051000D01*
X123868883Y-117051000D01*
X124204081Y-116984325D01*
X124519831Y-116853537D01*
X124803998Y-116663663D01*
X125045663Y-116421998D01*
X125190656Y-116205000D01*
X128727765Y-116205000D01*
X129475047Y-116952283D01*
X129473439Y-116956166D01*
X129401000Y-117320344D01*
X129401000Y-117691656D01*
X129473439Y-118055834D01*
X129615534Y-118398882D01*
X129821825Y-118707618D01*
X130084382Y-118970175D01*
X130393118Y-119176466D01*
X130736166Y-119318561D01*
X131100344Y-119391000D01*
X131471656Y-119391000D01*
X131835834Y-119318561D01*
X131840509Y-119316625D01*
X124792134Y-126365000D01*
X114398346Y-126365000D01*
X114390983Y-126357637D01*
X114041302Y-126123988D01*
X113652756Y-125963047D01*
X113240279Y-125881000D01*
X112819721Y-125881000D01*
X112407244Y-125963047D01*
X112018698Y-126123988D01*
X111669017Y-126357637D01*
X111371637Y-126655017D01*
X111137988Y-127004698D01*
X110977047Y-127393244D01*
X110895000Y-127805721D01*
X108610000Y-127805721D01*
X108610000Y-122725721D01*
X110895000Y-122725721D01*
X110895000Y-123146279D01*
X110977047Y-123558756D01*
X111137988Y-123947302D01*
X111371637Y-124296983D01*
X111669017Y-124594363D01*
X112018698Y-124828012D01*
X112407244Y-124988953D01*
X112819721Y-125071000D01*
X113240279Y-125071000D01*
X113652756Y-124988953D01*
X114041302Y-124828012D01*
X114390983Y-124594363D01*
X114688363Y-124296983D01*
X114922012Y-123947302D01*
X115082953Y-123558756D01*
X115165000Y-123146279D01*
X115165000Y-122725721D01*
X115082953Y-122313244D01*
X114922012Y-121924698D01*
X114688363Y-121575017D01*
X114390983Y-121277637D01*
X114041302Y-121043988D01*
X113652756Y-120883047D01*
X113240279Y-120801000D01*
X112819721Y-120801000D01*
X112407244Y-120883047D01*
X112018698Y-121043988D01*
X111669017Y-121277637D01*
X111371637Y-121575017D01*
X111137988Y-121924698D01*
X110977047Y-122313244D01*
X110895000Y-122725721D01*
X108610000Y-122725721D01*
X108610000Y-116356000D01*
X110891928Y-116356000D01*
X110891928Y-119356000D01*
X110904188Y-119480482D01*
X110940498Y-119600180D01*
X110999463Y-119710494D01*
X111078815Y-119807185D01*
X111175506Y-119886537D01*
X111285820Y-119945502D01*
X111405518Y-119981812D01*
X111530000Y-119994072D01*
X114530000Y-119994072D01*
X114654482Y-119981812D01*
X114774180Y-119945502D01*
X114884494Y-119886537D01*
X114981185Y-119807185D01*
X115060537Y-119710494D01*
X115119502Y-119600180D01*
X115155812Y-119480482D01*
X115168072Y-119356000D01*
X115168072Y-116356000D01*
X115155812Y-116231518D01*
X115119502Y-116111820D01*
X115060537Y-116001506D01*
X114981185Y-115904815D01*
X114884494Y-115825463D01*
X114774180Y-115766498D01*
X114654482Y-115730188D01*
X114530000Y-115717928D01*
X111530000Y-115717928D01*
X111405518Y-115730188D01*
X111285820Y-115766498D01*
X111175506Y-115825463D01*
X111078815Y-115904815D01*
X110999463Y-116001506D01*
X110940498Y-116111820D01*
X110904188Y-116231518D01*
X110891928Y-116356000D01*
X108610000Y-116356000D01*
X108610000Y-111041721D01*
X110895000Y-111041721D01*
X110895000Y-111462279D01*
X110977047Y-111874756D01*
X111137988Y-112263302D01*
X111371637Y-112612983D01*
X111669017Y-112910363D01*
X112018698Y-113144012D01*
X112407244Y-113304953D01*
X112819721Y-113387000D01*
X113240279Y-113387000D01*
X113652756Y-113304953D01*
X114041302Y-113144012D01*
X114390983Y-112910363D01*
X114688363Y-112612983D01*
X114922012Y-112263302D01*
X115082953Y-111874756D01*
X115165000Y-111462279D01*
X115165000Y-111041721D01*
X115082953Y-110629244D01*
X114928351Y-110256000D01*
X127397928Y-110256000D01*
X127397928Y-112756000D01*
X127410188Y-112880482D01*
X127446498Y-113000180D01*
X127505463Y-113110494D01*
X127584815Y-113207185D01*
X127681506Y-113286537D01*
X127791820Y-113345502D01*
X127911518Y-113381812D01*
X128036000Y-113394072D01*
X130536000Y-113394072D01*
X130660482Y-113381812D01*
X130780180Y-113345502D01*
X130890494Y-113286537D01*
X130987185Y-113207185D01*
X131066537Y-113110494D01*
X131125502Y-113000180D01*
X131161812Y-112880482D01*
X131174072Y-112756000D01*
X131174072Y-110256000D01*
X131161812Y-110131518D01*
X131125502Y-110011820D01*
X131066537Y-109901506D01*
X130987185Y-109804815D01*
X130890494Y-109725463D01*
X130780180Y-109666498D01*
X130660482Y-109630188D01*
X130536000Y-109617928D01*
X128036000Y-109617928D01*
X127911518Y-109630188D01*
X127791820Y-109666498D01*
X127681506Y-109725463D01*
X127584815Y-109804815D01*
X127505463Y-109901506D01*
X127446498Y-110011820D01*
X127410188Y-110131518D01*
X127397928Y-110256000D01*
X114928351Y-110256000D01*
X114922012Y-110240698D01*
X114688363Y-109891017D01*
X114390983Y-109593637D01*
X114041302Y-109359988D01*
X113652756Y-109199047D01*
X113240279Y-109117000D01*
X112819721Y-109117000D01*
X112407244Y-109199047D01*
X112018698Y-109359988D01*
X111669017Y-109593637D01*
X111371637Y-109891017D01*
X111137988Y-110240698D01*
X110977047Y-110629244D01*
X110895000Y-111041721D01*
X108610000Y-111041721D01*
X108610000Y-105961721D01*
X110895000Y-105961721D01*
X110895000Y-106382279D01*
X110977047Y-106794756D01*
X111137988Y-107183302D01*
X111371637Y-107532983D01*
X111669017Y-107830363D01*
X112018698Y-108064012D01*
X112407244Y-108224953D01*
X112819721Y-108307000D01*
X113240279Y-108307000D01*
X113652756Y-108224953D01*
X114041302Y-108064012D01*
X114390983Y-107830363D01*
X114688363Y-107532983D01*
X114922012Y-107183302D01*
X115082953Y-106794756D01*
X115122488Y-106596000D01*
X121959928Y-106596000D01*
X121959928Y-108796000D01*
X121972188Y-108920482D01*
X122008498Y-109040180D01*
X122067463Y-109150494D01*
X122146815Y-109247185D01*
X122243506Y-109326537D01*
X122353820Y-109385502D01*
X122473518Y-109421812D01*
X122598000Y-109434072D01*
X124798000Y-109434072D01*
X124922482Y-109421812D01*
X125042180Y-109385502D01*
X125152494Y-109326537D01*
X125249185Y-109247185D01*
X125328537Y-109150494D01*
X125387502Y-109040180D01*
X125423812Y-108920482D01*
X125436072Y-108796000D01*
X125436072Y-108585000D01*
X129052340Y-108585000D01*
X129096000Y-108589300D01*
X129139660Y-108585000D01*
X129139667Y-108585000D01*
X129270274Y-108572136D01*
X129437851Y-108521303D01*
X129592291Y-108438753D01*
X129727659Y-108327659D01*
X129755499Y-108293736D01*
X130732283Y-107316953D01*
X130736166Y-107318561D01*
X131100344Y-107391000D01*
X131471656Y-107391000D01*
X131835834Y-107318561D01*
X132178882Y-107176466D01*
X132487618Y-106970175D01*
X132750175Y-106707618D01*
X132956466Y-106398882D01*
X133098561Y-106055834D01*
X133171000Y-105691656D01*
X133171000Y-105320344D01*
X141601000Y-105320344D01*
X141601000Y-105691656D01*
X141673439Y-106055834D01*
X141815534Y-106398882D01*
X142021825Y-106707618D01*
X142284382Y-106970175D01*
X142593118Y-107176466D01*
X142936166Y-107318561D01*
X143300344Y-107391000D01*
X143671656Y-107391000D01*
X144035834Y-107318561D01*
X144378882Y-107176466D01*
X144687618Y-106970175D01*
X144950175Y-106707618D01*
X145024755Y-106596000D01*
X150407928Y-106596000D01*
X150407928Y-108796000D01*
X150420188Y-108920482D01*
X150456498Y-109040180D01*
X150515463Y-109150494D01*
X150594815Y-109247185D01*
X150691506Y-109326537D01*
X150801820Y-109385502D01*
X150921518Y-109421812D01*
X151046000Y-109434072D01*
X153246000Y-109434072D01*
X153370482Y-109421812D01*
X153490180Y-109385502D01*
X153600494Y-109326537D01*
X153697185Y-109247185D01*
X153776537Y-109150494D01*
X153835502Y-109040180D01*
X153871812Y-108920482D01*
X153884072Y-108796000D01*
X153884072Y-106596000D01*
X153871812Y-106471518D01*
X153835502Y-106351820D01*
X153776537Y-106241506D01*
X153697185Y-106144815D01*
X153600494Y-106065463D01*
X153490180Y-106006498D01*
X153370482Y-105970188D01*
X153246000Y-105957928D01*
X151046000Y-105957928D01*
X150921518Y-105970188D01*
X150801820Y-106006498D01*
X150691506Y-106065463D01*
X150594815Y-106144815D01*
X150515463Y-106241506D01*
X150456498Y-106351820D01*
X150420188Y-106471518D01*
X150407928Y-106596000D01*
X145024755Y-106596000D01*
X145156466Y-106398882D01*
X145298561Y-106055834D01*
X145371000Y-105691656D01*
X145371000Y-105320344D01*
X157849000Y-105320344D01*
X157849000Y-105691656D01*
X157921439Y-106055834D01*
X158063534Y-106398882D01*
X158269825Y-106707618D01*
X158532382Y-106970175D01*
X158841118Y-107176466D01*
X159184166Y-107318561D01*
X159548344Y-107391000D01*
X159919656Y-107391000D01*
X160283834Y-107318561D01*
X160626882Y-107176466D01*
X160935618Y-106970175D01*
X161198175Y-106707618D01*
X161404466Y-106398882D01*
X161546561Y-106055834D01*
X161619000Y-105691656D01*
X161619000Y-105320344D01*
X161546561Y-104956166D01*
X161404466Y-104613118D01*
X161198175Y-104304382D01*
X160935618Y-104041825D01*
X160626882Y-103835534D01*
X160283834Y-103693439D01*
X159919656Y-103621000D01*
X159548344Y-103621000D01*
X159184166Y-103693439D01*
X158841118Y-103835534D01*
X158532382Y-104041825D01*
X158269825Y-104304382D01*
X158063534Y-104613118D01*
X157921439Y-104956166D01*
X157849000Y-105320344D01*
X145371000Y-105320344D01*
X145298561Y-104956166D01*
X145156466Y-104613118D01*
X144950175Y-104304382D01*
X144687618Y-104041825D01*
X144378882Y-103835534D01*
X144035834Y-103693439D01*
X143671656Y-103621000D01*
X143300344Y-103621000D01*
X142936166Y-103693439D01*
X142593118Y-103835534D01*
X142284382Y-104041825D01*
X142021825Y-104304382D01*
X141815534Y-104613118D01*
X141673439Y-104956166D01*
X141601000Y-105320344D01*
X133171000Y-105320344D01*
X133098561Y-104956166D01*
X132956466Y-104613118D01*
X132750175Y-104304382D01*
X132487618Y-104041825D01*
X132178882Y-103835534D01*
X132175000Y-103833926D01*
X132175000Y-99894359D01*
X132235205Y-99804256D01*
X132313226Y-99615898D01*
X132353000Y-99415939D01*
X132353000Y-99212061D01*
X132313226Y-99012102D01*
X132235205Y-98823744D01*
X132121937Y-98654226D01*
X131977774Y-98510063D01*
X131808256Y-98396795D01*
X131619898Y-98318774D01*
X131419939Y-98279000D01*
X131216061Y-98279000D01*
X131016102Y-98318774D01*
X130827744Y-98396795D01*
X130658226Y-98510063D01*
X130514063Y-98654226D01*
X130400795Y-98823744D01*
X130322774Y-99012102D01*
X130283000Y-99212061D01*
X130283000Y-99415939D01*
X130322774Y-99615898D01*
X130397001Y-99795096D01*
X130397000Y-103833926D01*
X130393118Y-103835534D01*
X130084382Y-104041825D01*
X129821825Y-104304382D01*
X129615534Y-104613118D01*
X129473439Y-104956166D01*
X129401000Y-105320344D01*
X129401000Y-105691656D01*
X129473439Y-106055834D01*
X129475047Y-106059717D01*
X128727765Y-106807000D01*
X125436072Y-106807000D01*
X125436072Y-106596000D01*
X125423812Y-106471518D01*
X125387502Y-106351820D01*
X125328537Y-106241506D01*
X125249185Y-106144815D01*
X125152494Y-106065463D01*
X125042180Y-106006498D01*
X124922482Y-105970188D01*
X124798000Y-105957928D01*
X122598000Y-105957928D01*
X122473518Y-105970188D01*
X122353820Y-106006498D01*
X122243506Y-106065463D01*
X122146815Y-106144815D01*
X122067463Y-106241506D01*
X122008498Y-106351820D01*
X121972188Y-106471518D01*
X121959928Y-106596000D01*
X115122488Y-106596000D01*
X115165000Y-106382279D01*
X115165000Y-105961721D01*
X115082953Y-105549244D01*
X114922012Y-105160698D01*
X114688363Y-104811017D01*
X114390983Y-104513637D01*
X114041302Y-104279988D01*
X113652756Y-104119047D01*
X113240279Y-104037000D01*
X112819721Y-104037000D01*
X112407244Y-104119047D01*
X112018698Y-104279988D01*
X111669017Y-104513637D01*
X111371637Y-104811017D01*
X111137988Y-105160698D01*
X110977047Y-105549244D01*
X110895000Y-105961721D01*
X108610000Y-105961721D01*
X108610000Y-99592000D01*
X110891928Y-99592000D01*
X110891928Y-102592000D01*
X110904188Y-102716482D01*
X110940498Y-102836180D01*
X110999463Y-102946494D01*
X111078815Y-103043185D01*
X111175506Y-103122537D01*
X111285820Y-103181502D01*
X111405518Y-103217812D01*
X111530000Y-103230072D01*
X114530000Y-103230072D01*
X114654482Y-103217812D01*
X114774180Y-103181502D01*
X114884494Y-103122537D01*
X114981185Y-103043185D01*
X115060537Y-102946494D01*
X115119502Y-102836180D01*
X115155812Y-102716482D01*
X115168072Y-102592000D01*
X115168072Y-99592000D01*
X115155812Y-99467518D01*
X115119502Y-99347820D01*
X115060537Y-99237506D01*
X114981185Y-99140815D01*
X114884494Y-99061463D01*
X114774180Y-99002498D01*
X114654482Y-98966188D01*
X114530000Y-98953928D01*
X111530000Y-98953928D01*
X111405518Y-98966188D01*
X111285820Y-99002498D01*
X111175506Y-99061463D01*
X111078815Y-99140815D01*
X110999463Y-99237506D01*
X110940498Y-99347820D01*
X110904188Y-99467518D01*
X110891928Y-99592000D01*
X108610000Y-99592000D01*
X108610000Y-97509589D01*
X156893000Y-97509589D01*
X156893000Y-97782411D01*
X156946225Y-98049989D01*
X157050629Y-98302043D01*
X157202201Y-98528886D01*
X157395114Y-98721799D01*
X157621957Y-98873371D01*
X157874011Y-98977775D01*
X158141589Y-99031000D01*
X158414411Y-99031000D01*
X158681989Y-98977775D01*
X158934043Y-98873371D01*
X159160886Y-98721799D01*
X159353799Y-98528886D01*
X159413108Y-98440123D01*
X164426821Y-98440123D01*
X164536558Y-98762054D01*
X164706992Y-99056391D01*
X164931573Y-99311822D01*
X165201671Y-99518531D01*
X165506906Y-99668575D01*
X165719878Y-99733175D01*
X165989000Y-99615125D01*
X165989000Y-98171000D01*
X166243000Y-98171000D01*
X166243000Y-99615125D01*
X166512122Y-99733175D01*
X166725094Y-99668575D01*
X167030329Y-99518531D01*
X167300427Y-99311822D01*
X167525008Y-99056391D01*
X167695442Y-98762054D01*
X167805179Y-98440123D01*
X167687600Y-98171000D01*
X166243000Y-98171000D01*
X165989000Y-98171000D01*
X164544400Y-98171000D01*
X164426821Y-98440123D01*
X159413108Y-98440123D01*
X159505371Y-98302043D01*
X159609775Y-98049989D01*
X159663000Y-97782411D01*
X159663000Y-97647877D01*
X164426821Y-97647877D01*
X164544400Y-97917000D01*
X165989000Y-97917000D01*
X165989000Y-96472875D01*
X166243000Y-96472875D01*
X166243000Y-97917000D01*
X167687600Y-97917000D01*
X167805179Y-97647877D01*
X167695442Y-97325946D01*
X167525008Y-97031609D01*
X167300427Y-96776178D01*
X167030329Y-96569469D01*
X166725094Y-96419425D01*
X166512122Y-96354825D01*
X166243000Y-96472875D01*
X165989000Y-96472875D01*
X165719878Y-96354825D01*
X165506906Y-96419425D01*
X165201671Y-96569469D01*
X164931573Y-96776178D01*
X164706992Y-97031609D01*
X164536558Y-97325946D01*
X164426821Y-97647877D01*
X159663000Y-97647877D01*
X159663000Y-97509589D01*
X159609775Y-97242011D01*
X159505371Y-96989957D01*
X159353799Y-96763114D01*
X159160886Y-96570201D01*
X158934043Y-96418629D01*
X158681989Y-96314225D01*
X158414411Y-96261000D01*
X158141589Y-96261000D01*
X157874011Y-96314225D01*
X157621957Y-96418629D01*
X157395114Y-96570201D01*
X157202201Y-96763114D01*
X157050629Y-96989957D01*
X156946225Y-97242011D01*
X156893000Y-97509589D01*
X108610000Y-97509589D01*
X108610000Y-95979653D01*
X111717952Y-95979653D01*
X111873962Y-96295214D01*
X112248745Y-96486020D01*
X112653551Y-96600044D01*
X113072824Y-96632902D01*
X113490451Y-96583334D01*
X113890383Y-96453243D01*
X114186038Y-96295214D01*
X114342048Y-95979653D01*
X113030000Y-94667605D01*
X111717952Y-95979653D01*
X108610000Y-95979653D01*
X108610000Y-94530824D01*
X110885098Y-94530824D01*
X110934666Y-94948451D01*
X111064757Y-95348383D01*
X111222786Y-95644038D01*
X111538347Y-95800048D01*
X112850395Y-94488000D01*
X113209605Y-94488000D01*
X114521653Y-95800048D01*
X114837214Y-95644038D01*
X115028020Y-95269255D01*
X115142044Y-94864449D01*
X115174902Y-94445176D01*
X115125334Y-94027549D01*
X114995243Y-93627617D01*
X114837214Y-93331962D01*
X114521653Y-93175952D01*
X113209605Y-94488000D01*
X112850395Y-94488000D01*
X111538347Y-93175952D01*
X111222786Y-93331962D01*
X111031980Y-93706745D01*
X110917956Y-94111551D01*
X110885098Y-94530824D01*
X108610000Y-94530824D01*
X108610000Y-92996347D01*
X111717952Y-92996347D01*
X113030000Y-94308395D01*
X114342048Y-92996347D01*
X114186038Y-92680786D01*
X113811255Y-92489980D01*
X113406449Y-92375956D01*
X112987176Y-92343098D01*
X112569549Y-92392666D01*
X112169617Y-92522757D01*
X111873962Y-92680786D01*
X111717952Y-92996347D01*
X108610000Y-92996347D01*
X108610000Y-87908000D01*
X110891928Y-87908000D01*
X110891928Y-90908000D01*
X110904188Y-91032482D01*
X110940498Y-91152180D01*
X110999463Y-91262494D01*
X111078815Y-91359185D01*
X111175506Y-91438537D01*
X111285820Y-91497502D01*
X111405518Y-91533812D01*
X111530000Y-91546072D01*
X114530000Y-91546072D01*
X114654482Y-91533812D01*
X114734334Y-91509589D01*
X123293000Y-91509589D01*
X123293000Y-91782411D01*
X123346225Y-92049989D01*
X123450629Y-92302043D01*
X123602201Y-92528886D01*
X123795114Y-92721799D01*
X124021957Y-92873371D01*
X124274011Y-92977775D01*
X124541589Y-93031000D01*
X124814411Y-93031000D01*
X125081989Y-92977775D01*
X125334043Y-92873371D01*
X125560886Y-92721799D01*
X125753799Y-92528886D01*
X125905371Y-92302043D01*
X126009775Y-92049989D01*
X126063000Y-91782411D01*
X126063000Y-91509589D01*
X126009775Y-91242011D01*
X125905371Y-90989957D01*
X125753799Y-90763114D01*
X125560886Y-90570201D01*
X125334043Y-90418629D01*
X125081989Y-90314225D01*
X124814411Y-90261000D01*
X124541589Y-90261000D01*
X124274011Y-90314225D01*
X124021957Y-90418629D01*
X123795114Y-90570201D01*
X123602201Y-90763114D01*
X123450629Y-90989957D01*
X123346225Y-91242011D01*
X123293000Y-91509589D01*
X114734334Y-91509589D01*
X114774180Y-91497502D01*
X114884494Y-91438537D01*
X114981185Y-91359185D01*
X115060537Y-91262494D01*
X115119502Y-91152180D01*
X115155812Y-91032482D01*
X115168072Y-90908000D01*
X115168072Y-89324000D01*
X164377928Y-89324000D01*
X164377928Y-91524000D01*
X164390188Y-91648482D01*
X164426498Y-91768180D01*
X164485463Y-91878494D01*
X164564815Y-91975185D01*
X164661506Y-92054537D01*
X164771820Y-92113502D01*
X164891518Y-92149812D01*
X165016000Y-92162072D01*
X167216000Y-92162072D01*
X167340482Y-92149812D01*
X167460180Y-92113502D01*
X167570494Y-92054537D01*
X167667185Y-91975185D01*
X167746537Y-91878494D01*
X167805502Y-91768180D01*
X167841812Y-91648482D01*
X167854072Y-91524000D01*
X167854072Y-89324000D01*
X167841812Y-89199518D01*
X167805502Y-89079820D01*
X167746537Y-88969506D01*
X167667185Y-88872815D01*
X167570494Y-88793463D01*
X167460180Y-88734498D01*
X167340482Y-88698188D01*
X167216000Y-88685928D01*
X165016000Y-88685928D01*
X164891518Y-88698188D01*
X164771820Y-88734498D01*
X164661506Y-88793463D01*
X164564815Y-88872815D01*
X164485463Y-88969506D01*
X164426498Y-89079820D01*
X164390188Y-89199518D01*
X164377928Y-89324000D01*
X115168072Y-89324000D01*
X115168072Y-87908000D01*
X115155812Y-87783518D01*
X115119502Y-87663820D01*
X115060537Y-87553506D01*
X114981185Y-87456815D01*
X114884494Y-87377463D01*
X114774180Y-87318498D01*
X114654482Y-87282188D01*
X114530000Y-87269928D01*
X111530000Y-87269928D01*
X111405518Y-87282188D01*
X111285820Y-87318498D01*
X111175506Y-87377463D01*
X111078815Y-87456815D01*
X110999463Y-87553506D01*
X110940498Y-87663820D01*
X110904188Y-87783518D01*
X110891928Y-87908000D01*
X108610000Y-87908000D01*
X108610000Y-82593721D01*
X110895000Y-82593721D01*
X110895000Y-83014279D01*
X110977047Y-83426756D01*
X111137988Y-83815302D01*
X111371637Y-84164983D01*
X111669017Y-84462363D01*
X112018698Y-84696012D01*
X112407244Y-84856953D01*
X112819721Y-84939000D01*
X113240279Y-84939000D01*
X113456454Y-84896000D01*
X123289928Y-84896000D01*
X123289928Y-86396000D01*
X123302188Y-86520482D01*
X123338498Y-86640180D01*
X123397463Y-86750494D01*
X123476815Y-86847185D01*
X123573506Y-86926537D01*
X123683820Y-86985502D01*
X123803518Y-87021812D01*
X123928000Y-87034072D01*
X125428000Y-87034072D01*
X125552482Y-87021812D01*
X125672180Y-86985502D01*
X125782494Y-86926537D01*
X125879185Y-86847185D01*
X125958537Y-86750494D01*
X126017502Y-86640180D01*
X126053812Y-86520482D01*
X126066072Y-86396000D01*
X126066072Y-86218665D01*
X164681000Y-86218665D01*
X164681000Y-86501335D01*
X164736147Y-86778574D01*
X164844320Y-87039727D01*
X165001363Y-87274759D01*
X165201241Y-87474637D01*
X165436273Y-87631680D01*
X165697426Y-87739853D01*
X165974665Y-87795000D01*
X166257335Y-87795000D01*
X166534574Y-87739853D01*
X166795727Y-87631680D01*
X167030759Y-87474637D01*
X167230637Y-87274759D01*
X167332707Y-87122000D01*
X169888577Y-87122000D01*
X169926000Y-87125686D01*
X169963423Y-87122000D01*
X169963426Y-87122000D01*
X170075378Y-87110974D01*
X170219015Y-87067402D01*
X170351392Y-86996645D01*
X170467422Y-86901422D01*
X170491284Y-86872346D01*
X173232347Y-84131283D01*
X173261422Y-84107422D01*
X173321857Y-84033781D01*
X173356645Y-83991393D01*
X173427401Y-83859016D01*
X173427402Y-83859015D01*
X173470974Y-83715378D01*
X173482000Y-83603426D01*
X173482000Y-83603423D01*
X173485686Y-83566000D01*
X173482000Y-83528577D01*
X173482000Y-82802777D01*
X173543941Y-82835885D01*
X173762601Y-82902215D01*
X173990000Y-82924612D01*
X174217400Y-82902215D01*
X174436060Y-82835885D01*
X174637579Y-82728171D01*
X174814212Y-82583212D01*
X174959171Y-82406579D01*
X175066885Y-82205059D01*
X175133215Y-81986399D01*
X175150000Y-81815978D01*
X175150000Y-81252021D01*
X175133215Y-81081600D01*
X175066885Y-80862940D01*
X174959171Y-80661421D01*
X174814212Y-80484788D01*
X174637578Y-80339829D01*
X174436059Y-80232115D01*
X174217399Y-80165785D01*
X173990000Y-80143388D01*
X173762600Y-80165785D01*
X173543940Y-80232115D01*
X173355000Y-80333106D01*
X173166059Y-80232115D01*
X172947399Y-80165785D01*
X172720000Y-80143388D01*
X172492600Y-80165785D01*
X172283902Y-80229093D01*
X172219180Y-80194498D01*
X172099482Y-80158188D01*
X171975000Y-80145928D01*
X170925000Y-80145928D01*
X170800518Y-80158188D01*
X170680820Y-80194498D01*
X170570506Y-80253463D01*
X170473815Y-80332815D01*
X170394463Y-80429506D01*
X170335498Y-80539820D01*
X170299188Y-80659518D01*
X170286928Y-80784000D01*
X170286928Y-82284000D01*
X170299188Y-82408482D01*
X170335498Y-82528180D01*
X170394463Y-82638494D01*
X170473815Y-82735185D01*
X170570506Y-82814537D01*
X170680820Y-82873502D01*
X170800518Y-82909812D01*
X170925000Y-82922072D01*
X171958000Y-82922072D01*
X171958000Y-83250370D01*
X169610370Y-85598000D01*
X167332707Y-85598000D01*
X167230637Y-85445241D01*
X167030759Y-85245363D01*
X166795727Y-85088320D01*
X166534574Y-84980147D01*
X166257335Y-84925000D01*
X165974665Y-84925000D01*
X165697426Y-84980147D01*
X165436273Y-85088320D01*
X165201241Y-85245363D01*
X165001363Y-85445241D01*
X164844320Y-85680273D01*
X164736147Y-85941426D01*
X164681000Y-86218665D01*
X126066072Y-86218665D01*
X126066072Y-84896000D01*
X126053812Y-84771518D01*
X126017502Y-84651820D01*
X125958537Y-84541506D01*
X125879185Y-84444815D01*
X125782494Y-84365463D01*
X125672180Y-84306498D01*
X125552482Y-84270188D01*
X125428000Y-84257928D01*
X123928000Y-84257928D01*
X123803518Y-84270188D01*
X123683820Y-84306498D01*
X123573506Y-84365463D01*
X123476815Y-84444815D01*
X123397463Y-84541506D01*
X123338498Y-84651820D01*
X123302188Y-84771518D01*
X123289928Y-84896000D01*
X113456454Y-84896000D01*
X113652756Y-84856953D01*
X114041302Y-84696012D01*
X114390983Y-84462363D01*
X114688363Y-84164983D01*
X114922012Y-83815302D01*
X115082953Y-83426756D01*
X115165000Y-83014279D01*
X115165000Y-82593721D01*
X115082953Y-82181244D01*
X114922012Y-81792698D01*
X114688363Y-81443017D01*
X114390983Y-81145637D01*
X114041302Y-80911988D01*
X113652756Y-80751047D01*
X113240279Y-80669000D01*
X112819721Y-80669000D01*
X112407244Y-80751047D01*
X112018698Y-80911988D01*
X111669017Y-81145637D01*
X111371637Y-81443017D01*
X111137988Y-81792698D01*
X110977047Y-82181244D01*
X110895000Y-82593721D01*
X108610000Y-82593721D01*
X108610000Y-80602993D01*
X157500612Y-80602993D01*
X157566137Y-80841860D01*
X157813116Y-80957760D01*
X158077960Y-81023250D01*
X158350492Y-81035812D01*
X158620238Y-80994965D01*
X158876832Y-80902277D01*
X158989863Y-80841860D01*
X159055388Y-80602993D01*
X158278000Y-79825605D01*
X157500612Y-80602993D01*
X108610000Y-80602993D01*
X108610000Y-76224000D01*
X110891928Y-76224000D01*
X110891928Y-79224000D01*
X110904188Y-79348482D01*
X110940498Y-79468180D01*
X110999463Y-79578494D01*
X111078815Y-79675185D01*
X111175506Y-79754537D01*
X111285820Y-79813502D01*
X111405518Y-79849812D01*
X111530000Y-79862072D01*
X114530000Y-79862072D01*
X114654482Y-79849812D01*
X114774180Y-79813502D01*
X114884494Y-79754537D01*
X114928415Y-79718492D01*
X156888188Y-79718492D01*
X156929035Y-79988238D01*
X157021723Y-80244832D01*
X157082140Y-80357863D01*
X157321007Y-80423388D01*
X158098395Y-79646000D01*
X158457605Y-79646000D01*
X159234993Y-80423388D01*
X159473860Y-80357863D01*
X159589760Y-80110884D01*
X159655250Y-79846040D01*
X159667812Y-79573508D01*
X159626965Y-79303762D01*
X159534277Y-79047168D01*
X159473860Y-78934137D01*
X159234993Y-78868612D01*
X158457605Y-79646000D01*
X158098395Y-79646000D01*
X157321007Y-78868612D01*
X157082140Y-78934137D01*
X156966240Y-79181116D01*
X156900750Y-79445960D01*
X156888188Y-79718492D01*
X114928415Y-79718492D01*
X114981185Y-79675185D01*
X115060537Y-79578494D01*
X115119502Y-79468180D01*
X115155812Y-79348482D01*
X115168072Y-79224000D01*
X115168072Y-78689007D01*
X157500612Y-78689007D01*
X158278000Y-79466395D01*
X159055388Y-78689007D01*
X159030606Y-78598665D01*
X164681000Y-78598665D01*
X164681000Y-78881335D01*
X164736147Y-79158574D01*
X164844320Y-79419727D01*
X165001363Y-79654759D01*
X165201241Y-79854637D01*
X165436273Y-80011680D01*
X165697426Y-80119853D01*
X165974665Y-80175000D01*
X166257335Y-80175000D01*
X166534574Y-80119853D01*
X166795727Y-80011680D01*
X167030759Y-79854637D01*
X167096694Y-79788702D01*
X181050903Y-79788702D01*
X181122486Y-80032671D01*
X181377996Y-80153571D01*
X181652184Y-80222300D01*
X181934512Y-80236217D01*
X182214130Y-80194787D01*
X182480292Y-80099603D01*
X182605514Y-80032671D01*
X182677097Y-79788702D01*
X191718903Y-79788702D01*
X191790486Y-80032671D01*
X192045996Y-80153571D01*
X192320184Y-80222300D01*
X192602512Y-80236217D01*
X192882130Y-80194787D01*
X193148292Y-80099603D01*
X193273514Y-80032671D01*
X193345097Y-79788702D01*
X192532000Y-78975605D01*
X191718903Y-79788702D01*
X182677097Y-79788702D01*
X181864000Y-78975605D01*
X181050903Y-79788702D01*
X167096694Y-79788702D01*
X167230637Y-79654759D01*
X167387680Y-79419727D01*
X167495853Y-79158574D01*
X167551000Y-78881335D01*
X167551000Y-78866512D01*
X180423783Y-78866512D01*
X180465213Y-79146130D01*
X180560397Y-79412292D01*
X180627329Y-79537514D01*
X180871298Y-79609097D01*
X181684395Y-78796000D01*
X182043605Y-78796000D01*
X182856702Y-79609097D01*
X183100671Y-79537514D01*
X183221571Y-79282004D01*
X183290300Y-79007816D01*
X183297265Y-78866512D01*
X191091783Y-78866512D01*
X191133213Y-79146130D01*
X191228397Y-79412292D01*
X191295329Y-79537514D01*
X191539298Y-79609097D01*
X192352395Y-78796000D01*
X192711605Y-78796000D01*
X193524702Y-79609097D01*
X193768671Y-79537514D01*
X193889571Y-79282004D01*
X193958300Y-79007816D01*
X193972217Y-78725488D01*
X193930787Y-78445870D01*
X193835603Y-78179708D01*
X193768671Y-78054486D01*
X193524702Y-77982903D01*
X192711605Y-78796000D01*
X192352395Y-78796000D01*
X191539298Y-77982903D01*
X191295329Y-78054486D01*
X191174429Y-78309996D01*
X191105700Y-78584184D01*
X191091783Y-78866512D01*
X183297265Y-78866512D01*
X183304217Y-78725488D01*
X183262787Y-78445870D01*
X183167603Y-78179708D01*
X183100671Y-78054486D01*
X182856702Y-77982903D01*
X182043605Y-78796000D01*
X181684395Y-78796000D01*
X180871298Y-77982903D01*
X180627329Y-78054486D01*
X180506429Y-78309996D01*
X180437700Y-78584184D01*
X180423783Y-78866512D01*
X167551000Y-78866512D01*
X167551000Y-78598665D01*
X167495853Y-78321426D01*
X167387680Y-78060273D01*
X167230637Y-77825241D01*
X167208694Y-77803298D01*
X181050903Y-77803298D01*
X181864000Y-78616395D01*
X182677097Y-77803298D01*
X191718903Y-77803298D01*
X192532000Y-78616395D01*
X193345097Y-77803298D01*
X193273514Y-77559329D01*
X193018004Y-77438429D01*
X192743816Y-77369700D01*
X192461488Y-77355783D01*
X192181870Y-77397213D01*
X191915708Y-77492397D01*
X191790486Y-77559329D01*
X191718903Y-77803298D01*
X182677097Y-77803298D01*
X182605514Y-77559329D01*
X182350004Y-77438429D01*
X182075816Y-77369700D01*
X181793488Y-77355783D01*
X181513870Y-77397213D01*
X181247708Y-77492397D01*
X181122486Y-77559329D01*
X181050903Y-77803298D01*
X167208694Y-77803298D01*
X167030759Y-77625363D01*
X166795727Y-77468320D01*
X166534574Y-77360147D01*
X166257335Y-77305000D01*
X165974665Y-77305000D01*
X165697426Y-77360147D01*
X165436273Y-77468320D01*
X165201241Y-77625363D01*
X165001363Y-77825241D01*
X164844320Y-78060273D01*
X164736147Y-78321426D01*
X164681000Y-78598665D01*
X159030606Y-78598665D01*
X158989863Y-78450140D01*
X158742884Y-78334240D01*
X158478040Y-78268750D01*
X158205508Y-78256188D01*
X157935762Y-78297035D01*
X157679168Y-78389723D01*
X157566137Y-78450140D01*
X157500612Y-78689007D01*
X115168072Y-78689007D01*
X115168072Y-76224000D01*
X115155812Y-76099518D01*
X115119502Y-75979820D01*
X115060537Y-75869506D01*
X114981185Y-75772815D01*
X114884494Y-75693463D01*
X114774180Y-75634498D01*
X114654482Y-75598188D01*
X114530000Y-75585928D01*
X111530000Y-75585928D01*
X111405518Y-75598188D01*
X111285820Y-75634498D01*
X111175506Y-75693463D01*
X111078815Y-75772815D01*
X110999463Y-75869506D01*
X110940498Y-75979820D01*
X110904188Y-76099518D01*
X110891928Y-76224000D01*
X108610000Y-76224000D01*
X108610000Y-73787000D01*
X110108597Y-73787000D01*
X110275021Y-73898201D01*
G37*
%TD.AperFunction*%
%TD*%
M02*
