%TF.GenerationSoftware,KiCad,Pcbnew,(5.1.10)-1*%
%TF.CreationDate,2021-12-18T16:47:07+01:00*%
%TF.ProjectId,Sonoff,536f6e6f-6666-42e6-9b69-6361645f7063,rev?*%
%TF.SameCoordinates,Original*%
%TF.FileFunction,Legend,Top*%
%TF.FilePolarity,Positive*%
%FSLAX46Y46*%
G04 Gerber Fmt 4.6, Leading zero omitted, Abs format (unit mm)*
G04 Created by KiCad (PCBNEW (5.1.10)-1) date 2021-12-18 16:47:07*
%MOMM*%
%LPD*%
G01*
G04 APERTURE LIST*
%ADD10C,0.300000*%
%ADD11C,0.120000*%
%ADD12C,0.150000*%
%ADD13C,0.010000*%
%ADD14C,0.200000*%
%ADD15C,0.127000*%
%ADD16C,0.152400*%
%ADD17C,0.254000*%
G04 APERTURE END LIST*
D10*
X128049523Y-86504761D02*
X128049523Y-84504761D01*
X128525714Y-84504761D01*
X128811428Y-84600000D01*
X129001904Y-84790476D01*
X129097142Y-84980952D01*
X129192380Y-85361904D01*
X129192380Y-85647619D01*
X129097142Y-86028571D01*
X129001904Y-86219047D01*
X128811428Y-86409523D01*
X128525714Y-86504761D01*
X128049523Y-86504761D01*
X130049523Y-86504761D02*
X130049523Y-84504761D01*
X131382857Y-85552380D02*
X131382857Y-86504761D01*
X130716190Y-84504761D02*
X131382857Y-85552380D01*
X132049523Y-84504761D01*
X134240000Y-85457142D02*
X134906666Y-85457142D01*
X135192380Y-86504761D02*
X134240000Y-86504761D01*
X134240000Y-84504761D01*
X135192380Y-84504761D01*
X135954285Y-86409523D02*
X136240000Y-86504761D01*
X136716190Y-86504761D01*
X136906666Y-86409523D01*
X137001904Y-86314285D01*
X137097142Y-86123809D01*
X137097142Y-85933333D01*
X137001904Y-85742857D01*
X136906666Y-85647619D01*
X136716190Y-85552380D01*
X136335238Y-85457142D01*
X136144761Y-85361904D01*
X136049523Y-85266666D01*
X135954285Y-85076190D01*
X135954285Y-84885714D01*
X136049523Y-84695238D01*
X136144761Y-84600000D01*
X136335238Y-84504761D01*
X136811428Y-84504761D01*
X137097142Y-84600000D01*
X137954285Y-86504761D02*
X137954285Y-84504761D01*
X138716190Y-84504761D01*
X138906666Y-84600000D01*
X139001904Y-84695238D01*
X139097142Y-84885714D01*
X139097142Y-85171428D01*
X139001904Y-85361904D01*
X138906666Y-85457142D01*
X138716190Y-85552380D01*
X137954285Y-85552380D01*
X139954285Y-85742857D02*
X141478095Y-85742857D01*
X142811428Y-84504761D02*
X143001904Y-84504761D01*
X143192380Y-84600000D01*
X143287619Y-84695238D01*
X143382857Y-84885714D01*
X143478095Y-85266666D01*
X143478095Y-85742857D01*
X143382857Y-86123809D01*
X143287619Y-86314285D01*
X143192380Y-86409523D01*
X143001904Y-86504761D01*
X142811428Y-86504761D01*
X142620952Y-86409523D01*
X142525714Y-86314285D01*
X142430476Y-86123809D01*
X142335238Y-85742857D01*
X142335238Y-85266666D01*
X142430476Y-84885714D01*
X142525714Y-84695238D01*
X142620952Y-84600000D01*
X142811428Y-84504761D01*
X145382857Y-86504761D02*
X144240000Y-86504761D01*
X144811428Y-86504761D02*
X144811428Y-84504761D01*
X144620952Y-84790476D01*
X144430476Y-84980952D01*
X144240000Y-85076190D01*
X147668571Y-86409523D02*
X147954285Y-86504761D01*
X148430476Y-86504761D01*
X148620952Y-86409523D01*
X148716190Y-86314285D01*
X148811428Y-86123809D01*
X148811428Y-85933333D01*
X148716190Y-85742857D01*
X148620952Y-85647619D01*
X148430476Y-85552380D01*
X148049523Y-85457142D01*
X147859047Y-85361904D01*
X147763809Y-85266666D01*
X147668571Y-85076190D01*
X147668571Y-84885714D01*
X147763809Y-84695238D01*
X147859047Y-84600000D01*
X148049523Y-84504761D01*
X148525714Y-84504761D01*
X148811428Y-84600000D01*
X149954285Y-86504761D02*
X149763809Y-86409523D01*
X149668571Y-86314285D01*
X149573333Y-86123809D01*
X149573333Y-85552380D01*
X149668571Y-85361904D01*
X149763809Y-85266666D01*
X149954285Y-85171428D01*
X150240000Y-85171428D01*
X150430476Y-85266666D01*
X150525714Y-85361904D01*
X150620952Y-85552380D01*
X150620952Y-86123809D01*
X150525714Y-86314285D01*
X150430476Y-86409523D01*
X150240000Y-86504761D01*
X149954285Y-86504761D01*
X151478095Y-85171428D02*
X151478095Y-86504761D01*
X151478095Y-85361904D02*
X151573333Y-85266666D01*
X151763809Y-85171428D01*
X152049523Y-85171428D01*
X152240000Y-85266666D01*
X152335238Y-85457142D01*
X152335238Y-86504761D01*
X153573333Y-86504761D02*
X153382857Y-86409523D01*
X153287619Y-86314285D01*
X153192380Y-86123809D01*
X153192380Y-85552380D01*
X153287619Y-85361904D01*
X153382857Y-85266666D01*
X153573333Y-85171428D01*
X153859047Y-85171428D01*
X154049523Y-85266666D01*
X154144761Y-85361904D01*
X154240000Y-85552380D01*
X154240000Y-86123809D01*
X154144761Y-86314285D01*
X154049523Y-86409523D01*
X153859047Y-86504761D01*
X153573333Y-86504761D01*
X154811428Y-85171428D02*
X155573333Y-85171428D01*
X155097142Y-86504761D02*
X155097142Y-84790476D01*
X155192380Y-84600000D01*
X155382857Y-84504761D01*
X155573333Y-84504761D01*
X155954285Y-85171428D02*
X156716190Y-85171428D01*
X156240000Y-86504761D02*
X156240000Y-84790476D01*
X156335238Y-84600000D01*
X156525714Y-84504761D01*
X156716190Y-84504761D01*
X130192380Y-88757142D02*
X130478095Y-88852380D01*
X130573333Y-88947619D01*
X130668571Y-89138095D01*
X130668571Y-89423809D01*
X130573333Y-89614285D01*
X130478095Y-89709523D01*
X130287619Y-89804761D01*
X129525714Y-89804761D01*
X129525714Y-87804761D01*
X130192380Y-87804761D01*
X130382857Y-87900000D01*
X130478095Y-87995238D01*
X130573333Y-88185714D01*
X130573333Y-88376190D01*
X130478095Y-88566666D01*
X130382857Y-88661904D01*
X130192380Y-88757142D01*
X129525714Y-88757142D01*
X131335238Y-88471428D02*
X131811428Y-89804761D01*
X132287619Y-88471428D02*
X131811428Y-89804761D01*
X131620952Y-90280952D01*
X131525714Y-90376190D01*
X131335238Y-90471428D01*
X134573333Y-89804761D02*
X134573333Y-87804761D01*
X135049523Y-87804761D01*
X135335238Y-87900000D01*
X135525714Y-88090476D01*
X135620952Y-88280952D01*
X135716190Y-88661904D01*
X135716190Y-88947619D01*
X135620952Y-89328571D01*
X135525714Y-89519047D01*
X135335238Y-89709523D01*
X135049523Y-89804761D01*
X134573333Y-89804761D01*
X137430476Y-89804761D02*
X137430476Y-88757142D01*
X137335238Y-88566666D01*
X137144761Y-88471428D01*
X136763809Y-88471428D01*
X136573333Y-88566666D01*
X137430476Y-89709523D02*
X137240000Y-89804761D01*
X136763809Y-89804761D01*
X136573333Y-89709523D01*
X136478095Y-89519047D01*
X136478095Y-89328571D01*
X136573333Y-89138095D01*
X136763809Y-89042857D01*
X137240000Y-89042857D01*
X137430476Y-88947619D01*
X138192380Y-88471428D02*
X138668571Y-89804761D01*
X139144761Y-88471428D01*
X139906666Y-89804761D02*
X139906666Y-88471428D01*
X139906666Y-87804761D02*
X139811428Y-87900000D01*
X139906666Y-87995238D01*
X140001904Y-87900000D01*
X139906666Y-87804761D01*
X139906666Y-87995238D01*
X141716190Y-89804761D02*
X141716190Y-87804761D01*
X141716190Y-89709523D02*
X141525714Y-89804761D01*
X141144761Y-89804761D01*
X140954285Y-89709523D01*
X140859047Y-89614285D01*
X140763809Y-89423809D01*
X140763809Y-88852380D01*
X140859047Y-88661904D01*
X140954285Y-88566666D01*
X141144761Y-88471428D01*
X141525714Y-88471428D01*
X141716190Y-88566666D01*
X143430476Y-89709523D02*
X143240000Y-89804761D01*
X142859047Y-89804761D01*
X142668571Y-89709523D01*
X142573333Y-89519047D01*
X142573333Y-88757142D01*
X142668571Y-88566666D01*
X142859047Y-88471428D01*
X143240000Y-88471428D01*
X143430476Y-88566666D01*
X143525714Y-88757142D01*
X143525714Y-88947619D01*
X142573333Y-89138095D01*
X145811428Y-89709523D02*
X146097142Y-89804761D01*
X146573333Y-89804761D01*
X146763809Y-89709523D01*
X146859047Y-89614285D01*
X146954285Y-89423809D01*
X146954285Y-89233333D01*
X146859047Y-89042857D01*
X146763809Y-88947619D01*
X146573333Y-88852380D01*
X146192380Y-88757142D01*
X146001904Y-88661904D01*
X145906666Y-88566666D01*
X145811428Y-88376190D01*
X145811428Y-88185714D01*
X145906666Y-87995238D01*
X146001904Y-87900000D01*
X146192380Y-87804761D01*
X146668571Y-87804761D01*
X146954285Y-87900000D01*
X148668571Y-89709523D02*
X148478095Y-89804761D01*
X148097142Y-89804761D01*
X147906666Y-89709523D01*
X147811428Y-89614285D01*
X147716190Y-89423809D01*
X147716190Y-88852380D01*
X147811428Y-88661904D01*
X147906666Y-88566666D01*
X148097142Y-88471428D01*
X148478095Y-88471428D01*
X148668571Y-88566666D01*
X150382857Y-89804761D02*
X150382857Y-88757142D01*
X150287619Y-88566666D01*
X150097142Y-88471428D01*
X149716190Y-88471428D01*
X149525714Y-88566666D01*
X150382857Y-89709523D02*
X150192380Y-89804761D01*
X149716190Y-89804761D01*
X149525714Y-89709523D01*
X149430476Y-89519047D01*
X149430476Y-89328571D01*
X149525714Y-89138095D01*
X149716190Y-89042857D01*
X150192380Y-89042857D01*
X150382857Y-88947619D01*
X151620952Y-89804761D02*
X151430476Y-89709523D01*
X151335238Y-89519047D01*
X151335238Y-87804761D01*
X152382857Y-89804761D02*
X152382857Y-88471428D01*
X152382857Y-87804761D02*
X152287619Y-87900000D01*
X152382857Y-87995238D01*
X152478095Y-87900000D01*
X152382857Y-87804761D01*
X152382857Y-87995238D01*
X153240000Y-89709523D02*
X153430476Y-89804761D01*
X153811428Y-89804761D01*
X154001904Y-89709523D01*
X154097142Y-89519047D01*
X154097142Y-89423809D01*
X154001904Y-89233333D01*
X153811428Y-89138095D01*
X153525714Y-89138095D01*
X153335238Y-89042857D01*
X153240000Y-88852380D01*
X153240000Y-88757142D01*
X153335238Y-88566666D01*
X153525714Y-88471428D01*
X153811428Y-88471428D01*
X154001904Y-88566666D01*
X154954285Y-89804761D02*
X154954285Y-88471428D01*
X154954285Y-87804761D02*
X154859047Y-87900000D01*
X154954285Y-87995238D01*
X155049523Y-87900000D01*
X154954285Y-87804761D01*
X154954285Y-87995238D01*
X137620952Y-93104761D02*
X136954285Y-92152380D01*
X136478095Y-93104761D02*
X136478095Y-91104761D01*
X137240000Y-91104761D01*
X137430476Y-91200000D01*
X137525714Y-91295238D01*
X137620952Y-91485714D01*
X137620952Y-91771428D01*
X137525714Y-91961904D01*
X137430476Y-92057142D01*
X137240000Y-92152380D01*
X136478095Y-92152380D01*
X139240000Y-93009523D02*
X139049523Y-93104761D01*
X138668571Y-93104761D01*
X138478095Y-93009523D01*
X138382857Y-92819047D01*
X138382857Y-92057142D01*
X138478095Y-91866666D01*
X138668571Y-91771428D01*
X139049523Y-91771428D01*
X139240000Y-91866666D01*
X139335238Y-92057142D01*
X139335238Y-92247619D01*
X138382857Y-92438095D01*
X140001904Y-91771428D02*
X140478095Y-93104761D01*
X140954285Y-91771428D01*
X141716190Y-92914285D02*
X141811428Y-93009523D01*
X141716190Y-93104761D01*
X141620952Y-93009523D01*
X141716190Y-92914285D01*
X141716190Y-93104761D01*
X145240000Y-93104761D02*
X144097142Y-93104761D01*
X144668571Y-93104761D02*
X144668571Y-91104761D01*
X144478095Y-91390476D01*
X144287619Y-91580952D01*
X144097142Y-91676190D01*
X146097142Y-92914285D02*
X146192380Y-93009523D01*
X146097142Y-93104761D01*
X146001904Y-93009523D01*
X146097142Y-92914285D01*
X146097142Y-93104761D01*
X147430476Y-91104761D02*
X147620952Y-91104761D01*
X147811428Y-91200000D01*
X147906666Y-91295238D01*
X148001904Y-91485714D01*
X148097142Y-91866666D01*
X148097142Y-92342857D01*
X148001904Y-92723809D01*
X147906666Y-92914285D01*
X147811428Y-93009523D01*
X147620952Y-93104761D01*
X147430476Y-93104761D01*
X147240000Y-93009523D01*
X147144761Y-92914285D01*
X147049523Y-92723809D01*
X146954285Y-92342857D01*
X146954285Y-91866666D01*
X147049523Y-91485714D01*
X147144761Y-91295238D01*
X147240000Y-91200000D01*
X147430476Y-91104761D01*
D11*
X179300333Y-124110000D02*
X179233666Y-124076666D01*
X179133666Y-124076666D01*
X179033666Y-124110000D01*
X178967000Y-124176666D01*
X178933666Y-124243333D01*
X178900333Y-124376666D01*
X178900333Y-124476666D01*
X178933666Y-124610000D01*
X178967000Y-124676666D01*
X179033666Y-124743333D01*
X179133666Y-124776666D01*
X179200333Y-124776666D01*
X179300333Y-124743333D01*
X179333666Y-124710000D01*
X179333666Y-124476666D01*
X179200333Y-124476666D01*
X179633666Y-124776666D02*
X179633666Y-124076666D01*
X180033666Y-124776666D01*
X180033666Y-124076666D01*
X180367000Y-124776666D02*
X180367000Y-124076666D01*
X180533666Y-124076666D01*
X180633666Y-124110000D01*
X180700333Y-124176666D01*
X180733666Y-124243333D01*
X180767000Y-124376666D01*
X180767000Y-124476666D01*
X180733666Y-124610000D01*
X180700333Y-124676666D01*
X180633666Y-124743333D01*
X180533666Y-124776666D01*
X180367000Y-124776666D01*
X181600333Y-124776666D02*
X181600333Y-124076666D01*
X182000333Y-124776666D01*
X182000333Y-124076666D01*
X182733666Y-124710000D02*
X182700333Y-124743333D01*
X182600333Y-124776666D01*
X182533666Y-124776666D01*
X182433666Y-124743333D01*
X182367000Y-124676666D01*
X182333666Y-124610000D01*
X182300333Y-124476666D01*
X182300333Y-124376666D01*
X182333666Y-124243333D01*
X182367000Y-124176666D01*
X182433666Y-124110000D01*
X182533666Y-124076666D01*
X182600333Y-124076666D01*
X182700333Y-124110000D01*
X182733666Y-124143333D01*
X183567000Y-124510000D02*
X184100333Y-124510000D01*
X183833666Y-124776666D02*
X183833666Y-124243333D01*
X184367000Y-124076666D02*
X184800333Y-124076666D01*
X184567000Y-124343333D01*
X184667000Y-124343333D01*
X184733666Y-124376666D01*
X184767000Y-124410000D01*
X184800333Y-124476666D01*
X184800333Y-124643333D01*
X184767000Y-124710000D01*
X184733666Y-124743333D01*
X184667000Y-124776666D01*
X184467000Y-124776666D01*
X184400333Y-124743333D01*
X184367000Y-124710000D01*
X185000333Y-124076666D02*
X185233666Y-124776666D01*
X185467000Y-124076666D01*
X185633666Y-124076666D02*
X186067000Y-124076666D01*
X185833666Y-124343333D01*
X185933666Y-124343333D01*
X186000333Y-124376666D01*
X186033666Y-124410000D01*
X186067000Y-124476666D01*
X186067000Y-124643333D01*
X186033666Y-124710000D01*
X186000333Y-124743333D01*
X185933666Y-124776666D01*
X185733666Y-124776666D01*
X185667000Y-124743333D01*
X185633666Y-124710000D01*
X186800333Y-124076666D02*
X187200333Y-124076666D01*
X187000333Y-124776666D02*
X187000333Y-124076666D01*
X187367000Y-124076666D02*
X187833666Y-124776666D01*
X187833666Y-124076666D02*
X187367000Y-124776666D01*
X189567000Y-124776666D02*
X189333666Y-124443333D01*
X189167000Y-124776666D02*
X189167000Y-124076666D01*
X189433666Y-124076666D01*
X189500333Y-124110000D01*
X189533666Y-124143333D01*
X189567000Y-124210000D01*
X189567000Y-124310000D01*
X189533666Y-124376666D01*
X189500333Y-124410000D01*
X189433666Y-124443333D01*
X189167000Y-124443333D01*
X189800333Y-124076666D02*
X190267000Y-124776666D01*
X190267000Y-124076666D02*
X189800333Y-124776666D01*
X191600333Y-124776666D02*
X191600333Y-124076666D01*
X192000333Y-124776666D01*
X192000333Y-124076666D01*
X192733666Y-124710000D02*
X192700333Y-124743333D01*
X192600333Y-124776666D01*
X192533666Y-124776666D01*
X192433666Y-124743333D01*
X192367000Y-124676666D01*
X192333666Y-124610000D01*
X192300333Y-124476666D01*
X192300333Y-124376666D01*
X192333666Y-124243333D01*
X192367000Y-124176666D01*
X192433666Y-124110000D01*
X192533666Y-124076666D01*
X192600333Y-124076666D01*
X192700333Y-124110000D01*
X192733666Y-124143333D01*
D12*
X118816380Y-128936000D02*
X117816380Y-128936000D01*
X118816380Y-128459809D02*
X117816380Y-128459809D01*
X118816380Y-127888380D01*
X117816380Y-127888380D01*
X117816380Y-124174095D02*
X117816380Y-123983619D01*
X117864000Y-123888380D01*
X117959238Y-123793142D01*
X118149714Y-123745523D01*
X118483047Y-123745523D01*
X118673523Y-123793142D01*
X118768761Y-123888380D01*
X118816380Y-123983619D01*
X118816380Y-124174095D01*
X118768761Y-124269333D01*
X118673523Y-124364571D01*
X118483047Y-124412190D01*
X118149714Y-124412190D01*
X117959238Y-124364571D01*
X117864000Y-124269333D01*
X117816380Y-124174095D01*
X118816380Y-123316952D02*
X117816380Y-123316952D01*
X118816380Y-122745523D01*
X117816380Y-122745523D01*
X117816380Y-119031238D02*
X117816380Y-118840761D01*
X117864000Y-118745523D01*
X117959238Y-118650285D01*
X118149714Y-118602666D01*
X118483047Y-118602666D01*
X118673523Y-118650285D01*
X118768761Y-118745523D01*
X118816380Y-118840761D01*
X118816380Y-119031238D01*
X118768761Y-119126476D01*
X118673523Y-119221714D01*
X118483047Y-119269333D01*
X118149714Y-119269333D01*
X117959238Y-119221714D01*
X117864000Y-119126476D01*
X117816380Y-119031238D01*
X118292571Y-117840761D02*
X118292571Y-118174095D01*
X118816380Y-118174095D02*
X117816380Y-118174095D01*
X117816380Y-117697904D01*
X118292571Y-116983619D02*
X118292571Y-117316952D01*
X118816380Y-117316952D02*
X117816380Y-117316952D01*
X117816380Y-116840761D01*
X118816380Y-112172000D02*
X117816380Y-112172000D01*
X118816380Y-111695809D02*
X117816380Y-111695809D01*
X118816380Y-111124380D01*
X117816380Y-111124380D01*
X117816380Y-107410095D02*
X117816380Y-107219619D01*
X117864000Y-107124380D01*
X117959238Y-107029142D01*
X118149714Y-106981523D01*
X118483047Y-106981523D01*
X118673523Y-107029142D01*
X118768761Y-107124380D01*
X118816380Y-107219619D01*
X118816380Y-107410095D01*
X118768761Y-107505333D01*
X118673523Y-107600571D01*
X118483047Y-107648190D01*
X118149714Y-107648190D01*
X117959238Y-107600571D01*
X117864000Y-107505333D01*
X117816380Y-107410095D01*
X118816380Y-106552952D02*
X117816380Y-106552952D01*
X118816380Y-105981523D01*
X117816380Y-105981523D01*
X117816380Y-102267238D02*
X117816380Y-102076761D01*
X117864000Y-101981523D01*
X117959238Y-101886285D01*
X118149714Y-101838666D01*
X118483047Y-101838666D01*
X118673523Y-101886285D01*
X118768761Y-101981523D01*
X118816380Y-102076761D01*
X118816380Y-102267238D01*
X118768761Y-102362476D01*
X118673523Y-102457714D01*
X118483047Y-102505333D01*
X118149714Y-102505333D01*
X117959238Y-102457714D01*
X117864000Y-102362476D01*
X117816380Y-102267238D01*
X118292571Y-101076761D02*
X118292571Y-101410095D01*
X118816380Y-101410095D02*
X117816380Y-101410095D01*
X117816380Y-100933904D01*
X118292571Y-100219619D02*
X118292571Y-100552952D01*
X118816380Y-100552952D02*
X117816380Y-100552952D01*
X117816380Y-100076761D01*
X118471142Y-95416285D02*
X118471142Y-94273428D01*
X118471142Y-90130571D02*
X118471142Y-88987714D01*
X119042571Y-89559142D02*
X117899714Y-89559142D01*
D13*
%TO.C,G\u002A\u002A\u002A*%
G36*
X153090837Y-122506448D02*
G01*
X153132703Y-122533589D01*
X153170177Y-122570222D01*
X153198974Y-122611969D01*
X153204082Y-122622183D01*
X153219190Y-122654873D01*
X153221061Y-123405147D01*
X153222932Y-124155422D01*
X153249574Y-124132260D01*
X153262496Y-124120906D01*
X153283947Y-124101918D01*
X153312031Y-124076981D01*
X153344853Y-124047780D01*
X153380516Y-124016000D01*
X153398020Y-124000383D01*
X153619042Y-123809329D01*
X153840416Y-123630608D01*
X154064224Y-123462677D01*
X154292548Y-123303994D01*
X154527469Y-123153017D01*
X154608868Y-123103376D01*
X154689578Y-123055202D01*
X154759870Y-123014219D01*
X154820957Y-122979866D01*
X154874057Y-122951576D01*
X154920383Y-122928788D01*
X154961152Y-122910936D01*
X154997580Y-122897457D01*
X155030881Y-122887788D01*
X155062272Y-122881363D01*
X155092967Y-122877621D01*
X155096114Y-122877367D01*
X155164703Y-122877594D01*
X155225846Y-122889288D01*
X155279184Y-122912264D01*
X155324357Y-122946337D01*
X155361003Y-122991324D01*
X155377649Y-123021179D01*
X155388008Y-123044012D01*
X155394809Y-123063968D01*
X155398974Y-123085486D01*
X155401423Y-123113005D01*
X155402762Y-123142254D01*
X155403114Y-123182454D01*
X155400429Y-123218656D01*
X155393916Y-123253745D01*
X155382783Y-123290601D01*
X155366241Y-123332109D01*
X155343498Y-123381152D01*
X155329426Y-123409657D01*
X155262014Y-123537462D01*
X155183882Y-123673122D01*
X155095438Y-123816028D01*
X154997090Y-123965568D01*
X154889247Y-124121134D01*
X154772317Y-124282115D01*
X154646710Y-124447901D01*
X154558942Y-124560048D01*
X154534571Y-124590595D01*
X154506804Y-124625050D01*
X154477070Y-124661675D01*
X154446799Y-124698734D01*
X154417422Y-124734489D01*
X154390366Y-124767203D01*
X154367064Y-124795138D01*
X154348943Y-124816558D01*
X154337434Y-124829724D01*
X154334555Y-124832715D01*
X154328958Y-124838909D01*
X154315795Y-124853948D01*
X154296599Y-124876063D01*
X154272908Y-124903485D01*
X154249567Y-124930596D01*
X154218186Y-124967004D01*
X154185149Y-125005172D01*
X154153499Y-125041595D01*
X154126279Y-125072767D01*
X154114640Y-125086016D01*
X154060855Y-125147052D01*
X154888000Y-125148940D01*
X155715144Y-125150827D01*
X155754586Y-125170197D01*
X155796452Y-125197338D01*
X155833926Y-125233971D01*
X155862723Y-125275718D01*
X155867831Y-125285932D01*
X155882939Y-125318622D01*
X155882939Y-127143689D01*
X155859901Y-127190486D01*
X155834386Y-127232389D01*
X155802454Y-127265057D01*
X155760630Y-127291928D01*
X155753812Y-127295410D01*
X155722135Y-127311190D01*
X154472505Y-127313032D01*
X153222874Y-127314874D01*
X153219190Y-129807144D01*
X153201032Y-129845597D01*
X153171751Y-129892483D01*
X153132788Y-129931760D01*
X153093108Y-129957461D01*
X153058387Y-129974939D01*
X152149496Y-129976272D01*
X152012971Y-129976448D01*
X151889792Y-129976550D01*
X151779321Y-129976574D01*
X151680920Y-129976515D01*
X151593952Y-129976367D01*
X151517781Y-129976124D01*
X151451767Y-129975783D01*
X151395275Y-129975336D01*
X151347666Y-129974780D01*
X151308304Y-129974110D01*
X151276550Y-129973318D01*
X151251768Y-129972402D01*
X151233320Y-129971355D01*
X151220569Y-129970171D01*
X151212877Y-129968847D01*
X151211914Y-129968573D01*
X151172475Y-129950688D01*
X151134014Y-129923718D01*
X151102188Y-129891751D01*
X151097773Y-129886016D01*
X151091006Y-129876924D01*
X151084998Y-129868562D01*
X151079705Y-129860086D01*
X151075081Y-129850653D01*
X151071081Y-129839418D01*
X151067661Y-129825538D01*
X151064773Y-129808169D01*
X151062375Y-129786466D01*
X151060420Y-129759587D01*
X151058863Y-129726687D01*
X151057659Y-129686923D01*
X151056763Y-129639450D01*
X151056131Y-129583424D01*
X151055715Y-129518003D01*
X151055473Y-129442341D01*
X151055358Y-129355596D01*
X151055325Y-129256923D01*
X151055329Y-129145478D01*
X151055331Y-129092745D01*
X151055281Y-128995509D01*
X151055133Y-128902319D01*
X151054896Y-128814116D01*
X151054576Y-128731837D01*
X151054180Y-128656422D01*
X151053716Y-128588811D01*
X151053189Y-128529942D01*
X151052608Y-128480755D01*
X151051978Y-128442190D01*
X151051308Y-128415185D01*
X151050604Y-128400679D01*
X151050183Y-128398363D01*
X151044673Y-128403207D01*
X151029890Y-128417334D01*
X151006446Y-128440139D01*
X150974953Y-128471015D01*
X150936025Y-128509356D01*
X150890272Y-128554556D01*
X150838308Y-128606010D01*
X150780744Y-128663110D01*
X150718193Y-128725252D01*
X150651267Y-128791828D01*
X150580579Y-128862234D01*
X150506740Y-128935862D01*
X150454160Y-128988342D01*
X150365130Y-129077221D01*
X150285426Y-129156745D01*
X150214489Y-129227447D01*
X150151760Y-129289862D01*
X150096681Y-129344526D01*
X150048694Y-129391973D01*
X150007240Y-129432739D01*
X149971761Y-129467357D01*
X149941699Y-129496363D01*
X149916495Y-129520292D01*
X149895591Y-129539679D01*
X149878429Y-129555058D01*
X149864449Y-129566964D01*
X149853094Y-129575933D01*
X149843806Y-129582499D01*
X149836025Y-129587197D01*
X149829194Y-129590562D01*
X149822823Y-129593104D01*
X149775733Y-129604930D01*
X149727810Y-129607386D01*
X149683524Y-129600462D01*
X149664029Y-129593429D01*
X149656110Y-129588615D01*
X149643965Y-129579221D01*
X149627089Y-129564765D01*
X149604982Y-129544763D01*
X149577142Y-129518730D01*
X149543065Y-129486182D01*
X149502249Y-129446636D01*
X149454192Y-129399607D01*
X149398392Y-129344612D01*
X149334347Y-129281166D01*
X149261554Y-129208786D01*
X149179510Y-129126988D01*
X149168918Y-129116415D01*
X149101538Y-129049019D01*
X149036716Y-128983928D01*
X148975175Y-128921882D01*
X148917639Y-128863623D01*
X148864831Y-128809892D01*
X148817475Y-128761429D01*
X148776295Y-128718975D01*
X148742015Y-128683272D01*
X148715357Y-128655061D01*
X148697046Y-128635083D01*
X148687806Y-128624078D01*
X148687157Y-128623099D01*
X148671461Y-128584456D01*
X148664919Y-128539267D01*
X148665592Y-128527950D01*
X148839036Y-128527950D01*
X148843858Y-128533784D01*
X148857757Y-128548615D01*
X148879885Y-128571593D01*
X148909392Y-128601869D01*
X148945428Y-128638591D01*
X148987145Y-128680909D01*
X149033694Y-128727975D01*
X149084224Y-128778936D01*
X149137887Y-128832943D01*
X149193834Y-128889146D01*
X149251214Y-128946694D01*
X149309180Y-129004737D01*
X149366881Y-129062426D01*
X149423469Y-129118909D01*
X149478094Y-129173337D01*
X149529907Y-129224859D01*
X149578058Y-129272626D01*
X149621699Y-129315786D01*
X149659980Y-129353490D01*
X149692052Y-129384887D01*
X149717065Y-129409128D01*
X149734171Y-129425361D01*
X149742520Y-129432738D01*
X149743164Y-129433101D01*
X149750747Y-129428578D01*
X149765112Y-129416715D01*
X149783163Y-129400069D01*
X149783348Y-129399891D01*
X149800660Y-129382267D01*
X149813034Y-129367917D01*
X149817804Y-129359932D01*
X149817804Y-129359910D01*
X149813228Y-129351912D01*
X149801154Y-129337253D01*
X149784127Y-129319004D01*
X149782875Y-129317732D01*
X149747908Y-129282325D01*
X149786370Y-129244340D01*
X149824833Y-129206356D01*
X149863331Y-129244375D01*
X149901828Y-129282395D01*
X151674419Y-127510252D01*
X153447011Y-125738110D01*
X153489550Y-125651454D01*
X153506991Y-125613734D01*
X153526742Y-125567462D01*
X153546858Y-125517405D01*
X153565395Y-125468329D01*
X153573292Y-125446144D01*
X153614494Y-125327490D01*
X153724592Y-125211193D01*
X153864670Y-125060637D01*
X154002007Y-124907913D01*
X154135926Y-124753922D01*
X154265748Y-124599562D01*
X154390793Y-124445734D01*
X154510381Y-124293338D01*
X154623834Y-124143272D01*
X154730473Y-123996438D01*
X154829619Y-123853734D01*
X154920591Y-123716061D01*
X155002712Y-123584317D01*
X155075302Y-123459404D01*
X155137682Y-123342220D01*
X155142291Y-123333045D01*
X155168193Y-123279155D01*
X155186841Y-123235086D01*
X155198751Y-123199036D01*
X155204441Y-123169203D01*
X155204428Y-123143784D01*
X155201278Y-123127564D01*
X155193442Y-123103785D01*
X155183820Y-123089914D01*
X155168500Y-123082875D01*
X155143570Y-123079598D01*
X155139852Y-123079319D01*
X155114690Y-123078728D01*
X155090003Y-123081222D01*
X155063767Y-123087547D01*
X155033960Y-123098445D01*
X154998557Y-123114662D01*
X154955537Y-123136942D01*
X154902877Y-123166029D01*
X154900428Y-123167408D01*
X154623892Y-123331240D01*
X154352848Y-123507891D01*
X154087437Y-123697259D01*
X153827800Y-123899244D01*
X153574077Y-124113745D01*
X153572259Y-124115346D01*
X153545106Y-124139404D01*
X153513801Y-124167369D01*
X153480065Y-124197676D01*
X153445621Y-124228763D01*
X153412191Y-124259069D01*
X153381497Y-124287030D01*
X153355260Y-124311083D01*
X153335202Y-124329667D01*
X153323045Y-124341218D01*
X153320567Y-124343755D01*
X153314661Y-124349471D01*
X153300033Y-124363328D01*
X153278174Y-124383918D01*
X153250580Y-124409836D01*
X153218745Y-124439676D01*
X153201127Y-124456167D01*
X153142033Y-124511145D01*
X153091700Y-124557149D01*
X153048952Y-124595045D01*
X153012614Y-124625695D01*
X152981509Y-124649964D01*
X152954461Y-124668716D01*
X152930294Y-124682815D01*
X152907832Y-124693125D01*
X152885900Y-124700510D01*
X152863320Y-124705834D01*
X152860575Y-124706363D01*
X152821866Y-124715767D01*
X152773180Y-124730969D01*
X152716854Y-124751143D01*
X152655228Y-124775463D01*
X152605773Y-124796434D01*
X152530700Y-124829219D01*
X150756778Y-126603289D01*
X148982856Y-128377358D01*
X149016591Y-128411608D01*
X149050327Y-128445858D01*
X149013888Y-128481538D01*
X148995511Y-128498925D01*
X148980906Y-128511623D01*
X148972943Y-128517154D01*
X148972585Y-128517218D01*
X148965411Y-128512605D01*
X148952027Y-128500707D01*
X148940412Y-128489252D01*
X148924094Y-128473840D01*
X148910907Y-128463683D01*
X148905492Y-128461287D01*
X148896656Y-128466074D01*
X148882335Y-128478113D01*
X148866003Y-128493919D01*
X148851133Y-128510007D01*
X148841200Y-128522892D01*
X148839036Y-128527950D01*
X148665592Y-128527950D01*
X148667747Y-128491741D01*
X148678349Y-128450799D01*
X148681072Y-128443925D01*
X148684483Y-128436819D01*
X148689141Y-128428893D01*
X148695609Y-128419559D01*
X148704447Y-128408228D01*
X148716216Y-128394312D01*
X148731477Y-128377221D01*
X148750792Y-128356368D01*
X148774721Y-128331163D01*
X148803826Y-128301018D01*
X148838667Y-128265344D01*
X148879805Y-128223553D01*
X148927802Y-128175056D01*
X148983218Y-128119265D01*
X149046615Y-128055590D01*
X149118553Y-127983443D01*
X149199594Y-127902236D01*
X149234860Y-127866909D01*
X149307107Y-127794496D01*
X149376523Y-127724833D01*
X149442475Y-127658560D01*
X149504331Y-127596317D01*
X149561459Y-127538742D01*
X149613224Y-127486477D01*
X149658995Y-127440160D01*
X149698138Y-127400431D01*
X149730020Y-127367931D01*
X149754009Y-127343298D01*
X149769472Y-127327173D01*
X149775776Y-127320196D01*
X149775893Y-127319975D01*
X149769068Y-127319209D01*
X149749263Y-127318437D01*
X149717479Y-127317668D01*
X149674718Y-127316916D01*
X149621983Y-127316191D01*
X149560275Y-127315505D01*
X149490597Y-127314868D01*
X149413950Y-127314292D01*
X149331337Y-127313789D01*
X149243760Y-127313370D01*
X149165887Y-127313087D01*
X149059610Y-127312753D01*
X148966406Y-127312438D01*
X148885362Y-127312117D01*
X148815568Y-127311767D01*
X148756114Y-127311363D01*
X148706088Y-127310881D01*
X148664580Y-127310297D01*
X148630678Y-127309587D01*
X148603472Y-127308726D01*
X148582052Y-127307691D01*
X148565505Y-127306457D01*
X148552921Y-127305000D01*
X148543389Y-127303296D01*
X148535999Y-127301320D01*
X148529839Y-127299049D01*
X148523999Y-127296458D01*
X148523047Y-127296019D01*
X148486450Y-127273175D01*
X148451571Y-127240769D01*
X148422602Y-127203000D01*
X148412557Y-127185267D01*
X148395078Y-127150387D01*
X148395078Y-125311631D01*
X148418944Y-125267616D01*
X148447044Y-125225873D01*
X148482149Y-125193381D01*
X148527515Y-125167150D01*
X148529108Y-125166410D01*
X148562873Y-125150827D01*
X149809027Y-125148985D01*
X151055180Y-125147143D01*
X151057003Y-123901008D01*
X151058827Y-122654873D01*
X151074087Y-122621840D01*
X151100985Y-122575117D01*
X151134337Y-122539227D01*
X151176570Y-122511614D01*
X151180636Y-122509572D01*
X151226328Y-122487078D01*
X153051395Y-122487078D01*
X153090837Y-122506448D01*
G37*
X153090837Y-122506448D02*
X153132703Y-122533589D01*
X153170177Y-122570222D01*
X153198974Y-122611969D01*
X153204082Y-122622183D01*
X153219190Y-122654873D01*
X153221061Y-123405147D01*
X153222932Y-124155422D01*
X153249574Y-124132260D01*
X153262496Y-124120906D01*
X153283947Y-124101918D01*
X153312031Y-124076981D01*
X153344853Y-124047780D01*
X153380516Y-124016000D01*
X153398020Y-124000383D01*
X153619042Y-123809329D01*
X153840416Y-123630608D01*
X154064224Y-123462677D01*
X154292548Y-123303994D01*
X154527469Y-123153017D01*
X154608868Y-123103376D01*
X154689578Y-123055202D01*
X154759870Y-123014219D01*
X154820957Y-122979866D01*
X154874057Y-122951576D01*
X154920383Y-122928788D01*
X154961152Y-122910936D01*
X154997580Y-122897457D01*
X155030881Y-122887788D01*
X155062272Y-122881363D01*
X155092967Y-122877621D01*
X155096114Y-122877367D01*
X155164703Y-122877594D01*
X155225846Y-122889288D01*
X155279184Y-122912264D01*
X155324357Y-122946337D01*
X155361003Y-122991324D01*
X155377649Y-123021179D01*
X155388008Y-123044012D01*
X155394809Y-123063968D01*
X155398974Y-123085486D01*
X155401423Y-123113005D01*
X155402762Y-123142254D01*
X155403114Y-123182454D01*
X155400429Y-123218656D01*
X155393916Y-123253745D01*
X155382783Y-123290601D01*
X155366241Y-123332109D01*
X155343498Y-123381152D01*
X155329426Y-123409657D01*
X155262014Y-123537462D01*
X155183882Y-123673122D01*
X155095438Y-123816028D01*
X154997090Y-123965568D01*
X154889247Y-124121134D01*
X154772317Y-124282115D01*
X154646710Y-124447901D01*
X154558942Y-124560048D01*
X154534571Y-124590595D01*
X154506804Y-124625050D01*
X154477070Y-124661675D01*
X154446799Y-124698734D01*
X154417422Y-124734489D01*
X154390366Y-124767203D01*
X154367064Y-124795138D01*
X154348943Y-124816558D01*
X154337434Y-124829724D01*
X154334555Y-124832715D01*
X154328958Y-124838909D01*
X154315795Y-124853948D01*
X154296599Y-124876063D01*
X154272908Y-124903485D01*
X154249567Y-124930596D01*
X154218186Y-124967004D01*
X154185149Y-125005172D01*
X154153499Y-125041595D01*
X154126279Y-125072767D01*
X154114640Y-125086016D01*
X154060855Y-125147052D01*
X154888000Y-125148940D01*
X155715144Y-125150827D01*
X155754586Y-125170197D01*
X155796452Y-125197338D01*
X155833926Y-125233971D01*
X155862723Y-125275718D01*
X155867831Y-125285932D01*
X155882939Y-125318622D01*
X155882939Y-127143689D01*
X155859901Y-127190486D01*
X155834386Y-127232389D01*
X155802454Y-127265057D01*
X155760630Y-127291928D01*
X155753812Y-127295410D01*
X155722135Y-127311190D01*
X154472505Y-127313032D01*
X153222874Y-127314874D01*
X153219190Y-129807144D01*
X153201032Y-129845597D01*
X153171751Y-129892483D01*
X153132788Y-129931760D01*
X153093108Y-129957461D01*
X153058387Y-129974939D01*
X152149496Y-129976272D01*
X152012971Y-129976448D01*
X151889792Y-129976550D01*
X151779321Y-129976574D01*
X151680920Y-129976515D01*
X151593952Y-129976367D01*
X151517781Y-129976124D01*
X151451767Y-129975783D01*
X151395275Y-129975336D01*
X151347666Y-129974780D01*
X151308304Y-129974110D01*
X151276550Y-129973318D01*
X151251768Y-129972402D01*
X151233320Y-129971355D01*
X151220569Y-129970171D01*
X151212877Y-129968847D01*
X151211914Y-129968573D01*
X151172475Y-129950688D01*
X151134014Y-129923718D01*
X151102188Y-129891751D01*
X151097773Y-129886016D01*
X151091006Y-129876924D01*
X151084998Y-129868562D01*
X151079705Y-129860086D01*
X151075081Y-129850653D01*
X151071081Y-129839418D01*
X151067661Y-129825538D01*
X151064773Y-129808169D01*
X151062375Y-129786466D01*
X151060420Y-129759587D01*
X151058863Y-129726687D01*
X151057659Y-129686923D01*
X151056763Y-129639450D01*
X151056131Y-129583424D01*
X151055715Y-129518003D01*
X151055473Y-129442341D01*
X151055358Y-129355596D01*
X151055325Y-129256923D01*
X151055329Y-129145478D01*
X151055331Y-129092745D01*
X151055281Y-128995509D01*
X151055133Y-128902319D01*
X151054896Y-128814116D01*
X151054576Y-128731837D01*
X151054180Y-128656422D01*
X151053716Y-128588811D01*
X151053189Y-128529942D01*
X151052608Y-128480755D01*
X151051978Y-128442190D01*
X151051308Y-128415185D01*
X151050604Y-128400679D01*
X151050183Y-128398363D01*
X151044673Y-128403207D01*
X151029890Y-128417334D01*
X151006446Y-128440139D01*
X150974953Y-128471015D01*
X150936025Y-128509356D01*
X150890272Y-128554556D01*
X150838308Y-128606010D01*
X150780744Y-128663110D01*
X150718193Y-128725252D01*
X150651267Y-128791828D01*
X150580579Y-128862234D01*
X150506740Y-128935862D01*
X150454160Y-128988342D01*
X150365130Y-129077221D01*
X150285426Y-129156745D01*
X150214489Y-129227447D01*
X150151760Y-129289862D01*
X150096681Y-129344526D01*
X150048694Y-129391973D01*
X150007240Y-129432739D01*
X149971761Y-129467357D01*
X149941699Y-129496363D01*
X149916495Y-129520292D01*
X149895591Y-129539679D01*
X149878429Y-129555058D01*
X149864449Y-129566964D01*
X149853094Y-129575933D01*
X149843806Y-129582499D01*
X149836025Y-129587197D01*
X149829194Y-129590562D01*
X149822823Y-129593104D01*
X149775733Y-129604930D01*
X149727810Y-129607386D01*
X149683524Y-129600462D01*
X149664029Y-129593429D01*
X149656110Y-129588615D01*
X149643965Y-129579221D01*
X149627089Y-129564765D01*
X149604982Y-129544763D01*
X149577142Y-129518730D01*
X149543065Y-129486182D01*
X149502249Y-129446636D01*
X149454192Y-129399607D01*
X149398392Y-129344612D01*
X149334347Y-129281166D01*
X149261554Y-129208786D01*
X149179510Y-129126988D01*
X149168918Y-129116415D01*
X149101538Y-129049019D01*
X149036716Y-128983928D01*
X148975175Y-128921882D01*
X148917639Y-128863623D01*
X148864831Y-128809892D01*
X148817475Y-128761429D01*
X148776295Y-128718975D01*
X148742015Y-128683272D01*
X148715357Y-128655061D01*
X148697046Y-128635083D01*
X148687806Y-128624078D01*
X148687157Y-128623099D01*
X148671461Y-128584456D01*
X148664919Y-128539267D01*
X148665592Y-128527950D01*
X148839036Y-128527950D01*
X148843858Y-128533784D01*
X148857757Y-128548615D01*
X148879885Y-128571593D01*
X148909392Y-128601869D01*
X148945428Y-128638591D01*
X148987145Y-128680909D01*
X149033694Y-128727975D01*
X149084224Y-128778936D01*
X149137887Y-128832943D01*
X149193834Y-128889146D01*
X149251214Y-128946694D01*
X149309180Y-129004737D01*
X149366881Y-129062426D01*
X149423469Y-129118909D01*
X149478094Y-129173337D01*
X149529907Y-129224859D01*
X149578058Y-129272626D01*
X149621699Y-129315786D01*
X149659980Y-129353490D01*
X149692052Y-129384887D01*
X149717065Y-129409128D01*
X149734171Y-129425361D01*
X149742520Y-129432738D01*
X149743164Y-129433101D01*
X149750747Y-129428578D01*
X149765112Y-129416715D01*
X149783163Y-129400069D01*
X149783348Y-129399891D01*
X149800660Y-129382267D01*
X149813034Y-129367917D01*
X149817804Y-129359932D01*
X149817804Y-129359910D01*
X149813228Y-129351912D01*
X149801154Y-129337253D01*
X149784127Y-129319004D01*
X149782875Y-129317732D01*
X149747908Y-129282325D01*
X149786370Y-129244340D01*
X149824833Y-129206356D01*
X149863331Y-129244375D01*
X149901828Y-129282395D01*
X151674419Y-127510252D01*
X153447011Y-125738110D01*
X153489550Y-125651454D01*
X153506991Y-125613734D01*
X153526742Y-125567462D01*
X153546858Y-125517405D01*
X153565395Y-125468329D01*
X153573292Y-125446144D01*
X153614494Y-125327490D01*
X153724592Y-125211193D01*
X153864670Y-125060637D01*
X154002007Y-124907913D01*
X154135926Y-124753922D01*
X154265748Y-124599562D01*
X154390793Y-124445734D01*
X154510381Y-124293338D01*
X154623834Y-124143272D01*
X154730473Y-123996438D01*
X154829619Y-123853734D01*
X154920591Y-123716061D01*
X155002712Y-123584317D01*
X155075302Y-123459404D01*
X155137682Y-123342220D01*
X155142291Y-123333045D01*
X155168193Y-123279155D01*
X155186841Y-123235086D01*
X155198751Y-123199036D01*
X155204441Y-123169203D01*
X155204428Y-123143784D01*
X155201278Y-123127564D01*
X155193442Y-123103785D01*
X155183820Y-123089914D01*
X155168500Y-123082875D01*
X155143570Y-123079598D01*
X155139852Y-123079319D01*
X155114690Y-123078728D01*
X155090003Y-123081222D01*
X155063767Y-123087547D01*
X155033960Y-123098445D01*
X154998557Y-123114662D01*
X154955537Y-123136942D01*
X154902877Y-123166029D01*
X154900428Y-123167408D01*
X154623892Y-123331240D01*
X154352848Y-123507891D01*
X154087437Y-123697259D01*
X153827800Y-123899244D01*
X153574077Y-124113745D01*
X153572259Y-124115346D01*
X153545106Y-124139404D01*
X153513801Y-124167369D01*
X153480065Y-124197676D01*
X153445621Y-124228763D01*
X153412191Y-124259069D01*
X153381497Y-124287030D01*
X153355260Y-124311083D01*
X153335202Y-124329667D01*
X153323045Y-124341218D01*
X153320567Y-124343755D01*
X153314661Y-124349471D01*
X153300033Y-124363328D01*
X153278174Y-124383918D01*
X153250580Y-124409836D01*
X153218745Y-124439676D01*
X153201127Y-124456167D01*
X153142033Y-124511145D01*
X153091700Y-124557149D01*
X153048952Y-124595045D01*
X153012614Y-124625695D01*
X152981509Y-124649964D01*
X152954461Y-124668716D01*
X152930294Y-124682815D01*
X152907832Y-124693125D01*
X152885900Y-124700510D01*
X152863320Y-124705834D01*
X152860575Y-124706363D01*
X152821866Y-124715767D01*
X152773180Y-124730969D01*
X152716854Y-124751143D01*
X152655228Y-124775463D01*
X152605773Y-124796434D01*
X152530700Y-124829219D01*
X150756778Y-126603289D01*
X148982856Y-128377358D01*
X149016591Y-128411608D01*
X149050327Y-128445858D01*
X149013888Y-128481538D01*
X148995511Y-128498925D01*
X148980906Y-128511623D01*
X148972943Y-128517154D01*
X148972585Y-128517218D01*
X148965411Y-128512605D01*
X148952027Y-128500707D01*
X148940412Y-128489252D01*
X148924094Y-128473840D01*
X148910907Y-128463683D01*
X148905492Y-128461287D01*
X148896656Y-128466074D01*
X148882335Y-128478113D01*
X148866003Y-128493919D01*
X148851133Y-128510007D01*
X148841200Y-128522892D01*
X148839036Y-128527950D01*
X148665592Y-128527950D01*
X148667747Y-128491741D01*
X148678349Y-128450799D01*
X148681072Y-128443925D01*
X148684483Y-128436819D01*
X148689141Y-128428893D01*
X148695609Y-128419559D01*
X148704447Y-128408228D01*
X148716216Y-128394312D01*
X148731477Y-128377221D01*
X148750792Y-128356368D01*
X148774721Y-128331163D01*
X148803826Y-128301018D01*
X148838667Y-128265344D01*
X148879805Y-128223553D01*
X148927802Y-128175056D01*
X148983218Y-128119265D01*
X149046615Y-128055590D01*
X149118553Y-127983443D01*
X149199594Y-127902236D01*
X149234860Y-127866909D01*
X149307107Y-127794496D01*
X149376523Y-127724833D01*
X149442475Y-127658560D01*
X149504331Y-127596317D01*
X149561459Y-127538742D01*
X149613224Y-127486477D01*
X149658995Y-127440160D01*
X149698138Y-127400431D01*
X149730020Y-127367931D01*
X149754009Y-127343298D01*
X149769472Y-127327173D01*
X149775776Y-127320196D01*
X149775893Y-127319975D01*
X149769068Y-127319209D01*
X149749263Y-127318437D01*
X149717479Y-127317668D01*
X149674718Y-127316916D01*
X149621983Y-127316191D01*
X149560275Y-127315505D01*
X149490597Y-127314868D01*
X149413950Y-127314292D01*
X149331337Y-127313789D01*
X149243760Y-127313370D01*
X149165887Y-127313087D01*
X149059610Y-127312753D01*
X148966406Y-127312438D01*
X148885362Y-127312117D01*
X148815568Y-127311767D01*
X148756114Y-127311363D01*
X148706088Y-127310881D01*
X148664580Y-127310297D01*
X148630678Y-127309587D01*
X148603472Y-127308726D01*
X148582052Y-127307691D01*
X148565505Y-127306457D01*
X148552921Y-127305000D01*
X148543389Y-127303296D01*
X148535999Y-127301320D01*
X148529839Y-127299049D01*
X148523999Y-127296458D01*
X148523047Y-127296019D01*
X148486450Y-127273175D01*
X148451571Y-127240769D01*
X148422602Y-127203000D01*
X148412557Y-127185267D01*
X148395078Y-127150387D01*
X148395078Y-125311631D01*
X148418944Y-125267616D01*
X148447044Y-125225873D01*
X148482149Y-125193381D01*
X148527515Y-125167150D01*
X148529108Y-125166410D01*
X148562873Y-125150827D01*
X149809027Y-125148985D01*
X151055180Y-125147143D01*
X151057003Y-123901008D01*
X151058827Y-122654873D01*
X151074087Y-122621840D01*
X151100985Y-122575117D01*
X151134337Y-122539227D01*
X151176570Y-122511614D01*
X151180636Y-122509572D01*
X151226328Y-122487078D01*
X153051395Y-122487078D01*
X153090837Y-122506448D01*
G36*
X149433429Y-128821465D02*
G01*
X149488878Y-128877014D01*
X149541301Y-128929742D01*
X149589872Y-128978808D01*
X149633769Y-129023367D01*
X149672167Y-129062579D01*
X149704242Y-129095601D01*
X149729171Y-129121589D01*
X149746128Y-129139703D01*
X149754291Y-129149098D01*
X149754918Y-129150180D01*
X149750356Y-129157808D01*
X149738771Y-129171639D01*
X149723312Y-129188387D01*
X149707132Y-129204767D01*
X149693382Y-129217492D01*
X149685212Y-129223275D01*
X149684764Y-129223347D01*
X149679390Y-129218532D01*
X149664974Y-129204642D01*
X149642349Y-129182500D01*
X149612346Y-129152930D01*
X149575799Y-129116758D01*
X149533539Y-129074807D01*
X149486399Y-129027902D01*
X149435212Y-128976867D01*
X149380809Y-128922526D01*
X149361648Y-128903365D01*
X149306351Y-128847941D01*
X149254082Y-128795343D01*
X149205667Y-128746417D01*
X149161931Y-128702005D01*
X149123700Y-128662954D01*
X149091800Y-128630106D01*
X149067056Y-128604307D01*
X149050294Y-128586401D01*
X149042340Y-128577232D01*
X149041789Y-128576260D01*
X149046450Y-128568127D01*
X149058702Y-128553508D01*
X149075943Y-128535490D01*
X149076864Y-128534581D01*
X149111939Y-128500033D01*
X149433429Y-128821465D01*
G37*
X149433429Y-128821465D02*
X149488878Y-128877014D01*
X149541301Y-128929742D01*
X149589872Y-128978808D01*
X149633769Y-129023367D01*
X149672167Y-129062579D01*
X149704242Y-129095601D01*
X149729171Y-129121589D01*
X149746128Y-129139703D01*
X149754291Y-129149098D01*
X149754918Y-129150180D01*
X149750356Y-129157808D01*
X149738771Y-129171639D01*
X149723312Y-129188387D01*
X149707132Y-129204767D01*
X149693382Y-129217492D01*
X149685212Y-129223275D01*
X149684764Y-129223347D01*
X149679390Y-129218532D01*
X149664974Y-129204642D01*
X149642349Y-129182500D01*
X149612346Y-129152930D01*
X149575799Y-129116758D01*
X149533539Y-129074807D01*
X149486399Y-129027902D01*
X149435212Y-128976867D01*
X149380809Y-128922526D01*
X149361648Y-128903365D01*
X149306351Y-128847941D01*
X149254082Y-128795343D01*
X149205667Y-128746417D01*
X149161931Y-128702005D01*
X149123700Y-128662954D01*
X149091800Y-128630106D01*
X149067056Y-128604307D01*
X149050294Y-128586401D01*
X149042340Y-128577232D01*
X149041789Y-128576260D01*
X149046450Y-128568127D01*
X149058702Y-128553508D01*
X149075943Y-128535490D01*
X149076864Y-128534581D01*
X149111939Y-128500033D01*
X149433429Y-128821465D01*
G36*
X152603712Y-124975728D02*
G01*
X152616260Y-124986020D01*
X152632089Y-125000874D01*
X152648222Y-125017322D01*
X152661679Y-125032394D01*
X152669484Y-125043125D01*
X152670360Y-125045664D01*
X152665482Y-125051151D01*
X152651135Y-125066079D01*
X152627752Y-125090015D01*
X152595767Y-125122528D01*
X152555611Y-125163184D01*
X152507716Y-125211552D01*
X152452517Y-125267197D01*
X152390444Y-125329688D01*
X152321932Y-125398592D01*
X152247412Y-125473476D01*
X152167317Y-125553908D01*
X152082080Y-125639456D01*
X151992132Y-125729686D01*
X151897908Y-125824166D01*
X151799839Y-125922463D01*
X151698358Y-126024146D01*
X151593898Y-126128780D01*
X151486891Y-126235934D01*
X151377770Y-126345175D01*
X151266967Y-126456070D01*
X151154916Y-126568188D01*
X151042048Y-126681094D01*
X150928796Y-126794357D01*
X150815593Y-126907544D01*
X150702871Y-127020222D01*
X150591064Y-127131959D01*
X150480603Y-127242322D01*
X150371921Y-127350878D01*
X150265451Y-127457196D01*
X150161626Y-127560842D01*
X150060878Y-127661383D01*
X149963639Y-127758388D01*
X149870343Y-127851423D01*
X149781421Y-127940056D01*
X149697307Y-128023855D01*
X149618432Y-128102386D01*
X149545231Y-128175217D01*
X149478135Y-128241915D01*
X149417576Y-128302049D01*
X149363988Y-128355185D01*
X149317803Y-128400890D01*
X149279454Y-128438733D01*
X149249373Y-128468280D01*
X149227992Y-128489098D01*
X149215745Y-128500756D01*
X149212831Y-128503235D01*
X149204628Y-128498572D01*
X149189954Y-128486316D01*
X149171911Y-128469068D01*
X149171009Y-128468154D01*
X149136455Y-128433073D01*
X149688640Y-127880821D01*
X149754652Y-127814804D01*
X149826632Y-127742821D01*
X149904130Y-127665324D01*
X149986692Y-127582766D01*
X150073867Y-127495598D01*
X150165202Y-127404272D01*
X150260246Y-127309241D01*
X150358547Y-127210956D01*
X150459651Y-127109870D01*
X150563107Y-127006433D01*
X150668463Y-126901099D01*
X150775267Y-126794319D01*
X150883067Y-126686545D01*
X150991410Y-126578230D01*
X151099845Y-126469824D01*
X151207919Y-126361781D01*
X151315180Y-126254552D01*
X151421176Y-126148589D01*
X151525455Y-126044344D01*
X151627565Y-125942269D01*
X151727053Y-125842816D01*
X151823468Y-125746437D01*
X151916357Y-125653584D01*
X152005269Y-125564709D01*
X152089751Y-125480264D01*
X152169350Y-125400701D01*
X152243616Y-125326472D01*
X152312096Y-125258029D01*
X152374337Y-125195824D01*
X152429887Y-125140309D01*
X152478295Y-125091935D01*
X152519109Y-125051156D01*
X152551875Y-125018422D01*
X152576142Y-124994186D01*
X152591459Y-124978900D01*
X152597372Y-124973015D01*
X152597423Y-124972966D01*
X152603712Y-124975728D01*
G37*
X152603712Y-124975728D02*
X152616260Y-124986020D01*
X152632089Y-125000874D01*
X152648222Y-125017322D01*
X152661679Y-125032394D01*
X152669484Y-125043125D01*
X152670360Y-125045664D01*
X152665482Y-125051151D01*
X152651135Y-125066079D01*
X152627752Y-125090015D01*
X152595767Y-125122528D01*
X152555611Y-125163184D01*
X152507716Y-125211552D01*
X152452517Y-125267197D01*
X152390444Y-125329688D01*
X152321932Y-125398592D01*
X152247412Y-125473476D01*
X152167317Y-125553908D01*
X152082080Y-125639456D01*
X151992132Y-125729686D01*
X151897908Y-125824166D01*
X151799839Y-125922463D01*
X151698358Y-126024146D01*
X151593898Y-126128780D01*
X151486891Y-126235934D01*
X151377770Y-126345175D01*
X151266967Y-126456070D01*
X151154916Y-126568188D01*
X151042048Y-126681094D01*
X150928796Y-126794357D01*
X150815593Y-126907544D01*
X150702871Y-127020222D01*
X150591064Y-127131959D01*
X150480603Y-127242322D01*
X150371921Y-127350878D01*
X150265451Y-127457196D01*
X150161626Y-127560842D01*
X150060878Y-127661383D01*
X149963639Y-127758388D01*
X149870343Y-127851423D01*
X149781421Y-127940056D01*
X149697307Y-128023855D01*
X149618432Y-128102386D01*
X149545231Y-128175217D01*
X149478135Y-128241915D01*
X149417576Y-128302049D01*
X149363988Y-128355185D01*
X149317803Y-128400890D01*
X149279454Y-128438733D01*
X149249373Y-128468280D01*
X149227992Y-128489098D01*
X149215745Y-128500756D01*
X149212831Y-128503235D01*
X149204628Y-128498572D01*
X149189954Y-128486316D01*
X149171911Y-128469068D01*
X149171009Y-128468154D01*
X149136455Y-128433073D01*
X149688640Y-127880821D01*
X149754652Y-127814804D01*
X149826632Y-127742821D01*
X149904130Y-127665324D01*
X149986692Y-127582766D01*
X150073867Y-127495598D01*
X150165202Y-127404272D01*
X150260246Y-127309241D01*
X150358547Y-127210956D01*
X150459651Y-127109870D01*
X150563107Y-127006433D01*
X150668463Y-126901099D01*
X150775267Y-126794319D01*
X150883067Y-126686545D01*
X150991410Y-126578230D01*
X151099845Y-126469824D01*
X151207919Y-126361781D01*
X151315180Y-126254552D01*
X151421176Y-126148589D01*
X151525455Y-126044344D01*
X151627565Y-125942269D01*
X151727053Y-125842816D01*
X151823468Y-125746437D01*
X151916357Y-125653584D01*
X152005269Y-125564709D01*
X152089751Y-125480264D01*
X152169350Y-125400701D01*
X152243616Y-125326472D01*
X152312096Y-125258029D01*
X152374337Y-125195824D01*
X152429887Y-125140309D01*
X152478295Y-125091935D01*
X152519109Y-125051156D01*
X152551875Y-125018422D01*
X152576142Y-124994186D01*
X152591459Y-124978900D01*
X152597372Y-124973015D01*
X152597423Y-124972966D01*
X152603712Y-124975728D01*
G36*
X155077181Y-123165325D02*
G01*
X155088758Y-123175663D01*
X155088487Y-123192212D01*
X155076397Y-123214413D01*
X155052520Y-123241709D01*
X155049150Y-123245023D01*
X155028273Y-123264013D01*
X154997912Y-123289872D01*
X154959853Y-123321191D01*
X154915882Y-123356560D01*
X154867785Y-123394569D01*
X154817346Y-123433810D01*
X154766352Y-123472874D01*
X154716588Y-123510350D01*
X154669840Y-123544829D01*
X154662928Y-123549851D01*
X154621925Y-123579571D01*
X154575942Y-123612893D01*
X154530027Y-123646158D01*
X154489229Y-123675708D01*
X154481150Y-123681559D01*
X154381331Y-123754480D01*
X154278733Y-123830635D01*
X154175318Y-123908514D01*
X154073043Y-123986605D01*
X153973868Y-124063400D01*
X153879753Y-124137389D01*
X153792656Y-124207061D01*
X153714538Y-124270906D01*
X153691114Y-124290396D01*
X153619774Y-124350443D01*
X153556813Y-124404367D01*
X153499548Y-124454595D01*
X153445296Y-124503555D01*
X153391371Y-124553674D01*
X153335089Y-124607380D01*
X153273767Y-124667099D01*
X153264635Y-124676070D01*
X153224048Y-124715519D01*
X153185928Y-124751697D01*
X153151706Y-124783310D01*
X153122812Y-124809061D01*
X153100676Y-124827652D01*
X153086730Y-124837787D01*
X153085452Y-124838488D01*
X153069035Y-124845805D01*
X153042380Y-124856548D01*
X153008460Y-124869567D01*
X152970250Y-124883712D01*
X152945645Y-124892565D01*
X152895519Y-124910606D01*
X152857318Y-124924908D01*
X152829675Y-124936072D01*
X152811220Y-124944698D01*
X152800587Y-124951386D01*
X152796407Y-124956735D01*
X152796207Y-124958113D01*
X152800953Y-124968480D01*
X152814340Y-124987184D01*
X152835089Y-125012708D01*
X152861923Y-125043533D01*
X152893563Y-125078141D01*
X152925222Y-125111401D01*
X152972162Y-125158184D01*
X153027928Y-125211053D01*
X153090073Y-125267823D01*
X153156146Y-125326313D01*
X153223698Y-125384339D01*
X153290279Y-125439720D01*
X153326448Y-125468939D01*
X153435926Y-125556332D01*
X153437980Y-125607020D01*
X153438726Y-125633226D01*
X153437854Y-125648431D01*
X153434669Y-125655587D01*
X153428479Y-125657644D01*
X153426070Y-125657708D01*
X153415529Y-125653652D01*
X153396502Y-125642544D01*
X153371495Y-125625981D01*
X153343013Y-125605557D01*
X153336623Y-125600774D01*
X153219447Y-125509156D01*
X153107959Y-125415533D01*
X153003241Y-125320989D01*
X152906373Y-125226610D01*
X152818437Y-125133479D01*
X152740516Y-125042681D01*
X152673690Y-124955300D01*
X152633368Y-124895608D01*
X152624410Y-124878742D01*
X152622370Y-124865030D01*
X152628542Y-124853167D01*
X152644220Y-124841845D01*
X152670699Y-124829760D01*
X152709271Y-124815604D01*
X152714378Y-124813841D01*
X152755978Y-124799810D01*
X152801707Y-124784832D01*
X152845291Y-124770940D01*
X152873113Y-124762363D01*
X152915547Y-124748958D01*
X152950633Y-124735966D01*
X152981105Y-124721694D01*
X153009696Y-124704452D01*
X153039139Y-124682546D01*
X153072170Y-124654284D01*
X153111521Y-124617974D01*
X153121310Y-124608728D01*
X153225256Y-124511560D01*
X153331896Y-124414510D01*
X153442577Y-124316426D01*
X153558646Y-124216152D01*
X153681449Y-124112537D01*
X153812334Y-124004426D01*
X153952647Y-123890666D01*
X154058166Y-123806284D01*
X154090372Y-123780648D01*
X154121470Y-123755870D01*
X154148529Y-123734287D01*
X154168617Y-123718238D01*
X154173526Y-123714307D01*
X154233693Y-123667730D01*
X154303599Y-123616467D01*
X154380595Y-123562320D01*
X154462031Y-123507089D01*
X154545259Y-123452577D01*
X154627630Y-123400585D01*
X154694390Y-123360076D01*
X154732128Y-123337724D01*
X154766756Y-123317350D01*
X154796096Y-123300223D01*
X154817969Y-123287615D01*
X154830199Y-123280797D01*
X154830723Y-123280526D01*
X154844419Y-123272616D01*
X154865825Y-123259245D01*
X154891102Y-123242829D01*
X154900638Y-123236487D01*
X154934789Y-123215000D01*
X154969731Y-123195391D01*
X155002565Y-123179078D01*
X155030390Y-123167476D01*
X155050306Y-123162000D01*
X155053725Y-123161755D01*
X155077181Y-123165325D01*
G37*
X155077181Y-123165325D02*
X155088758Y-123175663D01*
X155088487Y-123192212D01*
X155076397Y-123214413D01*
X155052520Y-123241709D01*
X155049150Y-123245023D01*
X155028273Y-123264013D01*
X154997912Y-123289872D01*
X154959853Y-123321191D01*
X154915882Y-123356560D01*
X154867785Y-123394569D01*
X154817346Y-123433810D01*
X154766352Y-123472874D01*
X154716588Y-123510350D01*
X154669840Y-123544829D01*
X154662928Y-123549851D01*
X154621925Y-123579571D01*
X154575942Y-123612893D01*
X154530027Y-123646158D01*
X154489229Y-123675708D01*
X154481150Y-123681559D01*
X154381331Y-123754480D01*
X154278733Y-123830635D01*
X154175318Y-123908514D01*
X154073043Y-123986605D01*
X153973868Y-124063400D01*
X153879753Y-124137389D01*
X153792656Y-124207061D01*
X153714538Y-124270906D01*
X153691114Y-124290396D01*
X153619774Y-124350443D01*
X153556813Y-124404367D01*
X153499548Y-124454595D01*
X153445296Y-124503555D01*
X153391371Y-124553674D01*
X153335089Y-124607380D01*
X153273767Y-124667099D01*
X153264635Y-124676070D01*
X153224048Y-124715519D01*
X153185928Y-124751697D01*
X153151706Y-124783310D01*
X153122812Y-124809061D01*
X153100676Y-124827652D01*
X153086730Y-124837787D01*
X153085452Y-124838488D01*
X153069035Y-124845805D01*
X153042380Y-124856548D01*
X153008460Y-124869567D01*
X152970250Y-124883712D01*
X152945645Y-124892565D01*
X152895519Y-124910606D01*
X152857318Y-124924908D01*
X152829675Y-124936072D01*
X152811220Y-124944698D01*
X152800587Y-124951386D01*
X152796407Y-124956735D01*
X152796207Y-124958113D01*
X152800953Y-124968480D01*
X152814340Y-124987184D01*
X152835089Y-125012708D01*
X152861923Y-125043533D01*
X152893563Y-125078141D01*
X152925222Y-125111401D01*
X152972162Y-125158184D01*
X153027928Y-125211053D01*
X153090073Y-125267823D01*
X153156146Y-125326313D01*
X153223698Y-125384339D01*
X153290279Y-125439720D01*
X153326448Y-125468939D01*
X153435926Y-125556332D01*
X153437980Y-125607020D01*
X153438726Y-125633226D01*
X153437854Y-125648431D01*
X153434669Y-125655587D01*
X153428479Y-125657644D01*
X153426070Y-125657708D01*
X153415529Y-125653652D01*
X153396502Y-125642544D01*
X153371495Y-125625981D01*
X153343013Y-125605557D01*
X153336623Y-125600774D01*
X153219447Y-125509156D01*
X153107959Y-125415533D01*
X153003241Y-125320989D01*
X152906373Y-125226610D01*
X152818437Y-125133479D01*
X152740516Y-125042681D01*
X152673690Y-124955300D01*
X152633368Y-124895608D01*
X152624410Y-124878742D01*
X152622370Y-124865030D01*
X152628542Y-124853167D01*
X152644220Y-124841845D01*
X152670699Y-124829760D01*
X152709271Y-124815604D01*
X152714378Y-124813841D01*
X152755978Y-124799810D01*
X152801707Y-124784832D01*
X152845291Y-124770940D01*
X152873113Y-124762363D01*
X152915547Y-124748958D01*
X152950633Y-124735966D01*
X152981105Y-124721694D01*
X153009696Y-124704452D01*
X153039139Y-124682546D01*
X153072170Y-124654284D01*
X153111521Y-124617974D01*
X153121310Y-124608728D01*
X153225256Y-124511560D01*
X153331896Y-124414510D01*
X153442577Y-124316426D01*
X153558646Y-124216152D01*
X153681449Y-124112537D01*
X153812334Y-124004426D01*
X153952647Y-123890666D01*
X154058166Y-123806284D01*
X154090372Y-123780648D01*
X154121470Y-123755870D01*
X154148529Y-123734287D01*
X154168617Y-123718238D01*
X154173526Y-123714307D01*
X154233693Y-123667730D01*
X154303599Y-123616467D01*
X154380595Y-123562320D01*
X154462031Y-123507089D01*
X154545259Y-123452577D01*
X154627630Y-123400585D01*
X154694390Y-123360076D01*
X154732128Y-123337724D01*
X154766756Y-123317350D01*
X154796096Y-123300223D01*
X154817969Y-123287615D01*
X154830199Y-123280797D01*
X154830723Y-123280526D01*
X154844419Y-123272616D01*
X154865825Y-123259245D01*
X154891102Y-123242829D01*
X154900638Y-123236487D01*
X154934789Y-123215000D01*
X154969731Y-123195391D01*
X155002565Y-123179078D01*
X155030390Y-123167476D01*
X155050306Y-123162000D01*
X155053725Y-123161755D01*
X155077181Y-123165325D01*
D11*
%TO.C,AC IN*%
X109220000Y-75184000D02*
X109220000Y-85344000D01*
X116840000Y-75184000D02*
X109220000Y-75184000D01*
X116840000Y-85344000D02*
X116840000Y-75184000D01*
X109220000Y-85344000D02*
X116840000Y-85344000D01*
X110490000Y-85344000D02*
X110490000Y-75184000D01*
%TO.C,FTDI IN*%
X178248000Y-128584000D02*
X178248000Y-127254000D01*
X179578000Y-128584000D02*
X178248000Y-128584000D01*
X180848000Y-128584000D02*
X180848000Y-125924000D01*
X180848000Y-125924000D02*
X193608000Y-125924000D01*
X180848000Y-128584000D02*
X193608000Y-128584000D01*
X193608000Y-128584000D02*
X193608000Y-125924000D01*
%TO.C,C1*%
X189817000Y-84555698D02*
X190617000Y-84555698D01*
X190217000Y-84955698D02*
X190217000Y-84155698D01*
X191999000Y-76465000D02*
X193065000Y-76465000D01*
X191764000Y-76505000D02*
X193300000Y-76505000D01*
X191584000Y-76545000D02*
X193480000Y-76545000D01*
X191434000Y-76585000D02*
X193630000Y-76585000D01*
X191303000Y-76625000D02*
X193761000Y-76625000D01*
X191186000Y-76665000D02*
X193878000Y-76665000D01*
X191079000Y-76705000D02*
X193985000Y-76705000D01*
X190980000Y-76745000D02*
X194084000Y-76745000D01*
X190887000Y-76785000D02*
X194177000Y-76785000D01*
X190801000Y-76825000D02*
X194263000Y-76825000D01*
X190719000Y-76865000D02*
X194345000Y-76865000D01*
X190642000Y-76905000D02*
X194422000Y-76905000D01*
X190568000Y-76945000D02*
X194496000Y-76945000D01*
X190498000Y-76985000D02*
X194566000Y-76985000D01*
X190430000Y-77025000D02*
X194634000Y-77025000D01*
X190366000Y-77065000D02*
X194698000Y-77065000D01*
X190304000Y-77105000D02*
X194760000Y-77105000D01*
X190245000Y-77145000D02*
X194819000Y-77145000D01*
X190187000Y-77185000D02*
X194877000Y-77185000D01*
X190132000Y-77225000D02*
X194932000Y-77225000D01*
X190078000Y-77265000D02*
X194986000Y-77265000D01*
X190027000Y-77305000D02*
X195037000Y-77305000D01*
X189976000Y-77345000D02*
X195088000Y-77345000D01*
X189928000Y-77385000D02*
X195136000Y-77385000D01*
X189881000Y-77425000D02*
X195183000Y-77425000D01*
X189835000Y-77465000D02*
X195229000Y-77465000D01*
X189791000Y-77505000D02*
X195273000Y-77505000D01*
X189748000Y-77545000D02*
X195316000Y-77545000D01*
X189706000Y-77585000D02*
X195358000Y-77585000D01*
X189665000Y-77625000D02*
X195399000Y-77625000D01*
X189625000Y-77665000D02*
X195439000Y-77665000D01*
X189587000Y-77705000D02*
X195477000Y-77705000D01*
X189549000Y-77745000D02*
X195515000Y-77745000D01*
X193572000Y-77785000D02*
X195551000Y-77785000D01*
X189513000Y-77785000D02*
X191492000Y-77785000D01*
X193572000Y-77825000D02*
X195587000Y-77825000D01*
X189477000Y-77825000D02*
X191492000Y-77825000D01*
X193572000Y-77865000D02*
X195622000Y-77865000D01*
X189442000Y-77865000D02*
X191492000Y-77865000D01*
X193572000Y-77905000D02*
X195656000Y-77905000D01*
X189408000Y-77905000D02*
X191492000Y-77905000D01*
X193572000Y-77945000D02*
X195688000Y-77945000D01*
X189376000Y-77945000D02*
X191492000Y-77945000D01*
X193572000Y-77985000D02*
X195721000Y-77985000D01*
X189343000Y-77985000D02*
X191492000Y-77985000D01*
X193572000Y-78025000D02*
X195752000Y-78025000D01*
X189312000Y-78025000D02*
X191492000Y-78025000D01*
X193572000Y-78065000D02*
X195782000Y-78065000D01*
X189282000Y-78065000D02*
X191492000Y-78065000D01*
X193572000Y-78105000D02*
X195812000Y-78105000D01*
X189252000Y-78105000D02*
X191492000Y-78105000D01*
X193572000Y-78145000D02*
X195841000Y-78145000D01*
X189223000Y-78145000D02*
X191492000Y-78145000D01*
X193572000Y-78185000D02*
X195870000Y-78185000D01*
X189194000Y-78185000D02*
X191492000Y-78185000D01*
X193572000Y-78225000D02*
X195897000Y-78225000D01*
X189167000Y-78225000D02*
X191492000Y-78225000D01*
X193572000Y-78265000D02*
X195924000Y-78265000D01*
X189140000Y-78265000D02*
X191492000Y-78265000D01*
X193572000Y-78305000D02*
X195950000Y-78305000D01*
X189114000Y-78305000D02*
X191492000Y-78305000D01*
X193572000Y-78345000D02*
X195976000Y-78345000D01*
X189088000Y-78345000D02*
X191492000Y-78345000D01*
X193572000Y-78385000D02*
X196001000Y-78385000D01*
X189063000Y-78385000D02*
X191492000Y-78385000D01*
X193572000Y-78425000D02*
X196025000Y-78425000D01*
X189039000Y-78425000D02*
X191492000Y-78425000D01*
X193572000Y-78465000D02*
X196049000Y-78465000D01*
X189015000Y-78465000D02*
X191492000Y-78465000D01*
X193572000Y-78505000D02*
X196072000Y-78505000D01*
X188992000Y-78505000D02*
X191492000Y-78505000D01*
X193572000Y-78545000D02*
X196094000Y-78545000D01*
X188970000Y-78545000D02*
X191492000Y-78545000D01*
X193572000Y-78585000D02*
X196116000Y-78585000D01*
X188948000Y-78585000D02*
X191492000Y-78585000D01*
X193572000Y-78625000D02*
X196138000Y-78625000D01*
X188926000Y-78625000D02*
X191492000Y-78625000D01*
X193572000Y-78665000D02*
X196159000Y-78665000D01*
X188905000Y-78665000D02*
X191492000Y-78665000D01*
X193572000Y-78705000D02*
X196179000Y-78705000D01*
X188885000Y-78705000D02*
X191492000Y-78705000D01*
X193572000Y-78745000D02*
X196198000Y-78745000D01*
X188866000Y-78745000D02*
X191492000Y-78745000D01*
X193572000Y-78785000D02*
X196218000Y-78785000D01*
X188846000Y-78785000D02*
X191492000Y-78785000D01*
X193572000Y-78825000D02*
X196236000Y-78825000D01*
X188828000Y-78825000D02*
X191492000Y-78825000D01*
X193572000Y-78865000D02*
X196254000Y-78865000D01*
X188810000Y-78865000D02*
X191492000Y-78865000D01*
X193572000Y-78905000D02*
X196272000Y-78905000D01*
X188792000Y-78905000D02*
X191492000Y-78905000D01*
X193572000Y-78945000D02*
X196289000Y-78945000D01*
X188775000Y-78945000D02*
X191492000Y-78945000D01*
X193572000Y-78985000D02*
X196306000Y-78985000D01*
X188758000Y-78985000D02*
X191492000Y-78985000D01*
X193572000Y-79025000D02*
X196322000Y-79025000D01*
X188742000Y-79025000D02*
X191492000Y-79025000D01*
X193572000Y-79065000D02*
X196337000Y-79065000D01*
X188727000Y-79065000D02*
X191492000Y-79065000D01*
X193572000Y-79105000D02*
X196353000Y-79105000D01*
X188711000Y-79105000D02*
X191492000Y-79105000D01*
X193572000Y-79145000D02*
X196367000Y-79145000D01*
X188697000Y-79145000D02*
X191492000Y-79145000D01*
X193572000Y-79185000D02*
X196382000Y-79185000D01*
X188682000Y-79185000D02*
X191492000Y-79185000D01*
X193572000Y-79225000D02*
X196395000Y-79225000D01*
X188669000Y-79225000D02*
X191492000Y-79225000D01*
X193572000Y-79265000D02*
X196409000Y-79265000D01*
X188655000Y-79265000D02*
X191492000Y-79265000D01*
X193572000Y-79305000D02*
X196421000Y-79305000D01*
X188643000Y-79305000D02*
X191492000Y-79305000D01*
X193572000Y-79345000D02*
X196434000Y-79345000D01*
X188630000Y-79345000D02*
X191492000Y-79345000D01*
X193572000Y-79385000D02*
X196446000Y-79385000D01*
X188618000Y-79385000D02*
X191492000Y-79385000D01*
X193572000Y-79425000D02*
X196457000Y-79425000D01*
X188607000Y-79425000D02*
X191492000Y-79425000D01*
X193572000Y-79465000D02*
X196468000Y-79465000D01*
X188596000Y-79465000D02*
X191492000Y-79465000D01*
X193572000Y-79505000D02*
X196479000Y-79505000D01*
X188585000Y-79505000D02*
X191492000Y-79505000D01*
X193572000Y-79545000D02*
X196489000Y-79545000D01*
X188575000Y-79545000D02*
X191492000Y-79545000D01*
X193572000Y-79585000D02*
X196499000Y-79585000D01*
X188565000Y-79585000D02*
X191492000Y-79585000D01*
X193572000Y-79625000D02*
X196508000Y-79625000D01*
X188556000Y-79625000D02*
X191492000Y-79625000D01*
X193572000Y-79665000D02*
X196517000Y-79665000D01*
X188547000Y-79665000D02*
X191492000Y-79665000D01*
X193572000Y-79705000D02*
X196526000Y-79705000D01*
X188538000Y-79705000D02*
X191492000Y-79705000D01*
X193572000Y-79745000D02*
X196534000Y-79745000D01*
X188530000Y-79745000D02*
X191492000Y-79745000D01*
X193572000Y-79785000D02*
X196542000Y-79785000D01*
X188522000Y-79785000D02*
X191492000Y-79785000D01*
X193572000Y-79825000D02*
X196549000Y-79825000D01*
X188515000Y-79825000D02*
X191492000Y-79825000D01*
X188508000Y-79866000D02*
X196556000Y-79866000D01*
X188502000Y-79906000D02*
X196562000Y-79906000D01*
X188495000Y-79946000D02*
X196569000Y-79946000D01*
X188490000Y-79986000D02*
X196574000Y-79986000D01*
X188484000Y-80026000D02*
X196580000Y-80026000D01*
X188480000Y-80066000D02*
X196584000Y-80066000D01*
X188475000Y-80106000D02*
X196589000Y-80106000D01*
X188471000Y-80146000D02*
X196593000Y-80146000D01*
X188467000Y-80186000D02*
X196597000Y-80186000D01*
X188464000Y-80226000D02*
X196600000Y-80226000D01*
X188461000Y-80266000D02*
X196603000Y-80266000D01*
X188458000Y-80306000D02*
X196606000Y-80306000D01*
X188456000Y-80346000D02*
X196608000Y-80346000D01*
X188455000Y-80386000D02*
X196609000Y-80386000D01*
X188453000Y-80426000D02*
X196611000Y-80426000D01*
X188452000Y-80466000D02*
X196612000Y-80466000D01*
X188452000Y-80506000D02*
X196612000Y-80506000D01*
X188452000Y-80546000D02*
X196612000Y-80546000D01*
X196652000Y-80546000D02*
G75*
G03*
X196652000Y-80546000I-4120000J0D01*
G01*
%TO.C,C2*%
X185984000Y-80546000D02*
G75*
G03*
X185984000Y-80546000I-4120000J0D01*
G01*
X177784000Y-80546000D02*
X185944000Y-80546000D01*
X177784000Y-80506000D02*
X185944000Y-80506000D01*
X177784000Y-80466000D02*
X185944000Y-80466000D01*
X177785000Y-80426000D02*
X185943000Y-80426000D01*
X177787000Y-80386000D02*
X185941000Y-80386000D01*
X177788000Y-80346000D02*
X185940000Y-80346000D01*
X177790000Y-80306000D02*
X185938000Y-80306000D01*
X177793000Y-80266000D02*
X185935000Y-80266000D01*
X177796000Y-80226000D02*
X185932000Y-80226000D01*
X177799000Y-80186000D02*
X185929000Y-80186000D01*
X177803000Y-80146000D02*
X185925000Y-80146000D01*
X177807000Y-80106000D02*
X185921000Y-80106000D01*
X177812000Y-80066000D02*
X185916000Y-80066000D01*
X177816000Y-80026000D02*
X185912000Y-80026000D01*
X177822000Y-79986000D02*
X185906000Y-79986000D01*
X177827000Y-79946000D02*
X185901000Y-79946000D01*
X177834000Y-79906000D02*
X185894000Y-79906000D01*
X177840000Y-79866000D02*
X185888000Y-79866000D01*
X177847000Y-79825000D02*
X180824000Y-79825000D01*
X182904000Y-79825000D02*
X185881000Y-79825000D01*
X177854000Y-79785000D02*
X180824000Y-79785000D01*
X182904000Y-79785000D02*
X185874000Y-79785000D01*
X177862000Y-79745000D02*
X180824000Y-79745000D01*
X182904000Y-79745000D02*
X185866000Y-79745000D01*
X177870000Y-79705000D02*
X180824000Y-79705000D01*
X182904000Y-79705000D02*
X185858000Y-79705000D01*
X177879000Y-79665000D02*
X180824000Y-79665000D01*
X182904000Y-79665000D02*
X185849000Y-79665000D01*
X177888000Y-79625000D02*
X180824000Y-79625000D01*
X182904000Y-79625000D02*
X185840000Y-79625000D01*
X177897000Y-79585000D02*
X180824000Y-79585000D01*
X182904000Y-79585000D02*
X185831000Y-79585000D01*
X177907000Y-79545000D02*
X180824000Y-79545000D01*
X182904000Y-79545000D02*
X185821000Y-79545000D01*
X177917000Y-79505000D02*
X180824000Y-79505000D01*
X182904000Y-79505000D02*
X185811000Y-79505000D01*
X177928000Y-79465000D02*
X180824000Y-79465000D01*
X182904000Y-79465000D02*
X185800000Y-79465000D01*
X177939000Y-79425000D02*
X180824000Y-79425000D01*
X182904000Y-79425000D02*
X185789000Y-79425000D01*
X177950000Y-79385000D02*
X180824000Y-79385000D01*
X182904000Y-79385000D02*
X185778000Y-79385000D01*
X177962000Y-79345000D02*
X180824000Y-79345000D01*
X182904000Y-79345000D02*
X185766000Y-79345000D01*
X177975000Y-79305000D02*
X180824000Y-79305000D01*
X182904000Y-79305000D02*
X185753000Y-79305000D01*
X177987000Y-79265000D02*
X180824000Y-79265000D01*
X182904000Y-79265000D02*
X185741000Y-79265000D01*
X178001000Y-79225000D02*
X180824000Y-79225000D01*
X182904000Y-79225000D02*
X185727000Y-79225000D01*
X178014000Y-79185000D02*
X180824000Y-79185000D01*
X182904000Y-79185000D02*
X185714000Y-79185000D01*
X178029000Y-79145000D02*
X180824000Y-79145000D01*
X182904000Y-79145000D02*
X185699000Y-79145000D01*
X178043000Y-79105000D02*
X180824000Y-79105000D01*
X182904000Y-79105000D02*
X185685000Y-79105000D01*
X178059000Y-79065000D02*
X180824000Y-79065000D01*
X182904000Y-79065000D02*
X185669000Y-79065000D01*
X178074000Y-79025000D02*
X180824000Y-79025000D01*
X182904000Y-79025000D02*
X185654000Y-79025000D01*
X178090000Y-78985000D02*
X180824000Y-78985000D01*
X182904000Y-78985000D02*
X185638000Y-78985000D01*
X178107000Y-78945000D02*
X180824000Y-78945000D01*
X182904000Y-78945000D02*
X185621000Y-78945000D01*
X178124000Y-78905000D02*
X180824000Y-78905000D01*
X182904000Y-78905000D02*
X185604000Y-78905000D01*
X178142000Y-78865000D02*
X180824000Y-78865000D01*
X182904000Y-78865000D02*
X185586000Y-78865000D01*
X178160000Y-78825000D02*
X180824000Y-78825000D01*
X182904000Y-78825000D02*
X185568000Y-78825000D01*
X178178000Y-78785000D02*
X180824000Y-78785000D01*
X182904000Y-78785000D02*
X185550000Y-78785000D01*
X178198000Y-78745000D02*
X180824000Y-78745000D01*
X182904000Y-78745000D02*
X185530000Y-78745000D01*
X178217000Y-78705000D02*
X180824000Y-78705000D01*
X182904000Y-78705000D02*
X185511000Y-78705000D01*
X178237000Y-78665000D02*
X180824000Y-78665000D01*
X182904000Y-78665000D02*
X185491000Y-78665000D01*
X178258000Y-78625000D02*
X180824000Y-78625000D01*
X182904000Y-78625000D02*
X185470000Y-78625000D01*
X178280000Y-78585000D02*
X180824000Y-78585000D01*
X182904000Y-78585000D02*
X185448000Y-78585000D01*
X178302000Y-78545000D02*
X180824000Y-78545000D01*
X182904000Y-78545000D02*
X185426000Y-78545000D01*
X178324000Y-78505000D02*
X180824000Y-78505000D01*
X182904000Y-78505000D02*
X185404000Y-78505000D01*
X178347000Y-78465000D02*
X180824000Y-78465000D01*
X182904000Y-78465000D02*
X185381000Y-78465000D01*
X178371000Y-78425000D02*
X180824000Y-78425000D01*
X182904000Y-78425000D02*
X185357000Y-78425000D01*
X178395000Y-78385000D02*
X180824000Y-78385000D01*
X182904000Y-78385000D02*
X185333000Y-78385000D01*
X178420000Y-78345000D02*
X180824000Y-78345000D01*
X182904000Y-78345000D02*
X185308000Y-78345000D01*
X178446000Y-78305000D02*
X180824000Y-78305000D01*
X182904000Y-78305000D02*
X185282000Y-78305000D01*
X178472000Y-78265000D02*
X180824000Y-78265000D01*
X182904000Y-78265000D02*
X185256000Y-78265000D01*
X178499000Y-78225000D02*
X180824000Y-78225000D01*
X182904000Y-78225000D02*
X185229000Y-78225000D01*
X178526000Y-78185000D02*
X180824000Y-78185000D01*
X182904000Y-78185000D02*
X185202000Y-78185000D01*
X178555000Y-78145000D02*
X180824000Y-78145000D01*
X182904000Y-78145000D02*
X185173000Y-78145000D01*
X178584000Y-78105000D02*
X180824000Y-78105000D01*
X182904000Y-78105000D02*
X185144000Y-78105000D01*
X178614000Y-78065000D02*
X180824000Y-78065000D01*
X182904000Y-78065000D02*
X185114000Y-78065000D01*
X178644000Y-78025000D02*
X180824000Y-78025000D01*
X182904000Y-78025000D02*
X185084000Y-78025000D01*
X178675000Y-77985000D02*
X180824000Y-77985000D01*
X182904000Y-77985000D02*
X185053000Y-77985000D01*
X178708000Y-77945000D02*
X180824000Y-77945000D01*
X182904000Y-77945000D02*
X185020000Y-77945000D01*
X178740000Y-77905000D02*
X180824000Y-77905000D01*
X182904000Y-77905000D02*
X184988000Y-77905000D01*
X178774000Y-77865000D02*
X180824000Y-77865000D01*
X182904000Y-77865000D02*
X184954000Y-77865000D01*
X178809000Y-77825000D02*
X180824000Y-77825000D01*
X182904000Y-77825000D02*
X184919000Y-77825000D01*
X178845000Y-77785000D02*
X180824000Y-77785000D01*
X182904000Y-77785000D02*
X184883000Y-77785000D01*
X178881000Y-77745000D02*
X184847000Y-77745000D01*
X178919000Y-77705000D02*
X184809000Y-77705000D01*
X178957000Y-77665000D02*
X184771000Y-77665000D01*
X178997000Y-77625000D02*
X184731000Y-77625000D01*
X179038000Y-77585000D02*
X184690000Y-77585000D01*
X179080000Y-77545000D02*
X184648000Y-77545000D01*
X179123000Y-77505000D02*
X184605000Y-77505000D01*
X179167000Y-77465000D02*
X184561000Y-77465000D01*
X179213000Y-77425000D02*
X184515000Y-77425000D01*
X179260000Y-77385000D02*
X184468000Y-77385000D01*
X179308000Y-77345000D02*
X184420000Y-77345000D01*
X179359000Y-77305000D02*
X184369000Y-77305000D01*
X179410000Y-77265000D02*
X184318000Y-77265000D01*
X179464000Y-77225000D02*
X184264000Y-77225000D01*
X179519000Y-77185000D02*
X184209000Y-77185000D01*
X179577000Y-77145000D02*
X184151000Y-77145000D01*
X179636000Y-77105000D02*
X184092000Y-77105000D01*
X179698000Y-77065000D02*
X184030000Y-77065000D01*
X179762000Y-77025000D02*
X183966000Y-77025000D01*
X179830000Y-76985000D02*
X183898000Y-76985000D01*
X179900000Y-76945000D02*
X183828000Y-76945000D01*
X179974000Y-76905000D02*
X183754000Y-76905000D01*
X180051000Y-76865000D02*
X183677000Y-76865000D01*
X180133000Y-76825000D02*
X183595000Y-76825000D01*
X180219000Y-76785000D02*
X183509000Y-76785000D01*
X180312000Y-76745000D02*
X183416000Y-76745000D01*
X180411000Y-76705000D02*
X183317000Y-76705000D01*
X180518000Y-76665000D02*
X183210000Y-76665000D01*
X180635000Y-76625000D02*
X183093000Y-76625000D01*
X180766000Y-76585000D02*
X182962000Y-76585000D01*
X180916000Y-76545000D02*
X182812000Y-76545000D01*
X181096000Y-76505000D02*
X182632000Y-76505000D01*
X181331000Y-76465000D02*
X182397000Y-76465000D01*
X179549000Y-84955698D02*
X179549000Y-84155698D01*
X179149000Y-84555698D02*
X179949000Y-84555698D01*
%TO.C,D1*%
X167586000Y-92294000D02*
X164646000Y-92294000D01*
X167586000Y-92534000D02*
X164646000Y-92534000D01*
X167586000Y-92414000D02*
X164646000Y-92414000D01*
X164646000Y-96954000D02*
X164776000Y-96954000D01*
X164646000Y-91514000D02*
X164646000Y-96954000D01*
X164776000Y-91514000D02*
X164646000Y-91514000D01*
X167586000Y-96954000D02*
X167456000Y-96954000D01*
X167586000Y-91514000D02*
X167586000Y-96954000D01*
X167456000Y-91514000D02*
X167586000Y-91514000D01*
%TO.C,D2*%
X125168000Y-109566000D02*
X122228000Y-109566000D01*
X125168000Y-109806000D02*
X122228000Y-109806000D01*
X125168000Y-109686000D02*
X122228000Y-109686000D01*
X122228000Y-114226000D02*
X122358000Y-114226000D01*
X122228000Y-108786000D02*
X122228000Y-114226000D01*
X122358000Y-108786000D02*
X122228000Y-108786000D01*
X125168000Y-114226000D02*
X125038000Y-114226000D01*
X125168000Y-108786000D02*
X125168000Y-114226000D01*
X125038000Y-108786000D02*
X125168000Y-108786000D01*
%TO.C,D3*%
X153616000Y-109566000D02*
X150676000Y-109566000D01*
X153616000Y-109806000D02*
X150676000Y-109806000D01*
X153616000Y-109686000D02*
X150676000Y-109686000D01*
X150676000Y-114226000D02*
X150806000Y-114226000D01*
X150676000Y-108786000D02*
X150676000Y-114226000D01*
X150806000Y-108786000D02*
X150676000Y-108786000D01*
X153616000Y-114226000D02*
X153486000Y-114226000D01*
X153616000Y-108786000D02*
X153616000Y-114226000D01*
X153486000Y-108786000D02*
X153616000Y-108786000D01*
%TO.C,5V IN*%
X109220000Y-86868000D02*
X109220000Y-97028000D01*
X116840000Y-86868000D02*
X109220000Y-86868000D01*
X116840000Y-97028000D02*
X116840000Y-86868000D01*
X109220000Y-97028000D02*
X116840000Y-97028000D01*
X110490000Y-97028000D02*
X110490000Y-86868000D01*
%TO.C,K1 OUT*%
X109220000Y-98552000D02*
X109220000Y-113792000D01*
X116840000Y-98552000D02*
X116840000Y-113792000D01*
X110490000Y-98552000D02*
X110490000Y-113792000D01*
X109220000Y-113792000D02*
X116840000Y-113792000D01*
X109220000Y-98552000D02*
X116840000Y-98552000D01*
%TO.C,K2 OUT*%
X109220000Y-115316000D02*
X116840000Y-115316000D01*
X109220000Y-130556000D02*
X116840000Y-130556000D01*
X110490000Y-115316000D02*
X110490000Y-130556000D01*
X116840000Y-115316000D02*
X116840000Y-130556000D01*
X109220000Y-115316000D02*
X109220000Y-130556000D01*
%TO.C,K1*%
X131486000Y-110156000D02*
X131486000Y-107006000D01*
X131486000Y-116006000D02*
X131486000Y-112856000D01*
X126376000Y-112506000D02*
X126376000Y-110506000D01*
X132086000Y-111856000D02*
X132086000Y-111156000D01*
X130886000Y-111856000D02*
X132086000Y-111856000D01*
X130886000Y-111156000D02*
X130886000Y-111856000D01*
X132086000Y-111156000D02*
X130886000Y-111156000D01*
X131686000Y-111856000D02*
X131286000Y-111156000D01*
X149336000Y-119856000D02*
X149336000Y-103156000D01*
X126636000Y-119856000D02*
X149336000Y-119856000D01*
X126636000Y-103156000D02*
X126636000Y-119856000D01*
X149336000Y-103156000D02*
X126636000Y-103156000D01*
%TO.C,K2*%
X159934000Y-110156000D02*
X159934000Y-107006000D01*
X159934000Y-116006000D02*
X159934000Y-112856000D01*
X154824000Y-112506000D02*
X154824000Y-110506000D01*
X160534000Y-111856000D02*
X160534000Y-111156000D01*
X159334000Y-111856000D02*
X160534000Y-111856000D01*
X159334000Y-111156000D02*
X159334000Y-111856000D01*
X160534000Y-111156000D02*
X159334000Y-111156000D01*
X160134000Y-111856000D02*
X159734000Y-111156000D01*
X177784000Y-119856000D02*
X177784000Y-103156000D01*
X155084000Y-119856000D02*
X177784000Y-119856000D01*
X155084000Y-103156000D02*
X155084000Y-119856000D01*
X177784000Y-103156000D02*
X155084000Y-103156000D01*
D14*
%TO.C,HLK-5M05*%
X121778000Y-85446000D02*
G75*
G03*
X121778000Y-85446000I-100000J0D01*
G01*
D15*
X160478000Y-77146000D02*
X122478000Y-77146000D01*
X160478000Y-100146000D02*
X160478000Y-77146000D01*
X122478000Y-100146000D02*
X160478000Y-100146000D01*
X122478000Y-77146000D02*
X122478000Y-100146000D01*
D11*
%TO.C,Q1*%
X170920000Y-83384000D02*
X174520000Y-83384000D01*
X174558478Y-83372478D02*
G75*
G03*
X172720000Y-78934000I-1838478J1838478D01*
G01*
X170881522Y-83372478D02*
G75*
G02*
X172720000Y-78934000I1838478J1838478D01*
G01*
%TO.C,Q2*%
X182096000Y-119706000D02*
X185696000Y-119706000D01*
X185734478Y-119694478D02*
G75*
G03*
X183896000Y-115256000I-1838478J1838478D01*
G01*
X182057522Y-119694478D02*
G75*
G02*
X183896000Y-115256000I1838478J1838478D01*
G01*
%TO.C,Q3*%
X189462000Y-119706000D02*
X193062000Y-119706000D01*
X193100478Y-119694478D02*
G75*
G03*
X191262000Y-115256000I-1838478J1838478D01*
G01*
X189423522Y-119694478D02*
G75*
G02*
X191262000Y-115256000I1838478J1838478D01*
G01*
%TO.C,R1*%
X164746000Y-85820000D02*
X165076000Y-85820000D01*
X164746000Y-79280000D02*
X164746000Y-85820000D01*
X165076000Y-79280000D02*
X164746000Y-79280000D01*
X167486000Y-85820000D02*
X167156000Y-85820000D01*
X167486000Y-79280000D02*
X167486000Y-85820000D01*
X167156000Y-79280000D02*
X167486000Y-79280000D01*
%TO.C,R2*%
X180316000Y-97504000D02*
X179986000Y-97504000D01*
X179986000Y-97504000D02*
X179986000Y-90964000D01*
X179986000Y-90964000D02*
X180316000Y-90964000D01*
X182396000Y-97504000D02*
X182726000Y-97504000D01*
X182726000Y-97504000D02*
X182726000Y-90964000D01*
X182726000Y-90964000D02*
X182396000Y-90964000D01*
%TO.C,R3*%
X185142000Y-97504000D02*
X184812000Y-97504000D01*
X184812000Y-97504000D02*
X184812000Y-90964000D01*
X184812000Y-90964000D02*
X185142000Y-90964000D01*
X187222000Y-97504000D02*
X187552000Y-97504000D01*
X187552000Y-97504000D02*
X187552000Y-90964000D01*
X187552000Y-90964000D02*
X187222000Y-90964000D01*
%TO.C,R4*%
X189638000Y-97504000D02*
X189968000Y-97504000D01*
X189638000Y-90964000D02*
X189638000Y-97504000D01*
X189968000Y-90964000D02*
X189638000Y-90964000D01*
X192378000Y-97504000D02*
X192048000Y-97504000D01*
X192378000Y-90964000D02*
X192378000Y-97504000D01*
X192048000Y-90964000D02*
X192378000Y-90964000D01*
%TO.C,R5*%
X185266000Y-104680000D02*
X184936000Y-104680000D01*
X185266000Y-111220000D02*
X185266000Y-104680000D01*
X184936000Y-111220000D02*
X185266000Y-111220000D01*
X182526000Y-104680000D02*
X182856000Y-104680000D01*
X182526000Y-111220000D02*
X182526000Y-104680000D01*
X182856000Y-111220000D02*
X182526000Y-111220000D01*
%TO.C,R6*%
X190222000Y-111220000D02*
X189892000Y-111220000D01*
X189892000Y-111220000D02*
X189892000Y-104680000D01*
X189892000Y-104680000D02*
X190222000Y-104680000D01*
X192302000Y-111220000D02*
X192632000Y-111220000D01*
X192632000Y-111220000D02*
X192632000Y-104680000D01*
X192632000Y-104680000D02*
X192302000Y-104680000D01*
%TO.C,Reset*%
X135112000Y-129452000D02*
X139612000Y-129452000D01*
X133862000Y-125452000D02*
X133862000Y-126952000D01*
X139612000Y-122952000D02*
X135112000Y-122952000D01*
X140862000Y-126952000D02*
X140862000Y-125452000D01*
%TO.C,Flash*%
X162310000Y-125452000D02*
X162310000Y-126952000D01*
X163560000Y-129452000D02*
X168060000Y-129452000D01*
X169310000Y-126952000D02*
X169310000Y-125452000D01*
X168060000Y-122952000D02*
X163560000Y-122952000D01*
D16*
%TO.C,ESP-01*%
X176530000Y-89154000D02*
X173990000Y-89154000D01*
X176530000Y-99314000D02*
X176530000Y-89154000D01*
X171450000Y-99314000D02*
X176530000Y-99314000D01*
X171450000Y-91694000D02*
X171450000Y-99314000D01*
X171450000Y-89154000D02*
X171450000Y-91694000D01*
X173990000Y-89154000D02*
X171450000Y-89154000D01*
D17*
X170942000Y-101346000D02*
X170942000Y-87122000D01*
X195580000Y-101346000D02*
X170942000Y-101346000D01*
X195580000Y-87122000D02*
X195580000Y-101346000D01*
X170942000Y-87122000D02*
X195580000Y-87122000D01*
%TO.C,AC IN*%
D12*
X118530666Y-82144952D02*
X118530666Y-81668761D01*
X118816380Y-82240190D02*
X117816380Y-81906857D01*
X118816380Y-81573523D01*
X118721142Y-80668761D02*
X118768761Y-80716380D01*
X118816380Y-80859238D01*
X118816380Y-80954476D01*
X118768761Y-81097333D01*
X118673523Y-81192571D01*
X118578285Y-81240190D01*
X118387809Y-81287809D01*
X118244952Y-81287809D01*
X118054476Y-81240190D01*
X117959238Y-81192571D01*
X117864000Y-81097333D01*
X117816380Y-80954476D01*
X117816380Y-80859238D01*
X117864000Y-80716380D01*
X117911619Y-80668761D01*
X118816380Y-79478285D02*
X117816380Y-79478285D01*
X118816380Y-79002095D02*
X117816380Y-79002095D01*
X118816380Y-78430666D01*
X117816380Y-78430666D01*
%TO.C,FTDI IN*%
X183300952Y-122864571D02*
X182967619Y-122864571D01*
X182967619Y-123388380D02*
X182967619Y-122388380D01*
X183443809Y-122388380D01*
X183681904Y-122388380D02*
X184253333Y-122388380D01*
X183967619Y-123388380D02*
X183967619Y-122388380D01*
X184586666Y-123388380D02*
X184586666Y-122388380D01*
X184824761Y-122388380D01*
X184967619Y-122436000D01*
X185062857Y-122531238D01*
X185110476Y-122626476D01*
X185158095Y-122816952D01*
X185158095Y-122959809D01*
X185110476Y-123150285D01*
X185062857Y-123245523D01*
X184967619Y-123340761D01*
X184824761Y-123388380D01*
X184586666Y-123388380D01*
X185586666Y-123388380D02*
X185586666Y-122388380D01*
X186824761Y-123388380D02*
X186824761Y-122388380D01*
X187300952Y-123388380D02*
X187300952Y-122388380D01*
X187872380Y-123388380D01*
X187872380Y-122388380D01*
%TO.C,C1*%
X187639142Y-80712666D02*
X187686761Y-80760285D01*
X187734380Y-80903142D01*
X187734380Y-80998380D01*
X187686761Y-81141238D01*
X187591523Y-81236476D01*
X187496285Y-81284095D01*
X187305809Y-81331714D01*
X187162952Y-81331714D01*
X186972476Y-81284095D01*
X186877238Y-81236476D01*
X186782000Y-81141238D01*
X186734380Y-80998380D01*
X186734380Y-80903142D01*
X186782000Y-80760285D01*
X186829619Y-80712666D01*
X187734380Y-79760285D02*
X187734380Y-80331714D01*
X187734380Y-80046000D02*
X186734380Y-80046000D01*
X186877238Y-80141238D01*
X186972476Y-80236476D01*
X187020095Y-80331714D01*
%TO.C,C2*%
X176971142Y-80712666D02*
X177018761Y-80760285D01*
X177066380Y-80903142D01*
X177066380Y-80998380D01*
X177018761Y-81141238D01*
X176923523Y-81236476D01*
X176828285Y-81284095D01*
X176637809Y-81331714D01*
X176494952Y-81331714D01*
X176304476Y-81284095D01*
X176209238Y-81236476D01*
X176114000Y-81141238D01*
X176066380Y-80998380D01*
X176066380Y-80903142D01*
X176114000Y-80760285D01*
X176161619Y-80712666D01*
X176161619Y-80331714D02*
X176114000Y-80284095D01*
X176066380Y-80188857D01*
X176066380Y-79950761D01*
X176114000Y-79855523D01*
X176161619Y-79807904D01*
X176256857Y-79760285D01*
X176352095Y-79760285D01*
X176494952Y-79807904D01*
X177066380Y-80379333D01*
X177066380Y-79760285D01*
%TO.C,D1*%
X169038380Y-94972095D02*
X168038380Y-94972095D01*
X168038380Y-94734000D01*
X168086000Y-94591142D01*
X168181238Y-94495904D01*
X168276476Y-94448285D01*
X168466952Y-94400666D01*
X168609809Y-94400666D01*
X168800285Y-94448285D01*
X168895523Y-94495904D01*
X168990761Y-94591142D01*
X169038380Y-94734000D01*
X169038380Y-94972095D01*
X169038380Y-93448285D02*
X169038380Y-94019714D01*
X169038380Y-93734000D02*
X168038380Y-93734000D01*
X168181238Y-93829238D01*
X168276476Y-93924476D01*
X168324095Y-94019714D01*
%TO.C,D2*%
X124150380Y-105386095D02*
X123150380Y-105386095D01*
X123150380Y-105148000D01*
X123198000Y-105005142D01*
X123293238Y-104909904D01*
X123388476Y-104862285D01*
X123578952Y-104814666D01*
X123721809Y-104814666D01*
X123912285Y-104862285D01*
X124007523Y-104909904D01*
X124102761Y-105005142D01*
X124150380Y-105148000D01*
X124150380Y-105386095D01*
X123245619Y-104433714D02*
X123198000Y-104386095D01*
X123150380Y-104290857D01*
X123150380Y-104052761D01*
X123198000Y-103957523D01*
X123245619Y-103909904D01*
X123340857Y-103862285D01*
X123436095Y-103862285D01*
X123578952Y-103909904D01*
X124150380Y-104481333D01*
X124150380Y-103862285D01*
%TO.C,D3*%
X152598380Y-105386095D02*
X151598380Y-105386095D01*
X151598380Y-105148000D01*
X151646000Y-105005142D01*
X151741238Y-104909904D01*
X151836476Y-104862285D01*
X152026952Y-104814666D01*
X152169809Y-104814666D01*
X152360285Y-104862285D01*
X152455523Y-104909904D01*
X152550761Y-105005142D01*
X152598380Y-105148000D01*
X152598380Y-105386095D01*
X151598380Y-104481333D02*
X151598380Y-103862285D01*
X151979333Y-104195619D01*
X151979333Y-104052761D01*
X152026952Y-103957523D01*
X152074571Y-103909904D01*
X152169809Y-103862285D01*
X152407904Y-103862285D01*
X152503142Y-103909904D01*
X152550761Y-103957523D01*
X152598380Y-104052761D01*
X152598380Y-104338476D01*
X152550761Y-104433714D01*
X152503142Y-104481333D01*
%TO.C,5V IN*%
X120102380Y-93281333D02*
X120102380Y-93757523D01*
X120578571Y-93805142D01*
X120530952Y-93757523D01*
X120483333Y-93662285D01*
X120483333Y-93424190D01*
X120530952Y-93328952D01*
X120578571Y-93281333D01*
X120673809Y-93233714D01*
X120911904Y-93233714D01*
X121007142Y-93281333D01*
X121054761Y-93328952D01*
X121102380Y-93424190D01*
X121102380Y-93662285D01*
X121054761Y-93757523D01*
X121007142Y-93805142D01*
X120102380Y-92948000D02*
X121102380Y-92614666D01*
X120102380Y-92281333D01*
X121102380Y-91186095D02*
X120102380Y-91186095D01*
X121102380Y-90709904D02*
X120102380Y-90709904D01*
X121102380Y-90138476D01*
X120102380Y-90138476D01*
%TO.C,K1 OUT*%
X120926380Y-108689619D02*
X119926380Y-108689619D01*
X120926380Y-108118190D02*
X120354952Y-108546761D01*
X119926380Y-108118190D02*
X120497809Y-108689619D01*
X120926380Y-107165809D02*
X120926380Y-107737238D01*
X120926380Y-107451523D02*
X119926380Y-107451523D01*
X120069238Y-107546761D01*
X120164476Y-107642000D01*
X120212095Y-107737238D01*
X119926380Y-105784857D02*
X119926380Y-105594380D01*
X119974000Y-105499142D01*
X120069238Y-105403904D01*
X120259714Y-105356285D01*
X120593047Y-105356285D01*
X120783523Y-105403904D01*
X120878761Y-105499142D01*
X120926380Y-105594380D01*
X120926380Y-105784857D01*
X120878761Y-105880095D01*
X120783523Y-105975333D01*
X120593047Y-106022952D01*
X120259714Y-106022952D01*
X120069238Y-105975333D01*
X119974000Y-105880095D01*
X119926380Y-105784857D01*
X119926380Y-104927714D02*
X120735904Y-104927714D01*
X120831142Y-104880095D01*
X120878761Y-104832476D01*
X120926380Y-104737238D01*
X120926380Y-104546761D01*
X120878761Y-104451523D01*
X120831142Y-104403904D01*
X120735904Y-104356285D01*
X119926380Y-104356285D01*
X119926380Y-104022952D02*
X119926380Y-103451523D01*
X120926380Y-103737238D02*
X119926380Y-103737238D01*
%TO.C,K2 OUT*%
X120926380Y-125453619D02*
X119926380Y-125453619D01*
X120926380Y-124882190D02*
X120354952Y-125310761D01*
X119926380Y-124882190D02*
X120497809Y-125453619D01*
X120021619Y-124501238D02*
X119974000Y-124453619D01*
X119926380Y-124358380D01*
X119926380Y-124120285D01*
X119974000Y-124025047D01*
X120021619Y-123977428D01*
X120116857Y-123929809D01*
X120212095Y-123929809D01*
X120354952Y-123977428D01*
X120926380Y-124548857D01*
X120926380Y-123929809D01*
X119926380Y-122548857D02*
X119926380Y-122358380D01*
X119974000Y-122263142D01*
X120069238Y-122167904D01*
X120259714Y-122120285D01*
X120593047Y-122120285D01*
X120783523Y-122167904D01*
X120878761Y-122263142D01*
X120926380Y-122358380D01*
X120926380Y-122548857D01*
X120878761Y-122644095D01*
X120783523Y-122739333D01*
X120593047Y-122786952D01*
X120259714Y-122786952D01*
X120069238Y-122739333D01*
X119974000Y-122644095D01*
X119926380Y-122548857D01*
X119926380Y-121691714D02*
X120735904Y-121691714D01*
X120831142Y-121644095D01*
X120878761Y-121596476D01*
X120926380Y-121501238D01*
X120926380Y-121310761D01*
X120878761Y-121215523D01*
X120831142Y-121167904D01*
X120735904Y-121120285D01*
X119926380Y-121120285D01*
X119926380Y-120786952D02*
X119926380Y-120215523D01*
X120926380Y-120501238D02*
X119926380Y-120501238D01*
%TO.C,K1*%
X125928380Y-119356095D02*
X124928380Y-119356095D01*
X125928380Y-118784666D02*
X125356952Y-119213238D01*
X124928380Y-118784666D02*
X125499809Y-119356095D01*
X125928380Y-117832285D02*
X125928380Y-118403714D01*
X125928380Y-118118000D02*
X124928380Y-118118000D01*
X125071238Y-118213238D01*
X125166476Y-118308476D01*
X125214095Y-118403714D01*
%TO.C,K2*%
X154376380Y-119356095D02*
X153376380Y-119356095D01*
X154376380Y-118784666D02*
X153804952Y-119213238D01*
X153376380Y-118784666D02*
X153947809Y-119356095D01*
X153471619Y-118403714D02*
X153424000Y-118356095D01*
X153376380Y-118260857D01*
X153376380Y-118022761D01*
X153424000Y-117927523D01*
X153471619Y-117879904D01*
X153566857Y-117832285D01*
X153662095Y-117832285D01*
X153804952Y-117879904D01*
X154376380Y-118451333D01*
X154376380Y-117832285D01*
%TO.C,HLK-5M05*%
X123190476Y-76144380D02*
X123190476Y-75144380D01*
X123190476Y-75620571D02*
X123761904Y-75620571D01*
X123761904Y-76144380D02*
X123761904Y-75144380D01*
X124714285Y-76144380D02*
X124238095Y-76144380D01*
X124238095Y-75144380D01*
X125047619Y-76144380D02*
X125047619Y-75144380D01*
X125619047Y-76144380D02*
X125190476Y-75572952D01*
X125619047Y-75144380D02*
X125047619Y-75715809D01*
X126047619Y-75763428D02*
X126809523Y-75763428D01*
X127761904Y-75144380D02*
X127285714Y-75144380D01*
X127238095Y-75620571D01*
X127285714Y-75572952D01*
X127380952Y-75525333D01*
X127619047Y-75525333D01*
X127714285Y-75572952D01*
X127761904Y-75620571D01*
X127809523Y-75715809D01*
X127809523Y-75953904D01*
X127761904Y-76049142D01*
X127714285Y-76096761D01*
X127619047Y-76144380D01*
X127380952Y-76144380D01*
X127285714Y-76096761D01*
X127238095Y-76049142D01*
X128238095Y-76144380D02*
X128238095Y-75144380D01*
X128571428Y-75858666D01*
X128904761Y-75144380D01*
X128904761Y-76144380D01*
X129571428Y-75144380D02*
X129666666Y-75144380D01*
X129761904Y-75192000D01*
X129809523Y-75239619D01*
X129857142Y-75334857D01*
X129904761Y-75525333D01*
X129904761Y-75763428D01*
X129857142Y-75953904D01*
X129809523Y-76049142D01*
X129761904Y-76096761D01*
X129666666Y-76144380D01*
X129571428Y-76144380D01*
X129476190Y-76096761D01*
X129428571Y-76049142D01*
X129380952Y-75953904D01*
X129333333Y-75763428D01*
X129333333Y-75525333D01*
X129380952Y-75334857D01*
X129428571Y-75239619D01*
X129476190Y-75192000D01*
X129571428Y-75144380D01*
X130809523Y-75144380D02*
X130333333Y-75144380D01*
X130285714Y-75620571D01*
X130333333Y-75572952D01*
X130428571Y-75525333D01*
X130666666Y-75525333D01*
X130761904Y-75572952D01*
X130809523Y-75620571D01*
X130857142Y-75715809D01*
X130857142Y-75953904D01*
X130809523Y-76049142D01*
X130761904Y-76096761D01*
X130666666Y-76144380D01*
X130428571Y-76144380D01*
X130333333Y-76096761D01*
X130285714Y-76049142D01*
%TO.C,Q1*%
X172624761Y-78521619D02*
X172529523Y-78474000D01*
X172434285Y-78378761D01*
X172291428Y-78235904D01*
X172196190Y-78188285D01*
X172100952Y-78188285D01*
X172148571Y-78426380D02*
X172053333Y-78378761D01*
X171958095Y-78283523D01*
X171910476Y-78093047D01*
X171910476Y-77759714D01*
X171958095Y-77569238D01*
X172053333Y-77474000D01*
X172148571Y-77426380D01*
X172339047Y-77426380D01*
X172434285Y-77474000D01*
X172529523Y-77569238D01*
X172577142Y-77759714D01*
X172577142Y-78093047D01*
X172529523Y-78283523D01*
X172434285Y-78378761D01*
X172339047Y-78426380D01*
X172148571Y-78426380D01*
X173529523Y-78426380D02*
X172958095Y-78426380D01*
X173243809Y-78426380D02*
X173243809Y-77426380D01*
X173148571Y-77569238D01*
X173053333Y-77664476D01*
X172958095Y-77712095D01*
%TO.C,Q2*%
X183800761Y-114843619D02*
X183705523Y-114796000D01*
X183610285Y-114700761D01*
X183467428Y-114557904D01*
X183372190Y-114510285D01*
X183276952Y-114510285D01*
X183324571Y-114748380D02*
X183229333Y-114700761D01*
X183134095Y-114605523D01*
X183086476Y-114415047D01*
X183086476Y-114081714D01*
X183134095Y-113891238D01*
X183229333Y-113796000D01*
X183324571Y-113748380D01*
X183515047Y-113748380D01*
X183610285Y-113796000D01*
X183705523Y-113891238D01*
X183753142Y-114081714D01*
X183753142Y-114415047D01*
X183705523Y-114605523D01*
X183610285Y-114700761D01*
X183515047Y-114748380D01*
X183324571Y-114748380D01*
X184134095Y-113843619D02*
X184181714Y-113796000D01*
X184276952Y-113748380D01*
X184515047Y-113748380D01*
X184610285Y-113796000D01*
X184657904Y-113843619D01*
X184705523Y-113938857D01*
X184705523Y-114034095D01*
X184657904Y-114176952D01*
X184086476Y-114748380D01*
X184705523Y-114748380D01*
%TO.C,Q3*%
X191166761Y-114843619D02*
X191071523Y-114796000D01*
X190976285Y-114700761D01*
X190833428Y-114557904D01*
X190738190Y-114510285D01*
X190642952Y-114510285D01*
X190690571Y-114748380D02*
X190595333Y-114700761D01*
X190500095Y-114605523D01*
X190452476Y-114415047D01*
X190452476Y-114081714D01*
X190500095Y-113891238D01*
X190595333Y-113796000D01*
X190690571Y-113748380D01*
X190881047Y-113748380D01*
X190976285Y-113796000D01*
X191071523Y-113891238D01*
X191119142Y-114081714D01*
X191119142Y-114415047D01*
X191071523Y-114605523D01*
X190976285Y-114700761D01*
X190881047Y-114748380D01*
X190690571Y-114748380D01*
X191452476Y-113748380D02*
X192071523Y-113748380D01*
X191738190Y-114129333D01*
X191881047Y-114129333D01*
X191976285Y-114176952D01*
X192023904Y-114224571D01*
X192071523Y-114319809D01*
X192071523Y-114557904D01*
X192023904Y-114653142D01*
X191976285Y-114700761D01*
X191881047Y-114748380D01*
X191595333Y-114748380D01*
X191500095Y-114700761D01*
X191452476Y-114653142D01*
%TO.C,R1*%
X168938380Y-82716666D02*
X168462190Y-83050000D01*
X168938380Y-83288095D02*
X167938380Y-83288095D01*
X167938380Y-82907142D01*
X167986000Y-82811904D01*
X168033619Y-82764285D01*
X168128857Y-82716666D01*
X168271714Y-82716666D01*
X168366952Y-82764285D01*
X168414571Y-82811904D01*
X168462190Y-82907142D01*
X168462190Y-83288095D01*
X168938380Y-81764285D02*
X168938380Y-82335714D01*
X168938380Y-82050000D02*
X167938380Y-82050000D01*
X168081238Y-82145238D01*
X168176476Y-82240476D01*
X168224095Y-82335714D01*
%TO.C,R2*%
X179438380Y-94400666D02*
X178962190Y-94734000D01*
X179438380Y-94972095D02*
X178438380Y-94972095D01*
X178438380Y-94591142D01*
X178486000Y-94495904D01*
X178533619Y-94448285D01*
X178628857Y-94400666D01*
X178771714Y-94400666D01*
X178866952Y-94448285D01*
X178914571Y-94495904D01*
X178962190Y-94591142D01*
X178962190Y-94972095D01*
X178533619Y-94019714D02*
X178486000Y-93972095D01*
X178438380Y-93876857D01*
X178438380Y-93638761D01*
X178486000Y-93543523D01*
X178533619Y-93495904D01*
X178628857Y-93448285D01*
X178724095Y-93448285D01*
X178866952Y-93495904D01*
X179438380Y-94067333D01*
X179438380Y-93448285D01*
%TO.C,R3*%
X184264380Y-94400666D02*
X183788190Y-94734000D01*
X184264380Y-94972095D02*
X183264380Y-94972095D01*
X183264380Y-94591142D01*
X183312000Y-94495904D01*
X183359619Y-94448285D01*
X183454857Y-94400666D01*
X183597714Y-94400666D01*
X183692952Y-94448285D01*
X183740571Y-94495904D01*
X183788190Y-94591142D01*
X183788190Y-94972095D01*
X183264380Y-94067333D02*
X183264380Y-93448285D01*
X183645333Y-93781619D01*
X183645333Y-93638761D01*
X183692952Y-93543523D01*
X183740571Y-93495904D01*
X183835809Y-93448285D01*
X184073904Y-93448285D01*
X184169142Y-93495904D01*
X184216761Y-93543523D01*
X184264380Y-93638761D01*
X184264380Y-93924476D01*
X184216761Y-94019714D01*
X184169142Y-94067333D01*
%TO.C,R4*%
X189174380Y-94400666D02*
X188698190Y-94734000D01*
X189174380Y-94972095D02*
X188174380Y-94972095D01*
X188174380Y-94591142D01*
X188222000Y-94495904D01*
X188269619Y-94448285D01*
X188364857Y-94400666D01*
X188507714Y-94400666D01*
X188602952Y-94448285D01*
X188650571Y-94495904D01*
X188698190Y-94591142D01*
X188698190Y-94972095D01*
X188507714Y-93543523D02*
X189174380Y-93543523D01*
X188126761Y-93781619D02*
X188841047Y-94019714D01*
X188841047Y-93400666D01*
%TO.C,R5*%
X181978380Y-108116666D02*
X181502190Y-108450000D01*
X181978380Y-108688095D02*
X180978380Y-108688095D01*
X180978380Y-108307142D01*
X181026000Y-108211904D01*
X181073619Y-108164285D01*
X181168857Y-108116666D01*
X181311714Y-108116666D01*
X181406952Y-108164285D01*
X181454571Y-108211904D01*
X181502190Y-108307142D01*
X181502190Y-108688095D01*
X180978380Y-107211904D02*
X180978380Y-107688095D01*
X181454571Y-107735714D01*
X181406952Y-107688095D01*
X181359333Y-107592857D01*
X181359333Y-107354761D01*
X181406952Y-107259523D01*
X181454571Y-107211904D01*
X181549809Y-107164285D01*
X181787904Y-107164285D01*
X181883142Y-107211904D01*
X181930761Y-107259523D01*
X181978380Y-107354761D01*
X181978380Y-107592857D01*
X181930761Y-107688095D01*
X181883142Y-107735714D01*
%TO.C,R6*%
X189344380Y-108116666D02*
X188868190Y-108450000D01*
X189344380Y-108688095D02*
X188344380Y-108688095D01*
X188344380Y-108307142D01*
X188392000Y-108211904D01*
X188439619Y-108164285D01*
X188534857Y-108116666D01*
X188677714Y-108116666D01*
X188772952Y-108164285D01*
X188820571Y-108211904D01*
X188868190Y-108307142D01*
X188868190Y-108688095D01*
X188344380Y-107259523D02*
X188344380Y-107450000D01*
X188392000Y-107545238D01*
X188439619Y-107592857D01*
X188582476Y-107688095D01*
X188772952Y-107735714D01*
X189153904Y-107735714D01*
X189249142Y-107688095D01*
X189296761Y-107640476D01*
X189344380Y-107545238D01*
X189344380Y-107354761D01*
X189296761Y-107259523D01*
X189249142Y-107211904D01*
X189153904Y-107164285D01*
X188915809Y-107164285D01*
X188820571Y-107211904D01*
X188772952Y-107259523D01*
X188725333Y-107354761D01*
X188725333Y-107545238D01*
X188772952Y-107640476D01*
X188820571Y-107688095D01*
X188915809Y-107735714D01*
%TO.C,Reset*%
X136123904Y-121896380D02*
X135790571Y-121420190D01*
X135552476Y-121896380D02*
X135552476Y-120896380D01*
X135933428Y-120896380D01*
X136028666Y-120944000D01*
X136076285Y-120991619D01*
X136123904Y-121086857D01*
X136123904Y-121229714D01*
X136076285Y-121324952D01*
X136028666Y-121372571D01*
X135933428Y-121420190D01*
X135552476Y-121420190D01*
X136933428Y-121848761D02*
X136838190Y-121896380D01*
X136647714Y-121896380D01*
X136552476Y-121848761D01*
X136504857Y-121753523D01*
X136504857Y-121372571D01*
X136552476Y-121277333D01*
X136647714Y-121229714D01*
X136838190Y-121229714D01*
X136933428Y-121277333D01*
X136981047Y-121372571D01*
X136981047Y-121467809D01*
X136504857Y-121563047D01*
X137362000Y-121848761D02*
X137457238Y-121896380D01*
X137647714Y-121896380D01*
X137742952Y-121848761D01*
X137790571Y-121753523D01*
X137790571Y-121705904D01*
X137742952Y-121610666D01*
X137647714Y-121563047D01*
X137504857Y-121563047D01*
X137409619Y-121515428D01*
X137362000Y-121420190D01*
X137362000Y-121372571D01*
X137409619Y-121277333D01*
X137504857Y-121229714D01*
X137647714Y-121229714D01*
X137742952Y-121277333D01*
X138600095Y-121848761D02*
X138504857Y-121896380D01*
X138314380Y-121896380D01*
X138219142Y-121848761D01*
X138171523Y-121753523D01*
X138171523Y-121372571D01*
X138219142Y-121277333D01*
X138314380Y-121229714D01*
X138504857Y-121229714D01*
X138600095Y-121277333D01*
X138647714Y-121372571D01*
X138647714Y-121467809D01*
X138171523Y-121563047D01*
X138933428Y-121229714D02*
X139314380Y-121229714D01*
X139076285Y-120896380D02*
X139076285Y-121753523D01*
X139123904Y-121848761D01*
X139219142Y-121896380D01*
X139314380Y-121896380D01*
%TO.C,Flash*%
X164381428Y-121340571D02*
X164048095Y-121340571D01*
X164048095Y-121864380D02*
X164048095Y-120864380D01*
X164524285Y-120864380D01*
X165048095Y-121864380D02*
X164952857Y-121816761D01*
X164905238Y-121721523D01*
X164905238Y-120864380D01*
X165857619Y-121864380D02*
X165857619Y-121340571D01*
X165810000Y-121245333D01*
X165714761Y-121197714D01*
X165524285Y-121197714D01*
X165429047Y-121245333D01*
X165857619Y-121816761D02*
X165762380Y-121864380D01*
X165524285Y-121864380D01*
X165429047Y-121816761D01*
X165381428Y-121721523D01*
X165381428Y-121626285D01*
X165429047Y-121531047D01*
X165524285Y-121483428D01*
X165762380Y-121483428D01*
X165857619Y-121435809D01*
X166286190Y-121816761D02*
X166381428Y-121864380D01*
X166571904Y-121864380D01*
X166667142Y-121816761D01*
X166714761Y-121721523D01*
X166714761Y-121673904D01*
X166667142Y-121578666D01*
X166571904Y-121531047D01*
X166429047Y-121531047D01*
X166333809Y-121483428D01*
X166286190Y-121388190D01*
X166286190Y-121340571D01*
X166333809Y-121245333D01*
X166429047Y-121197714D01*
X166571904Y-121197714D01*
X166667142Y-121245333D01*
X167143333Y-121864380D02*
X167143333Y-120864380D01*
X167571904Y-121864380D02*
X167571904Y-121340571D01*
X167524285Y-121245333D01*
X167429047Y-121197714D01*
X167286190Y-121197714D01*
X167190952Y-121245333D01*
X167143333Y-121292952D01*
%TO.C,ESP-01*%
X197032571Y-96995904D02*
X197032571Y-96662571D01*
X197556380Y-96519714D02*
X197556380Y-96995904D01*
X196556380Y-96995904D01*
X196556380Y-96519714D01*
X197508761Y-96138761D02*
X197556380Y-95995904D01*
X197556380Y-95757809D01*
X197508761Y-95662571D01*
X197461142Y-95614952D01*
X197365904Y-95567333D01*
X197270666Y-95567333D01*
X197175428Y-95614952D01*
X197127809Y-95662571D01*
X197080190Y-95757809D01*
X197032571Y-95948285D01*
X196984952Y-96043523D01*
X196937333Y-96091142D01*
X196842095Y-96138761D01*
X196746857Y-96138761D01*
X196651619Y-96091142D01*
X196604000Y-96043523D01*
X196556380Y-95948285D01*
X196556380Y-95710190D01*
X196604000Y-95567333D01*
X197556380Y-95138761D02*
X196556380Y-95138761D01*
X196556380Y-94757809D01*
X196604000Y-94662571D01*
X196651619Y-94614952D01*
X196746857Y-94567333D01*
X196889714Y-94567333D01*
X196984952Y-94614952D01*
X197032571Y-94662571D01*
X197080190Y-94757809D01*
X197080190Y-95138761D01*
X197175428Y-94138761D02*
X197175428Y-93376857D01*
X196556380Y-92710190D02*
X196556380Y-92614952D01*
X196604000Y-92519714D01*
X196651619Y-92472095D01*
X196746857Y-92424476D01*
X196937333Y-92376857D01*
X197175428Y-92376857D01*
X197365904Y-92424476D01*
X197461142Y-92472095D01*
X197508761Y-92519714D01*
X197556380Y-92614952D01*
X197556380Y-92710190D01*
X197508761Y-92805428D01*
X197461142Y-92853047D01*
X197365904Y-92900666D01*
X197175428Y-92948285D01*
X196937333Y-92948285D01*
X196746857Y-92900666D01*
X196651619Y-92853047D01*
X196604000Y-92805428D01*
X196556380Y-92710190D01*
X197556380Y-91424476D02*
X197556380Y-91995904D01*
X197556380Y-91710190D02*
X196556380Y-91710190D01*
X196699238Y-91805428D01*
X196794476Y-91900666D01*
X196842095Y-91995904D01*
%TD*%
M02*
