M48
; DRILL file {KiCad (5.1.10)-1} date 12/18/21 16:47:10
; FORMAT={-:-/ absolute / metric / decimal}
; #@! TF.CreationDate,2021-12-18T16:47:10+01:00
; #@! TF.GenerationSoftware,Kicad,Pcbnew,(5.1.10)-1
; #@! TF.FileFunction,Plated,1,2,PTH
FMAT,2
METRIC
T1C0.400
T2C0.750
T3C0.800
T4C1.000
T5C1.016
T6C1.100
T7C1.300
T8C1.520
T9C4.000
%
G90
G05
T1
X131.318Y-99.314
X168.91Y-100.838
X173.482Y-114.808
X179.578Y-102.362
X180.848Y-100.076
X181.356Y-94.234
X182.372Y-120.904
X185.07Y-102.458
X188.722Y-122.936
T2
X171.45Y-81.534
X172.72Y-81.534
X173.99Y-81.534
X182.626Y-117.856
X183.896Y-117.856
X185.166Y-117.856
X189.992Y-117.856
X191.262Y-117.856
X192.532Y-117.856
T3
X166.116Y-78.74
X166.116Y-86.36
X181.356Y-90.424
X181.356Y-98.044
X181.864Y-78.796
X181.864Y-82.296
X183.896Y-104.14
X183.896Y-111.76
X186.182Y-90.424
X186.182Y-98.044
X191.008Y-90.424
X191.008Y-98.044
X191.262Y-104.14
X191.262Y-111.76
X192.532Y-78.796
X192.532Y-82.296
T4
X124.678Y-85.646
X124.678Y-91.646
X158.278Y-79.646
X158.278Y-97.646
X179.578Y-127.254
X182.118Y-127.254
X184.658Y-127.254
X187.198Y-127.254
X189.738Y-127.254
X192.278Y-127.254
T5
X172.72Y-90.424
X172.72Y-92.964
X172.72Y-95.504
X172.72Y-98.044
X175.26Y-90.424
X175.26Y-92.964
X175.26Y-95.504
X175.26Y-98.044
T6
X123.698Y-107.696
X123.698Y-115.316
X134.112Y-123.952
X134.112Y-128.452
X140.612Y-123.952
X140.612Y-128.452
X152.146Y-107.696
X152.146Y-115.316
X162.56Y-123.952
X162.56Y-128.452
X166.116Y-90.424
X166.116Y-98.044
X169.06Y-123.952
X169.06Y-128.452
T7
X129.286Y-111.506
X131.286Y-105.506
X131.286Y-117.506
X143.486Y-105.506
X143.486Y-117.506
X157.734Y-111.506
X159.734Y-105.506
X159.734Y-117.506
X171.934Y-105.506
X171.934Y-117.506
T8
X113.03Y-77.724
X113.03Y-82.804
X113.03Y-89.408
X113.03Y-94.488
X113.03Y-101.092
X113.03Y-106.172
X113.03Y-111.252
X113.03Y-117.856
X113.03Y-122.936
X113.03Y-128.016
T9
X111.76Y-71.12
X111.76Y-134.62
X195.58Y-71.12
X195.58Y-134.62
T0
M30
