%TF.GenerationSoftware,KiCad,Pcbnew,(5.1.10)-1*%
%TF.CreationDate,2021-12-18T16:47:07+01:00*%
%TF.ProjectId,Sonoff,536f6e6f-6666-42e6-9b69-6361645f7063,rev?*%
%TF.SameCoordinates,Original*%
%TF.FileFunction,Soldermask,Top*%
%TF.FilePolarity,Negative*%
%FSLAX46Y46*%
G04 Gerber Fmt 4.6, Leading zero omitted, Abs format (unit mm)*
G04 Created by KiCad (PCBNEW (5.1.10)-1) date 2021-12-18 16:47:07*
%MOMM*%
%LPD*%
G01*
G04 APERTURE LIST*
%ADD10C,3.000000*%
%ADD11R,3.000000X3.000000*%
%ADD12O,1.700000X1.700000*%
%ADD13R,1.700000X1.700000*%
%ADD14R,1.600000X1.600000*%
%ADD15C,1.600000*%
%ADD16R,2.200000X2.200000*%
%ADD17O,2.200000X2.200000*%
%ADD18R,2.500000X2.500000*%
%ADD19O,2.500000X2.500000*%
%ADD20R,1.500000X1.500000*%
%ADD21C,1.500000*%
%ADD22R,1.050000X1.500000*%
%ADD23O,1.050000X1.500000*%
%ADD24O,1.600000X1.600000*%
%ADD25C,2.000000*%
%ADD26R,1.727200X1.727200*%
%ADD27O,1.727200X1.727200*%
G04 APERTURE END LIST*
D10*
%TO.C,AC IN*%
X113030000Y-82804000D03*
D11*
X113030000Y-77724000D03*
%TD*%
D12*
%TO.C,FTDI IN*%
X192278000Y-127254000D03*
X189738000Y-127254000D03*
X187198000Y-127254000D03*
X184658000Y-127254000D03*
X182118000Y-127254000D03*
D13*
X179578000Y-127254000D03*
%TD*%
D14*
%TO.C,C1*%
X192532000Y-82296000D03*
D15*
X192532000Y-78796000D03*
%TD*%
%TO.C,C2*%
X181864000Y-78796000D03*
D14*
X181864000Y-82296000D03*
%TD*%
D16*
%TO.C,D1*%
X166116000Y-90424000D03*
D17*
X166116000Y-98044000D03*
%TD*%
D16*
%TO.C,D2*%
X123698000Y-107696000D03*
D17*
X123698000Y-115316000D03*
%TD*%
D16*
%TO.C,D3*%
X152146000Y-107696000D03*
D17*
X152146000Y-115316000D03*
%TD*%
D11*
%TO.C,5V IN*%
X113030000Y-89408000D03*
D10*
X113030000Y-94488000D03*
%TD*%
D11*
%TO.C,K1 OUT*%
X113030000Y-101092000D03*
D10*
X113030000Y-106172000D03*
X113030000Y-111252000D03*
%TD*%
%TO.C,K2 OUT*%
X113030000Y-128016000D03*
X113030000Y-122936000D03*
D11*
X113030000Y-117856000D03*
%TD*%
D18*
%TO.C,K1*%
X129286000Y-111506000D03*
D19*
X131286000Y-117506000D03*
X143486000Y-117506000D03*
X143486000Y-105506000D03*
X131286000Y-105506000D03*
%TD*%
D18*
%TO.C,K2*%
X157734000Y-111506000D03*
D19*
X159734000Y-117506000D03*
X171934000Y-117506000D03*
X171934000Y-105506000D03*
X159734000Y-105506000D03*
%TD*%
D20*
%TO.C,HLK-5M05*%
X124678000Y-85646000D03*
D21*
X124678000Y-91646000D03*
X158278000Y-79646000D03*
X158278000Y-97646000D03*
%TD*%
D22*
%TO.C,Q1*%
X171450000Y-81534000D03*
D23*
X173990000Y-81534000D03*
X172720000Y-81534000D03*
%TD*%
D22*
%TO.C,Q2*%
X182626000Y-117856000D03*
D23*
X185166000Y-117856000D03*
X183896000Y-117856000D03*
%TD*%
D22*
%TO.C,Q3*%
X189992000Y-117856000D03*
D23*
X192532000Y-117856000D03*
X191262000Y-117856000D03*
%TD*%
D15*
%TO.C,R1*%
X166116000Y-78740000D03*
D24*
X166116000Y-86360000D03*
%TD*%
%TO.C,R2*%
X181356000Y-90424000D03*
D15*
X181356000Y-98044000D03*
%TD*%
D24*
%TO.C,R3*%
X186182000Y-90424000D03*
D15*
X186182000Y-98044000D03*
%TD*%
%TO.C,R4*%
X191008000Y-90424000D03*
D24*
X191008000Y-98044000D03*
%TD*%
D15*
%TO.C,R5*%
X183896000Y-111760000D03*
D24*
X183896000Y-104140000D03*
%TD*%
%TO.C,R6*%
X191262000Y-104140000D03*
D15*
X191262000Y-111760000D03*
%TD*%
D25*
%TO.C,Reset*%
X140612000Y-123952000D03*
X140612000Y-128452000D03*
X134112000Y-123952000D03*
X134112000Y-128452000D03*
%TD*%
%TO.C,Flash*%
X169060000Y-123952000D03*
X169060000Y-128452000D03*
X162560000Y-123952000D03*
X162560000Y-128452000D03*
%TD*%
D26*
%TO.C,ESP-01*%
X172720000Y-90424000D03*
D27*
X175260000Y-90424000D03*
X172720000Y-92964000D03*
X175260000Y-92964000D03*
X172720000Y-95504000D03*
X175260000Y-95504000D03*
X172720000Y-98044000D03*
X175260000Y-98044000D03*
%TD*%
M02*
