%TF.GenerationSoftware,KiCad,Pcbnew,(5.1.10)-1*%
%TF.CreationDate,2021-12-18T16:47:06+01:00*%
%TF.ProjectId,Sonoff,536f6e6f-6666-42e6-9b69-6361645f7063,rev?*%
%TF.SameCoordinates,Original*%
%TF.FileFunction,Copper,L1,Top*%
%TF.FilePolarity,Positive*%
%FSLAX46Y46*%
G04 Gerber Fmt 4.6, Leading zero omitted, Abs format (unit mm)*
G04 Created by KiCad (PCBNEW (5.1.10)-1) date 2021-12-18 16:47:06*
%MOMM*%
%LPD*%
G01*
G04 APERTURE LIST*
%TA.AperFunction,ComponentPad*%
%ADD10C,3.000000*%
%TD*%
%TA.AperFunction,ComponentPad*%
%ADD11R,3.000000X3.000000*%
%TD*%
%TA.AperFunction,ComponentPad*%
%ADD12O,1.700000X1.700000*%
%TD*%
%TA.AperFunction,ComponentPad*%
%ADD13R,1.700000X1.700000*%
%TD*%
%TA.AperFunction,ComponentPad*%
%ADD14R,1.600000X1.600000*%
%TD*%
%TA.AperFunction,ComponentPad*%
%ADD15C,1.600000*%
%TD*%
%TA.AperFunction,ComponentPad*%
%ADD16R,2.200000X2.200000*%
%TD*%
%TA.AperFunction,ComponentPad*%
%ADD17O,2.200000X2.200000*%
%TD*%
%TA.AperFunction,ComponentPad*%
%ADD18R,2.500000X2.500000*%
%TD*%
%TA.AperFunction,ComponentPad*%
%ADD19O,2.500000X2.500000*%
%TD*%
%TA.AperFunction,ComponentPad*%
%ADD20R,1.500000X1.500000*%
%TD*%
%TA.AperFunction,ComponentPad*%
%ADD21C,1.500000*%
%TD*%
%TA.AperFunction,ComponentPad*%
%ADD22R,1.050000X1.500000*%
%TD*%
%TA.AperFunction,ComponentPad*%
%ADD23O,1.050000X1.500000*%
%TD*%
%TA.AperFunction,ComponentPad*%
%ADD24O,1.600000X1.600000*%
%TD*%
%TA.AperFunction,ComponentPad*%
%ADD25C,2.000000*%
%TD*%
%TA.AperFunction,ComponentPad*%
%ADD26R,1.727200X1.727200*%
%TD*%
%TA.AperFunction,ComponentPad*%
%ADD27O,1.727200X1.727200*%
%TD*%
%TA.AperFunction,ViaPad*%
%ADD28C,5.000000*%
%TD*%
%TA.AperFunction,ViaPad*%
%ADD29C,0.800000*%
%TD*%
%TA.AperFunction,Conductor*%
%ADD30C,1.016000*%
%TD*%
%TA.AperFunction,Conductor*%
%ADD31C,0.508000*%
%TD*%
%TA.AperFunction,Conductor*%
%ADD32C,0.254000*%
%TD*%
%TA.AperFunction,Conductor*%
%ADD33C,2.032000*%
%TD*%
G04 APERTURE END LIST*
D10*
%TO.P,AC IN,2*%
%TO.N,Net-(J1-Pad2)*%
X113030000Y-82804000D03*
D11*
%TO.P,AC IN,1*%
%TO.N,Net-(J1-Pad1)*%
X113030000Y-77724000D03*
%TD*%
D12*
%TO.P,FTDI IN,6*%
%TO.N,Net-(J5-Pad6)*%
X192278000Y-127254000D03*
%TO.P,FTDI IN,5*%
%TO.N,RX*%
X189738000Y-127254000D03*
%TO.P,FTDI IN,4*%
%TO.N,TX*%
X187198000Y-127254000D03*
%TO.P,FTDI IN,3*%
%TO.N,+3V3*%
X184658000Y-127254000D03*
%TO.P,FTDI IN,2*%
%TO.N,Net-(J5-Pad2)*%
X182118000Y-127254000D03*
D13*
%TO.P,FTDI IN,1*%
%TO.N,GND*%
X179578000Y-127254000D03*
%TD*%
D14*
%TO.P,C1,1*%
%TO.N,+5V*%
X192532000Y-82296000D03*
D15*
%TO.P,C1,2*%
%TO.N,GND*%
X192532000Y-78796000D03*
%TD*%
%TO.P,C2,2*%
%TO.N,GND*%
X181864000Y-78796000D03*
D14*
%TO.P,C2,1*%
%TO.N,+3V3*%
X181864000Y-82296000D03*
%TD*%
D16*
%TO.P,D1,1*%
%TO.N,Net-(D1-Pad1)*%
X166116000Y-90424000D03*
D17*
%TO.P,D1,2*%
%TO.N,GND*%
X166116000Y-98044000D03*
%TD*%
D16*
%TO.P,D2,1*%
%TO.N,+5V*%
X123698000Y-107696000D03*
D17*
%TO.P,D2,2*%
%TO.N,Net-(D2-Pad2)*%
X123698000Y-115316000D03*
%TD*%
D16*
%TO.P,D3,1*%
%TO.N,+5V*%
X152146000Y-107696000D03*
D17*
%TO.P,D3,2*%
%TO.N,Net-(D3-Pad2)*%
X152146000Y-115316000D03*
%TD*%
D11*
%TO.P,5V IN,1*%
%TO.N,+5V*%
X113030000Y-89408000D03*
D10*
%TO.P,5V IN,2*%
%TO.N,GND*%
X113030000Y-94488000D03*
%TD*%
D11*
%TO.P,K1 OUT,1*%
%TO.N,K1_OFF*%
X113030000Y-101092000D03*
D10*
%TO.P,K1 OUT,2*%
%TO.N,K1_ON*%
X113030000Y-106172000D03*
%TO.P,K1 OUT,3*%
%TO.N,K1_IN*%
X113030000Y-111252000D03*
%TD*%
%TO.P,K2 OUT,3*%
%TO.N,K2_IN*%
X113030000Y-128016000D03*
%TO.P,K2 OUT,2*%
%TO.N,K2_ON*%
X113030000Y-122936000D03*
D11*
%TO.P,K2 OUT,1*%
%TO.N,K2_OFF*%
X113030000Y-117856000D03*
%TD*%
D18*
%TO.P,K1,1*%
%TO.N,K1_IN*%
X129286000Y-111506000D03*
D19*
%TO.P,K1,2*%
%TO.N,Net-(D2-Pad2)*%
X131286000Y-117506000D03*
%TO.P,K1,3*%
%TO.N,K1_OFF*%
X143486000Y-117506000D03*
%TO.P,K1,4*%
%TO.N,K1_ON*%
X143486000Y-105506000D03*
%TO.P,K1,5*%
%TO.N,+5V*%
X131286000Y-105506000D03*
%TD*%
D18*
%TO.P,K2,1*%
%TO.N,K2_IN*%
X157734000Y-111506000D03*
D19*
%TO.P,K2,2*%
%TO.N,Net-(D3-Pad2)*%
X159734000Y-117506000D03*
%TO.P,K2,3*%
%TO.N,K2_OFF*%
X171934000Y-117506000D03*
%TO.P,K2,4*%
%TO.N,K2_ON*%
X171934000Y-105506000D03*
%TO.P,K2,5*%
%TO.N,+5V*%
X159734000Y-105506000D03*
%TD*%
D20*
%TO.P,HLK-5M05,1*%
%TO.N,Net-(J1-Pad1)*%
X124678000Y-85646000D03*
D21*
%TO.P,HLK-5M05,2*%
%TO.N,Net-(J1-Pad2)*%
X124678000Y-91646000D03*
%TO.P,HLK-5M05,3*%
%TO.N,GND*%
X158278000Y-79646000D03*
%TO.P,HLK-5M05,4*%
%TO.N,+5V*%
X158278000Y-97646000D03*
%TD*%
D22*
%TO.P,Q1,1*%
%TO.N,+5V*%
X171450000Y-81534000D03*
D23*
%TO.P,Q1,3*%
%TO.N,+3V3*%
X173990000Y-81534000D03*
%TO.P,Q1,2*%
%TO.N,Net-(D1-Pad1)*%
X172720000Y-81534000D03*
%TD*%
D22*
%TO.P,Q2,1*%
%TO.N,GND*%
X182626000Y-117856000D03*
D23*
%TO.P,Q2,3*%
%TO.N,Net-(D2-Pad2)*%
X185166000Y-117856000D03*
%TO.P,Q2,2*%
%TO.N,K1*%
X183896000Y-117856000D03*
%TD*%
D22*
%TO.P,Q3,1*%
%TO.N,GND*%
X189992000Y-117856000D03*
D23*
%TO.P,Q3,3*%
%TO.N,Net-(D3-Pad2)*%
X192532000Y-117856000D03*
%TO.P,Q3,2*%
%TO.N,K2*%
X191262000Y-117856000D03*
%TD*%
D15*
%TO.P,R1,1*%
%TO.N,+5V*%
X166116000Y-78740000D03*
D24*
%TO.P,R1,2*%
%TO.N,Net-(D1-Pad1)*%
X166116000Y-86360000D03*
%TD*%
%TO.P,R2,2*%
%TO.N,K1*%
X181356000Y-90424000D03*
D15*
%TO.P,R2,1*%
%TO.N,+3V3*%
X181356000Y-98044000D03*
%TD*%
D24*
%TO.P,R3,2*%
%TO.N,K2*%
X186182000Y-90424000D03*
D15*
%TO.P,R3,1*%
%TO.N,+3V3*%
X186182000Y-98044000D03*
%TD*%
%TO.P,R4,1*%
%TO.N,Net-(R4-Pad1)*%
X191008000Y-90424000D03*
D24*
%TO.P,R4,2*%
%TO.N,+3V3*%
X191008000Y-98044000D03*
%TD*%
D15*
%TO.P,R5,1*%
%TO.N,K1*%
X183896000Y-111760000D03*
D24*
%TO.P,R5,2*%
%TO.N,Net-(R5-Pad2)*%
X183896000Y-104140000D03*
%TD*%
%TO.P,R6,2*%
%TO.N,Net-(R6-Pad2)*%
X191262000Y-104140000D03*
D15*
%TO.P,R6,1*%
%TO.N,K2*%
X191262000Y-111760000D03*
%TD*%
D25*
%TO.P,Reset,1*%
%TO.N,Net-(R4-Pad1)*%
X140612000Y-123952000D03*
%TO.P,Reset,2*%
%TO.N,GND*%
X140612000Y-128452000D03*
%TO.P,Reset,1*%
%TO.N,Net-(R4-Pad1)*%
X134112000Y-123952000D03*
%TO.P,Reset,2*%
%TO.N,GND*%
X134112000Y-128452000D03*
%TD*%
%TO.P,Flash,2*%
%TO.N,K2*%
X169060000Y-123952000D03*
%TO.P,Flash,1*%
%TO.N,GND*%
X169060000Y-128452000D03*
%TO.P,Flash,2*%
%TO.N,K2*%
X162560000Y-123952000D03*
%TO.P,Flash,1*%
%TO.N,GND*%
X162560000Y-128452000D03*
%TD*%
D26*
%TO.P,ESP-01,1*%
%TO.N,RX*%
X172720000Y-90424000D03*
D27*
%TO.P,ESP-01,2*%
%TO.N,GND*%
X175260000Y-90424000D03*
%TO.P,ESP-01,3*%
%TO.N,+3V3*%
X172720000Y-92964000D03*
%TO.P,ESP-01,4*%
%TO.N,Net-(R5-Pad2)*%
X175260000Y-92964000D03*
%TO.P,ESP-01,5*%
%TO.N,Net-(R4-Pad1)*%
X172720000Y-95504000D03*
%TO.P,ESP-01,6*%
%TO.N,Net-(R6-Pad2)*%
X175260000Y-95504000D03*
%TO.P,ESP-01,7*%
%TO.N,+3V3*%
X172720000Y-98044000D03*
%TO.P,ESP-01,8*%
%TO.N,TX*%
X175260000Y-98044000D03*
%TD*%
D28*
%TO.N,*%
X111760000Y-71120000D03*
X195580000Y-71120000D03*
X195580000Y-134620000D03*
X111760000Y-134620000D03*
D29*
%TO.N,+5V*%
X131318000Y-99314000D03*
%TO.N,Net-(D2-Pad2)*%
X173482000Y-114808000D03*
%TO.N,Net-(D3-Pad2)*%
X182372000Y-120904000D03*
%TO.N,TX*%
X179578000Y-102362000D03*
%TO.N,RX*%
X185070130Y-102457870D03*
X188722000Y-122936000D03*
%TO.N,Net-(R4-Pad1)*%
X181356000Y-94234000D03*
X168910000Y-100838000D03*
%TO.N,Net-(R5-Pad2)*%
X180848000Y-100076000D03*
%TD*%
D30*
%TO.N,+5V*%
X113030000Y-89408000D02*
X115316000Y-89408000D01*
X115316000Y-89408000D02*
X123554000Y-97646000D01*
X158278000Y-97646000D02*
X161180000Y-97646000D01*
X161180000Y-97646000D02*
X162814000Y-96012000D01*
X162814000Y-96012000D02*
X162814000Y-79756000D01*
X163830000Y-78740000D02*
X166116000Y-78740000D01*
X162814000Y-79756000D02*
X163830000Y-78740000D01*
X131462000Y-97646000D02*
X158278000Y-97646000D01*
X125332000Y-97646000D02*
X131462000Y-97646000D01*
X123554000Y-97646000D02*
X125332000Y-97646000D01*
D31*
X159734000Y-105506000D02*
X159734000Y-103092000D01*
X158278000Y-101636000D02*
X158278000Y-97646000D01*
X159734000Y-103092000D02*
X158278000Y-101636000D01*
X157544000Y-107696000D02*
X159734000Y-105506000D01*
X152146000Y-107696000D02*
X157544000Y-107696000D01*
X131318000Y-97790000D02*
X131462000Y-97646000D01*
X131318000Y-99314000D02*
X131318000Y-97790000D01*
D30*
X168656000Y-78740000D02*
X171450000Y-81534000D01*
X166116000Y-78740000D02*
X168656000Y-78740000D01*
X173736000Y-85852000D02*
X188976000Y-85852000D01*
X171450000Y-83566000D02*
X173736000Y-85852000D01*
X188976000Y-85852000D02*
X192532000Y-82296000D01*
X171450000Y-81534000D02*
X171450000Y-83566000D01*
%TO.N,+3V3*%
X179070000Y-121666000D02*
X184658000Y-127254000D01*
X179070000Y-109220000D02*
X179070000Y-121666000D01*
X172720000Y-102870000D02*
X179070000Y-109220000D01*
D31*
X172974000Y-100330000D02*
X172720000Y-100584000D01*
D30*
X172720000Y-100584000D02*
X172720000Y-102870000D01*
X172720000Y-98044000D02*
X172720000Y-100584000D01*
D32*
X181356000Y-98044000D02*
X179578000Y-98044000D01*
X177038000Y-100584000D02*
X172720000Y-100584000D01*
X179578000Y-98044000D02*
X177038000Y-100584000D01*
D30*
X181102000Y-81534000D02*
X181864000Y-82296000D01*
X173990000Y-81534000D02*
X181102000Y-81534000D01*
%TO.N,Net-(D1-Pad1)*%
X166116000Y-86360000D02*
X166116000Y-90424000D01*
D31*
%TO.N,Net-(D2-Pad2)*%
X131286000Y-117506000D02*
X140112000Y-117506000D01*
X141816001Y-119210001D02*
X166793999Y-119210001D01*
X140112000Y-117506000D02*
X141816001Y-119210001D01*
X171196000Y-114808000D02*
X173482000Y-114808000D01*
X166793999Y-119210001D02*
X171196000Y-114808000D01*
%TO.N,Net-(D3-Pad2)*%
X192532000Y-119114000D02*
X190742000Y-120904000D01*
X190742000Y-120904000D02*
X182372000Y-120904000D01*
X192532000Y-117856000D02*
X192532000Y-119114000D01*
X157544000Y-115316000D02*
X159734000Y-117506000D01*
X152146000Y-115316000D02*
X157544000Y-115316000D01*
D30*
%TO.N,Net-(J1-Pad1)*%
X113030000Y-77724000D02*
X120396000Y-77724000D01*
X124678000Y-82006000D02*
X124678000Y-85646000D01*
X120396000Y-77724000D02*
X124678000Y-82006000D01*
D32*
%TO.N,TX*%
X180340000Y-103124000D02*
X180340000Y-120396000D01*
X180340000Y-120396000D02*
X187198000Y-127254000D01*
X179578000Y-102362000D02*
X180340000Y-103124000D01*
%TO.N,RX*%
X172951799Y-91773399D02*
X180927399Y-91773399D01*
X172720000Y-91541600D02*
X172951799Y-91773399D01*
X172720000Y-90424000D02*
X172720000Y-91541600D01*
X180927399Y-91773399D02*
X182118000Y-92964000D01*
X182118000Y-96012000D02*
X183134000Y-97028000D01*
X182118000Y-92964000D02*
X182118000Y-96012000D01*
X183134000Y-97028000D02*
X183134000Y-100330000D01*
X185070130Y-102266130D02*
X185070130Y-102457870D01*
X183134000Y-100330000D02*
X185070130Y-102266130D01*
X188722000Y-126238000D02*
X189738000Y-127254000D01*
X188722000Y-122936000D02*
X188722000Y-126238000D01*
%TO.N,K1*%
X181356000Y-90424000D02*
X183896000Y-92964000D01*
X183896000Y-92964000D02*
X183896000Y-99822000D01*
X183896000Y-99822000D02*
X186182000Y-102108000D01*
X186182000Y-109474000D02*
X183896000Y-111760000D01*
X186182000Y-102108000D02*
X186182000Y-109474000D01*
X183896000Y-111760000D02*
X183896000Y-117856000D01*
%TO.N,K2*%
X191262000Y-111760000D02*
X188976000Y-109474000D01*
X188976000Y-93218000D02*
X186182000Y-90424000D01*
X188976000Y-109474000D02*
X188976000Y-93218000D01*
X191262000Y-111760000D02*
X191262000Y-117856000D01*
%TO.N,Net-(R4-Pad1)*%
X173990000Y-94234000D02*
X177546000Y-94234000D01*
X172720000Y-95504000D02*
X173990000Y-94234000D01*
X177546000Y-94234000D02*
X181356000Y-94234000D01*
X168910000Y-99314000D02*
X168910000Y-100838000D01*
X172720000Y-95504000D02*
X168910000Y-99314000D01*
D30*
%TO.N,Net-(J1-Pad2)*%
X122380000Y-91646000D02*
X124678000Y-91646000D01*
X121158000Y-90424000D02*
X122380000Y-91646000D01*
X121158000Y-84074000D02*
X121158000Y-90424000D01*
X119888000Y-82804000D02*
X121158000Y-84074000D01*
X113030000Y-82804000D02*
X119888000Y-82804000D01*
D33*
%TO.N,K1_OFF*%
X113030000Y-101092000D02*
X144526000Y-101092000D01*
X144526000Y-101092000D02*
X147066000Y-103632000D01*
X147066000Y-113926000D02*
X143486000Y-117506000D01*
X147066000Y-103632000D02*
X147066000Y-113926000D01*
%TO.N,K1_ON*%
X114529999Y-104672001D02*
X124992001Y-104672001D01*
X113030000Y-106172000D02*
X114529999Y-104672001D01*
X124992001Y-104672001D02*
X128778000Y-108458000D01*
X140534000Y-108458000D02*
X143486000Y-105506000D01*
X128778000Y-108458000D02*
X140534000Y-108458000D01*
%TO.N,K1_IN*%
X129032000Y-111252000D02*
X129286000Y-111506000D01*
X113030000Y-111252000D02*
X129032000Y-111252000D01*
%TO.N,K2_ON*%
X116329999Y-126235999D02*
X171706001Y-126235999D01*
X113030000Y-122936000D02*
X116329999Y-126235999D01*
X171706001Y-126235999D02*
X175514000Y-122428000D01*
X175514000Y-109086000D02*
X171934000Y-105506000D01*
X175514000Y-122428000D02*
X175514000Y-109086000D01*
%TO.N,K2_OFF*%
X113030000Y-117856000D02*
X118618000Y-117856000D01*
X118618000Y-117856000D02*
X122174000Y-121412000D01*
X168028000Y-121412000D02*
X171934000Y-117506000D01*
X122174000Y-121412000D02*
X168028000Y-121412000D01*
D32*
%TO.N,Net-(R5-Pad2)*%
X180848000Y-100076000D02*
X181864000Y-100076000D01*
X183896000Y-102108000D02*
X183896000Y-104140000D01*
X181864000Y-100076000D02*
X183896000Y-102108000D01*
%TD*%
M02*
